<svg xmlns="http://www.w3.org/2000/svg" xmlns:xlink="http://www.w3.org/1999/xlink" width="500" zoomAndPan="magnify" viewBox="0 0 375 374.999991" height="500" preserveAspectRatio="xMidYMid meet" version="1.0"><defs><clipPath id="id1"><path d="M 20 86.6875 L 344 86.6875 L 344 243 L 20 243 Z M 20 86.6875 " clip-rule="nonzero"/></clipPath><clipPath id="id2"><path d="M 147 188 L 355 188 L 355 288.4375 L 147 288.4375 Z M 147 188 " clip-rule="nonzero"/></clipPath><clipPath id="id3"><path d="M 143 184 L 358.628906 184 L 358.628906 288.4375 L 143 288.4375 Z M 143 184 " clip-rule="nonzero"/></clipPath></defs><path fill="rgb(100%, 100%, 100%)" d="M 157.3125 100.488281 C 157.3125 100.488281 159.195312 91.492188 162.128906 89.660156 C 166.820312 90.796875 177.539062 95.371094 177.539062 95.371094 L 157.3125 100.488281 " fill-opacity="1" fill-rule="nonzero"/><path fill="rgb(9.408569%, 9.799194%, 11.369324%)" d="M 162.535156 91.484375 C 161.457031 92.683594 160.355469 95.558594 159.597656 98.195312 L 172.253906 94.992188 C 169.148438 93.753906 165.167969 92.226562 162.535156 91.484375 M 157.3125 102.148438 C 156.886719 102.148438 156.472656 101.988281 156.160156 101.6875 C 155.746094 101.289062 155.566406 100.707031 155.683594 100.144531 C 156.023438 98.527344 157.886719 90.347656 161.246094 88.25 C 161.628906 88.011719 162.085938 87.9375 162.519531 88.046875 C 167.292969 89.199219 177.75 93.65625 178.191406 93.84375 C 178.847656 94.125 179.253906 94.792969 179.195312 95.503906 C 179.140625 96.210938 178.636719 96.808594 177.945312 96.980469 L 157.71875 102.097656 C 157.585938 102.132812 157.445312 102.148438 157.3125 102.148438 " fill-opacity="1" fill-rule="nonzero"/><path fill="rgb(100%, 100%, 100%)" d="M 273.710938 125.519531 C 273.710938 125.519531 275.796875 116.101562 278.726562 114.273438 C 283.339844 117.394531 293.9375 124.082031 293.9375 124.082031 L 273.710938 125.519531 " fill-opacity="1" fill-rule="nonzero"/><path fill="rgb(9.408569%, 9.799194%, 11.369324%)" d="M 278.902344 116.386719 C 277.796875 117.859375 276.65625 120.972656 275.882812 123.699219 L 288.789062 122.785156 C 285.730469 120.832031 281.675781 118.234375 278.902344 116.386719 M 273.710938 127.179688 C 273.226562 127.179688 272.769531 126.96875 272.453125 126.601562 C 272.109375 126.207031 271.972656 125.671875 272.089844 125.15625 C 272.460938 123.472656 274.496094 114.957031 277.847656 112.859375 C 278.40625 112.515625 279.117188 112.523438 279.664062 112.894531 C 284.195312 115.96875 294.722656 122.613281 294.824219 122.675781 C 295.429688 123.0625 295.726562 123.792969 295.550781 124.488281 C 295.375 125.1875 294.773438 125.6875 294.054688 125.742188 L 273.828125 127.175781 L 273.710938 127.179688 " fill-opacity="1" fill-rule="nonzero"/><path fill="rgb(100%, 100%, 100%)" d="M 72.066406 131.542969 C 72.066406 131.542969 73.78125 123.144531 76.71875 121.3125 C 79.648438 119.480469 92.292969 126.429688 92.292969 126.429688 L 72.066406 131.542969 " fill-opacity="1" fill-rule="nonzero"/><path fill="rgb(9.408569%, 9.799194%, 11.369324%)" d="M 78.101562 122.667969 C 77.722656 122.667969 77.582031 122.726562 77.582031 122.734375 C 76.386719 123.476562 75.164062 126.457031 74.355469 129.253906 L 87.589844 125.90625 C 84.328125 124.355469 80.234375 122.667969 78.101562 122.667969 M 72.066406 133.207031 C 71.644531 133.207031 71.234375 133.046875 70.921875 132.746094 C 70.503906 132.351562 70.324219 131.773438 70.441406 131.210938 C 70.746094 129.691406 72.464844 122.003906 75.832031 119.902344 C 76.441406 119.53125 77.179688 119.34375 78.101562 119.34375 C 82.714844 119.34375 92.046875 124.394531 93.09375 124.96875 C 93.695312 125.300781 94.03125 125.960938 93.945312 126.640625 C 93.855469 127.316406 93.363281 127.875 92.703125 128.039062 L 72.476562 133.152344 C 72.339844 133.1875 72.203125 133.207031 72.066406 133.207031 " fill-opacity="1" fill-rule="nonzero"/><path fill="rgb(77.648926%, 37.649536%, 10.198975%)" d="M 335.515625 185.183594 C 335.515625 222.324219 268.292969 240.671875 193.484375 240.671875 C 118.671875 240.671875 27.929688 227.496094 27.929688 190.355469 C 27.929688 153.21875 106.910156 94.097656 181.722656 94.097656 C 256.53125 94.097656 335.515625 148.046875 335.515625 185.183594 " fill-opacity="1" fill-rule="nonzero"/><path fill="rgb(9.408569%, 9.799194%, 11.369324%)" d="M 181.722656 95.757812 C 147.910156 95.757812 109.992188 108.121094 77.695312 129.683594 C 48.472656 149.1875 29.59375 173.003906 29.59375 190.355469 C 29.59375 223.96875 111.90625 239.011719 193.484375 239.011719 C 263.355469 239.011719 333.855469 222.371094 333.855469 185.183594 C 333.855469 167.839844 315.4375 145.597656 285.792969 127.125 C 253.800781 107.191406 215.871094 95.757812 181.722656 95.757812 M 193.484375 242.335938 C 116.347656 242.335938 26.269531 228.722656 26.269531 190.355469 C 26.269531 150.800781 108.152344 92.433594 181.722656 92.433594 C 256.777344 92.433594 337.179688 146.871094 337.179688 185.183594 C 337.179688 203.296875 321.9375 218.25 293.105469 228.425781 C 267.683594 237.398438 232.300781 242.335938 193.484375 242.335938 " fill-opacity="1" fill-rule="nonzero"/><path fill="rgb(96.078491%, 47.059631%, 13.328552%)" d="M 278.726562 114.273438 C 284.707031 133.019531 282.550781 153.851562 280.339844 156.785156 C 277.042969 161.140625 267.101562 117.714844 243.507812 99.921875 C 242.863281 99.433594 242.234375 98.933594 241.59375 98.441406 C 222.351562 92.175781 201.894531 88.378906 181.722656 88.378906 C 175.207031 88.378906 168.65625 88.847656 162.128906 89.660156 C 181.402344 107.390625 183.3125 143.628906 180.890625 147.914062 C 178.199219 152.671875 171.210938 116.351562 145.480469 101.816406 C 141.660156 99.65625 138.019531 97.476562 134.558594 95.308594 C 113.671875 101.214844 93.800781 110.453125 76.71875 121.3125 C 96.929688 133.367188 109.351562 160.027344 108.8125 164.40625 C 108.144531 169.828125 87.816406 138.925781 58.484375 135.308594 C 58.136719 135.265625 57.792969 135.214844 57.441406 135.171875 C 35.769531 152.875 21.929688 172.558594 21.929688 188.394531 C 21.929688 226.984375 116.214844 240.671875 193.941406 240.671875 C 271.667969 240.671875 341.515625 221.609375 341.515625 183.019531 C 341.515625 161.261719 315.421875 133.953125 278.726562 114.273438 " fill-opacity="1" fill-rule="nonzero"/><path fill="rgb(96.078491%, 65.489197%, 39.99939%)" d="M 112.1875 167.898438 C 111.667969 167.898438 110.785156 167.296875 109.574219 166.269531 C 110.019531 165.933594 110.367188 165.386719 110.460938 164.613281 C 110.78125 162.027344 108.058594 154.679688 102.945312 146.34375 C 109.480469 155.949219 113.015625 164.890625 112.726562 167.265625 C 112.667969 167.699219 112.492188 167.898438 112.1875 167.898438 " fill-opacity="1" fill-rule="nonzero"/><path fill="rgb(96.078491%, 65.489197%, 39.99939%)" d="M 82.347656 123.089844 C 81.527344 122.476562 80.6875 121.882812 79.835938 121.316406 C 96.804688 110.824219 115.5625 102.484375 134.300781 97.109375 C 135.132812 97.628906 135.964844 98.136719 136.796875 98.644531 C 117.21875 104.367188 98.585938 112.992188 82.347656 123.089844 " fill-opacity="1" fill-rule="nonzero"/><path fill="rgb(96.078491%, 65.489197%, 39.99939%)" d="M 28.738281 202.410156 C 25.390625 198.140625 23.589844 193.46875 23.589844 188.394531 C 23.589844 173.851562 36.414062 154.640625 57.9375 136.914062 L 58.28125 136.957031 C 61.566406 137.363281 64.738281 138.125 67.789062 139.152344 C 66.03125 138.726562 64.230469 138.394531 62.398438 138.167969 C 62.042969 138.125 61.707031 138.074219 61.351562 138.03125 C 39.679688 155.730469 25.835938 175.414062 25.835938 191.253906 C 25.835938 195.234375 26.84375 198.949219 28.738281 202.410156 " fill-opacity="1" fill-rule="nonzero"/><path fill="rgb(96.078491%, 65.489197%, 39.99939%)" d="M 184.261719 151.199219 C 183.753906 151.199219 183.125 150.308594 182.320312 148.757812 C 182.324219 148.75 182.332031 148.742188 182.335938 148.734375 C 184.925781 144.152344 183.335938 117.703125 171.617188 98.75 C 185.671875 117.601562 186.964844 146.941406 184.800781 150.777344 C 184.636719 151.0625 184.457031 151.199219 184.261719 151.199219 M 236.472656 98.574219 C 219.925781 93.953125 202.679688 91.234375 185.632812 91.234375 C 179.449219 91.234375 173.234375 91.65625 167.039062 92.394531 C 166.613281 91.894531 166.175781 91.398438 165.734375 90.917969 C 171.273438 90.335938 176.644531 90.039062 181.722656 90.039062 C 199.324219 90.039062 217.722656 92.910156 236.472656 98.574219 " fill-opacity="1" fill-rule="nonzero"/><path fill="rgb(81.959534%, 39.99939%, 10.978699%)" d="M 326.371094 208.859375 C 326.261719 208.726562 326.125 208.601562 325.96875 208.503906 C 325.898438 208.460938 318.960938 204.082031 315.976562 202.054688 C 315.695312 201.867188 315.371094 201.769531 315.042969 201.769531 C 314.742188 201.769531 314.433594 201.851562 314.164062 202.023438 C 313.402344 202.496094 312.746094 203.390625 312.191406 204.433594 C 306.652344 201.519531 300.925781 198.96875 295.097656 196.816406 C 294.25 195.984375 293.375 195.199219 292.464844 194.472656 C 292.785156 194.578125 293.105469 194.679688 293.425781 194.78125 C 293.085938 194.503906 292.746094 194.222656 292.402344 193.964844 C 291.972656 193.636719 291.558594 193.3125 291.136719 192.984375 C 289.191406 192.351562 287.226562 191.761719 285.246094 191.207031 C 299.691406 175.261719 301.433594 152.21875 281.847656 119.3125 C 281.71875 118.757812 281.582031 118.207031 281.433594 117.648438 C 316.53125 137.3125 339.855469 163.289062 339.855469 183.019531 C 339.855469 193.046875 334.933594 201.636719 326.371094 208.859375 " fill-opacity="1" fill-rule="nonzero"/><g clip-path="url(#id1)"><path fill="rgb(9.408569%, 9.799194%, 11.369324%)" d="M 57.9375 136.914062 C 36.414062 154.640625 23.589844 173.851562 23.589844 188.394531 C 23.589844 223.363281 109.148438 239.011719 193.941406 239.011719 C 266.570312 239.011719 339.855469 221.699219 339.855469 183.019531 C 339.855469 163.289062 316.53125 137.3125 281.433594 117.648438 C 286.1875 135.882812 284.066406 154.605469 281.664062 157.78125 C 281.195312 158.40625 280.542969 158.75 279.828125 158.75 L 279.824219 158.75 C 277.589844 158.75 276.308594 156.054688 272.222656 146.722656 C 266.585938 133.847656 257.152344 112.292969 242.507812 101.246094 C 242.105469 100.941406 241.710938 100.636719 241.320312 100.332031 L 240.808594 99.933594 C 220.554688 93.367188 200.679688 90.039062 181.722656 90.039062 C 176.644531 90.039062 171.273438 90.335938 165.734375 90.917969 C 182.773438 109.402344 185.3125 143.472656 182.335938 148.734375 C 181.710938 149.839844 180.824219 150.007812 180.347656 150.007812 C 178.382812 150.007812 177.371094 147.792969 174.671875 141.894531 C 169.996094 131.679688 161.289062 112.65625 144.664062 103.261719 C 141.25 101.335938 137.765625 99.261719 134.300781 97.109375 C 115.5625 102.484375 96.804688 110.824219 79.835938 121.316406 C 99.054688 134.113281 111.113281 159.332031 110.460938 164.613281 C 110.285156 166.058594 109.234375 166.703125 108.28125 166.703125 C 106.742188 166.707031 105.148438 165.292969 100.769531 161.214844 C 92.546875 153.554688 77.234375 139.292969 58.28125 136.957031 L 57.9375 136.914062 M 193.941406 242.335938 C 113.824219 242.335938 20.265625 228.207031 20.265625 188.394531 C 20.265625 172.507812 33.433594 152.636719 56.390625 133.886719 C 56.742188 133.59375 57.195312 133.464844 57.648438 133.523438 L 58.6875 133.660156 C 78.710938 136.128906 94.535156 150.863281 103.035156 158.78125 C 104.347656 160.007812 105.773438 161.332031 106.859375 162.25 C 104.875 155.070312 93.535156 133.273438 75.863281 122.742188 C 75.367188 122.445312 75.0625 121.914062 75.054688 121.339844 C 75.046875 120.761719 75.335938 120.222656 75.820312 119.910156 C 93.847656 108.457031 114 99.394531 134.101562 93.710938 C 134.558594 93.582031 135.039062 93.648438 135.4375 93.902344 C 139.066406 96.171875 142.722656 98.351562 146.300781 100.371094 C 163.863281 110.292969 172.859375 129.953125 177.695312 140.515625 C 178.433594 142.128906 179.230469 143.871094 179.878906 145.132812 C 180.792969 136.800781 178.222656 106.722656 161.003906 90.878906 C 160.527344 90.441406 160.347656 89.769531 160.546875 89.152344 C 160.746094 88.535156 161.28125 88.089844 161.921875 88.011719 C 168.808594 87.148438 175.472656 86.71875 181.722656 86.71875 C 201.109375 86.71875 221.429688 90.132812 242.109375 96.859375 C 242.292969 96.921875 242.460938 97.007812 242.613281 97.125 L 243.359375 97.707031 C 243.742188 98.003906 244.125 98.300781 244.511719 98.597656 C 259.847656 110.164062 269.5 132.214844 275.269531 145.386719 C 276.84375 148.996094 278.46875 152.703125 279.539062 154.507812 C 281.03125 149.375 282.472656 131.496094 277.144531 114.773438 C 276.941406 114.128906 277.144531 113.421875 277.667969 112.992188 C 278.1875 112.5625 278.917969 112.484375 279.515625 112.804688 C 318.191406 133.554688 343.179688 161.117188 343.179688 183.019531 C 343.179688 201.808594 327.359375 217.324219 297.429688 227.882812 C 271.019531 237.207031 234.265625 242.335938 193.941406 242.335938 " fill-opacity="1" fill-rule="nonzero"/></g><path fill="rgb(100%, 100%, 100%)" d="M 108.011719 185.792969 C 108.011719 185.792969 109.257812 179.855469 111.191406 178.648438 C 114.292969 179.394531 121.363281 182.417969 121.363281 182.417969 L 108.011719 185.792969 " fill-opacity="1" fill-rule="nonzero"/><path fill="rgb(9.408569%, 9.799194%, 11.369324%)" d="M 111.664062 180.5 C 111.242188 181.117188 110.765625 182.242188 110.355469 183.484375 L 116.035156 182.050781 C 114.515625 181.460938 112.90625 180.871094 111.664062 180.5 M 108.011719 187.453125 C 107.585938 187.453125 107.175781 187.292969 106.859375 186.992188 C 106.449219 186.597656 106.265625 186.011719 106.382812 185.453125 C 106.710938 183.898438 107.960938 178.707031 110.3125 177.238281 C 110.695312 177.003906 111.152344 176.925781 111.585938 177.03125 C 114.777344 177.808594 121.722656 180.761719 122.019531 180.890625 C 122.671875 181.164062 123.074219 181.835938 123.023438 182.546875 C 122.964844 183.257812 122.464844 183.855469 121.769531 184.027344 L 108.417969 187.402344 C 108.285156 187.4375 108.148438 187.453125 108.011719 187.453125 " fill-opacity="1" fill-rule="nonzero"/><path fill="rgb(100%, 100%, 100%)" d="M 184.832031 202.3125 C 184.832031 202.3125 186.207031 196.097656 188.144531 194.890625 C 191.1875 196.949219 198.183594 201.367188 198.183594 201.367188 L 184.832031 202.3125 " fill-opacity="1" fill-rule="nonzero"/><path fill="rgb(9.408569%, 9.799194%, 11.369324%)" d="M 188.421875 197.070312 C 187.972656 197.847656 187.46875 199.101562 187.039062 200.488281 L 193.039062 200.066406 C 191.492188 199.074219 189.789062 197.976562 188.421875 197.070312 M 184.832031 203.972656 C 184.351562 203.972656 183.886719 203.765625 183.574219 203.398438 C 183.230469 203 183.097656 202.464844 183.207031 201.953125 C 183.566406 200.332031 184.917969 194.945312 187.265625 193.476562 C 187.820312 193.132812 188.53125 193.144531 189.078125 193.511719 C 192.058594 195.539062 199 199.917969 199.074219 199.960938 C 199.679688 200.34375 199.972656 201.074219 199.796875 201.769531 C 199.621094 202.46875 199.019531 202.972656 198.300781 203.027344 L 184.949219 203.96875 L 184.832031 203.972656 " fill-opacity="1" fill-rule="nonzero"/><path fill="rgb(100%, 100%, 100%)" d="M 51.753906 206.289062 C 51.753906 206.289062 52.890625 200.746094 54.824219 199.539062 C 56.757812 198.328125 65.105469 202.914062 65.105469 202.914062 L 51.753906 206.289062 " fill-opacity="1" fill-rule="nonzero"/><path fill="rgb(9.408569%, 9.799194%, 11.369324%)" d="M 55.628906 201 C 55.148438 201.382812 54.582031 202.589844 54.105469 203.980469 L 60.304688 202.410156 C 58.5 201.628906 56.710938 200.996094 55.738281 200.996094 L 55.628906 201 M 51.753906 207.949219 C 51.335938 207.949219 50.917969 207.789062 50.609375 207.492188 C 50.191406 207.097656 50.015625 206.519531 50.128906 205.957031 C 50.425781 204.492188 51.585938 199.597656 53.941406 198.125 C 54.425781 197.824219 55.03125 197.671875 55.738281 197.671875 C 58.859375 197.671875 64.757812 200.824219 65.90625 201.453125 C 66.507812 201.785156 66.839844 202.445312 66.753906 203.125 C 66.667969 203.800781 66.171875 204.359375 65.515625 204.523438 L 52.160156 207.898438 C 52.027344 207.933594 51.894531 207.949219 51.753906 207.949219 " fill-opacity="1" fill-rule="nonzero"/><path fill="rgb(77.648926%, 37.649536%, 10.198975%)" d="M 225.621094 241.691406 C 225.621094 266.203125 181.257812 278.3125 131.886719 278.3125 C 82.511719 278.3125 22.625 269.613281 22.625 245.105469 C 22.625 220.597656 74.75 181.578125 124.125 181.578125 C 173.496094 181.578125 225.621094 217.175781 225.621094 241.691406 " fill-opacity="1" fill-rule="nonzero"/><path fill="rgb(9.408569%, 9.799194%, 11.369324%)" d="M 124.125 183.238281 C 101.917969 183.238281 77.007812 191.363281 55.785156 205.53125 C 36.652344 218.300781 24.285156 233.835938 24.285156 245.105469 C 24.285156 266.894531 78.328125 276.648438 131.886719 276.648438 C 177.714844 276.648438 223.960938 265.839844 223.960938 241.691406 C 223.960938 230.4375 211.910156 215.941406 192.511719 203.851562 C 171.484375 190.753906 146.554688 183.238281 124.125 183.238281 M 131.886719 279.972656 C 80.714844 279.972656 20.960938 270.839844 20.960938 245.105469 C 20.960938 218.769531 75.304688 179.914062 124.125 179.914062 C 147.160156 179.914062 172.730469 187.609375 194.269531 201.03125 C 214.632812 213.71875 227.285156 229.300781 227.285156 241.691406 C 227.285156 253.90625 217.097656 263.960938 197.820312 270.757812 C 180.984375 276.703125 157.566406 279.972656 131.886719 279.972656 " fill-opacity="1" fill-rule="nonzero"/><path fill="rgb(97.24884%, 63.139343%, 29.019165%)" d="M 188.144531 194.890625 C 192.089844 207.265625 190.667969 221.011719 189.207031 222.945312 C 187.035156 225.824219 180.46875 197.164062 164.902344 185.414062 C 164.476562 185.09375 164.058594 184.765625 163.640625 184.441406 C 150.9375 180.308594 137.441406 177.800781 124.125 177.800781 C 119.824219 177.800781 115.503906 178.105469 111.191406 178.648438 C 123.914062 190.347656 125.171875 214.265625 123.570312 217.09375 C 121.800781 220.234375 117.1875 196.261719 100.207031 186.671875 C 97.683594 185.246094 95.28125 183.804688 92.996094 182.375 C 79.214844 186.273438 66.097656 192.371094 54.824219 199.539062 C 68.164062 207.492188 76.363281 225.089844 76.007812 227.976562 C 75.566406 231.554688 62.148438 211.160156 42.789062 208.773438 C 42.5625 208.746094 42.335938 208.710938 42.101562 208.683594 C 27.800781 220.367188 18.664062 233.355469 18.664062 243.804688 C 18.664062 269.273438 80.890625 278.3125 132.191406 278.3125 C 183.484375 278.3125 229.582031 265.730469 229.582031 240.261719 C 229.582031 225.902344 212.359375 207.882812 188.144531 194.890625 " fill-opacity="1" fill-rule="nonzero"/><path fill="rgb(96.469116%, 75.289917%, 52.549744%)" d="M 78.234375 230.03125 C 77.984375 230.03125 77.605469 229.820312 77.101562 229.4375 C 77.382812 229.136719 77.589844 228.71875 77.65625 228.183594 C 77.777344 227.191406 77.246094 225.171875 76.140625 222.585938 C 77.847656 225.980469 78.707031 228.636719 78.585938 229.617188 C 78.550781 229.902344 78.433594 230.03125 78.234375 230.03125 " fill-opacity="1" fill-rule="nonzero"/><path fill="rgb(96.469116%, 75.289917%, 52.549744%)" d="M 58.875 200.253906 C 58.558594 200.023438 58.242188 199.792969 57.917969 199.566406 C 68.804688 192.925781 80.78125 187.632812 92.746094 184.171875 C 92.988281 184.324219 93.230469 184.476562 93.472656 184.625 C 81.050781 188.359375 69.230469 193.851562 58.875 200.253906 " fill-opacity="1" fill-rule="nonzero"/><path fill="rgb(96.469116%, 75.289917%, 52.549744%)" d="M 22.164062 250.621094 C 20.960938 248.488281 20.328125 246.222656 20.328125 243.804688 C 20.328125 234.417969 28.640625 221.972656 42.605469 210.425781 C 43.15625 210.492188 43.703125 210.578125 44.25 210.675781 C 30.195312 222.265625 21.25 235.097656 21.25 245.445312 C 21.25 247.25 21.558594 248.976562 22.164062 250.621094 " fill-opacity="1" fill-rule="nonzero"/><path fill="rgb(96.469116%, 75.289917%, 52.549744%)" d="M 125.800781 219.011719 C 125.554688 219.011719 125.261719 218.6875 124.90625 218.097656 C 124.945312 218.042969 124.984375 217.976562 125.023438 217.914062 C 126.535156 215.230469 126.164062 202.429688 121.296875 190.820312 C 126.949219 202.617188 127.355469 216.609375 126.15625 218.730469 C 126.046875 218.921875 125.929688 219.011719 125.800781 219.011719 M 114.921875 180.144531 C 114.863281 180.070312 114.800781 179.996094 114.738281 179.929688 C 117.976562 179.621094 121.121094 179.460938 124.125 179.460938 C 124.269531 179.460938 124.410156 179.460938 124.558594 179.464844 C 121.351562 179.539062 118.136719 179.777344 114.921875 180.144531 " fill-opacity="1" fill-rule="nonzero"/><path fill="rgb(83.139038%, 53.329468%, 24.308777%)" d="M 132.191406 276.648438 C 95.890625 276.648438 59.386719 272.335938 38.363281 263.046875 C 51.6875 264.835938 76.5 267.332031 102.746094 267.332031 C 118.875 267.332031 135.542969 266.386719 150.417969 263.757812 C 151.90625 265.363281 153.710938 266.875 155.792969 268.289062 C 158.648438 270.625 162.191406 272.734375 166.296875 274.621094 C 155.363281 275.988281 143.765625 276.648438 132.191406 276.648438 M 192.433594 201.898438 C 191.992188 201.074219 191.519531 200.234375 191.035156 199.386719 C 190.957031 199.007812 190.871094 198.628906 190.785156 198.253906 C 192.167969 199.042969 193.523438 199.847656 194.84375 200.667969 C 194.035156 201.074219 193.230469 201.484375 192.433594 201.898438 " fill-opacity="1" fill-rule="nonzero"/><path fill="rgb(9.408569%, 9.799194%, 11.369324%)" d="M 42.605469 210.425781 C 28.640625 221.972656 20.328125 234.417969 20.328125 243.804688 C 20.328125 266.496094 76.507812 276.648438 132.191406 276.648438 C 179.839844 276.648438 227.921875 265.398438 227.921875 240.261719 C 227.921875 227.644531 213.144531 211.042969 190.785156 198.253906 C 193.394531 209.523438 192.347656 221.546875 190.53125 223.945312 C 190.113281 224.503906 189.523438 224.8125 188.871094 224.8125 L 188.867188 224.8125 C 186.957031 224.8125 186.042969 222.726562 183.335938 216.53125 C 179.636719 208.085938 173.449219 193.945312 163.898438 186.746094 C 163.589844 186.507812 163.285156 186.273438 162.976562 186.035156 L 162.851562 185.933594 C 149.578125 181.636719 136.546875 179.460938 124.125 179.460938 C 121.121094 179.460938 117.976562 179.621094 114.738281 179.929688 C 125.695312 192.640625 127.046875 214.328125 125.023438 217.914062 C 124.445312 218.929688 123.566406 219.039062 123.21875 219.039062 C 121.558594 219.039062 120.847656 217.492188 118.957031 213.359375 C 115.898438 206.675781 110.203125 194.226562 99.390625 188.117188 C 97.203125 186.882812 94.96875 185.558594 92.746094 184.171875 C 80.78125 187.632812 68.804688 192.925781 57.917969 199.566406 C 70.34375 208.273438 78.089844 224.683594 77.65625 228.183594 C 77.496094 229.476562 76.535156 230.058594 75.65625 230.058594 L 75.652344 230.058594 C 74.367188 230.058594 73.179688 228.953125 70.3125 226.28125 C 64.933594 221.277344 54.921875 211.949219 42.605469 210.425781 M 132.191406 279.972656 C 79.054688 279.972656 17.003906 270.5 17.003906 243.804688 C 17.003906 233.152344 25.765625 219.882812 41.050781 207.398438 C 41.402344 207.109375 41.855469 206.976562 42.300781 207.03125 L 42.984375 207.125 C 56.394531 208.777344 66.921875 218.582031 72.578125 223.851562 C 72.867188 224.117188 73.164062 224.394531 73.457031 224.667969 C 71.0625 218.832031 64.03125 206.960938 53.972656 200.964844 C 53.476562 200.671875 53.171875 200.140625 53.160156 199.5625 C 53.152344 198.984375 53.441406 198.441406 53.933594 198.136719 C 65.875 190.542969 79.226562 184.542969 92.546875 180.777344 C 92.996094 180.648438 93.480469 180.714844 93.878906 180.96875 C 96.273438 182.464844 98.675781 183.898438 101.023438 185.226562 C 112.777344 191.863281 118.761719 204.945312 121.980469 211.976562 C 122.128906 212.308594 122.285156 212.644531 122.441406 212.984375 C 122.402344 205.742188 119.921875 188.933594 110.066406 179.867188 C 109.589844 179.429688 109.414062 178.753906 109.613281 178.140625 C 109.808594 177.523438 110.34375 177.078125 110.988281 177 C 115.542969 176.425781 119.964844 176.136719 124.125 176.136719 C 136.980469 176.136719 150.453125 178.402344 164.15625 182.863281 C 164.335938 182.921875 164.503906 183.007812 164.65625 183.128906 L 165.015625 183.40625 C 165.316406 183.636719 165.605469 183.867188 165.90625 184.089844 C 176.144531 191.816406 182.550781 206.457031 186.382812 215.203125 C 187.085938 216.8125 187.84375 218.554688 188.472656 219.835938 C 189.25 215.378906 189.636719 205.039062 186.5625 195.394531 C 186.355469 194.75 186.5625 194.046875 187.082031 193.613281 C 187.601562 193.179688 188.332031 193.105469 188.929688 193.425781 C 214.636719 207.214844 231.246094 225.597656 231.246094 240.261719 C 231.246094 252.925781 220.675781 263.347656 200.679688 270.40625 C 183.1875 276.574219 158.867188 279.972656 132.191406 279.972656 " fill-opacity="1" fill-rule="nonzero"/><path fill="rgb(100%, 100%, 100%)" d="M 234.910156 194.335938 C 234.910156 194.335938 236.160156 188.398438 238.09375 187.191406 C 241.1875 187.941406 248.265625 190.960938 248.265625 190.960938 L 234.910156 194.335938 " fill-opacity="1" fill-rule="nonzero"/><path fill="rgb(9.408569%, 9.799194%, 11.369324%)" d="M 238.570312 189.042969 C 238.152344 189.652344 237.671875 190.757812 237.253906 192.03125 L 242.9375 190.59375 C 241.417969 190.007812 239.808594 189.417969 238.570312 189.042969 M 234.910156 195.996094 C 234.492188 195.996094 234.078125 195.835938 233.765625 195.535156 C 233.347656 195.140625 233.167969 194.554688 233.289062 193.996094 C 233.613281 192.441406 234.859375 187.25 237.214844 185.78125 C 237.589844 185.546875 238.050781 185.472656 238.488281 185.574219 C 241.675781 186.351562 248.621094 189.304688 248.914062 189.433594 C 249.570312 189.710938 249.972656 190.378906 249.921875 191.089844 C 249.867188 191.800781 249.363281 192.398438 248.671875 192.570312 L 235.324219 195.949219 C 235.183594 195.980469 235.050781 195.996094 234.910156 195.996094 " fill-opacity="1" fill-rule="nonzero"/><path fill="rgb(100%, 100%, 100%)" d="M 311.730469 210.855469 C 311.730469 210.855469 313.109375 204.644531 315.042969 203.433594 C 318.085938 205.496094 325.082031 209.910156 325.082031 209.910156 L 311.730469 210.855469 " fill-opacity="1" fill-rule="nonzero"/><path fill="rgb(9.408569%, 9.799194%, 11.369324%)" d="M 315.320312 205.613281 C 314.875 206.390625 314.367188 207.644531 313.933594 209.03125 L 319.9375 208.609375 C 318.390625 207.617188 316.683594 206.519531 315.320312 205.613281 M 311.730469 212.515625 C 311.25 212.515625 310.792969 212.308594 310.476562 211.941406 C 310.128906 211.542969 309.996094 211.011719 310.109375 210.496094 C 310.46875 208.875 311.820312 203.488281 314.164062 202.023438 C 314.722656 201.675781 315.433594 201.6875 315.976562 202.054688 C 318.960938 204.082031 325.898438 208.460938 325.96875 208.503906 C 326.578125 208.886719 326.867188 209.617188 326.695312 210.3125 C 326.519531 211.011719 325.917969 211.515625 325.203125 211.570312 L 311.847656 212.511719 L 311.730469 212.515625 " fill-opacity="1" fill-rule="nonzero"/><path fill="rgb(100%, 100%, 100%)" d="M 178.65625 214.832031 C 178.65625 214.832031 179.789062 209.289062 181.722656 208.082031 C 183.660156 206.871094 192.007812 211.457031 192.007812 211.457031 L 178.65625 214.832031 " fill-opacity="1" fill-rule="nonzero"/><path fill="rgb(9.408569%, 9.799194%, 11.369324%)" d="M 182.527344 209.542969 C 182.046875 209.925781 181.476562 211.136719 181.003906 212.523438 L 187.203125 210.957031 C 185.398438 210.171875 183.609375 209.539062 182.636719 209.539062 L 182.527344 209.542969 M 178.65625 216.492188 C 178.230469 216.492188 177.820312 216.332031 177.507812 216.035156 C 177.09375 215.640625 176.910156 215.0625 177.027344 214.503906 C 177.328125 213.035156 178.488281 208.144531 180.839844 206.675781 C 181.324219 206.371094 181.933594 206.214844 182.636719 206.214844 C 185.757812 206.214844 191.652344 209.371094 192.804688 210 C 193.40625 210.332031 193.738281 210.988281 193.652344 211.667969 C 193.566406 212.347656 193.078125 212.902344 192.414062 213.066406 L 179.0625 216.445312 C 178.929688 216.480469 178.789062 216.492188 178.65625 216.492188 " fill-opacity="1" fill-rule="nonzero"/><path fill="rgb(77.648926%, 37.649536%, 10.198975%)" d="M 352.523438 250.234375 C 352.523438 274.746094 308.15625 286.859375 258.78125 286.859375 C 209.414062 286.859375 149.523438 278.160156 149.523438 253.648438 C 149.523438 229.140625 201.652344 190.121094 251.027344 190.121094 C 300.394531 190.121094 352.523438 225.726562 352.523438 250.234375 " fill-opacity="1" fill-rule="nonzero"/><g clip-path="url(#id2)"><path fill="rgb(9.408569%, 9.799194%, 11.369324%)" d="M 251.027344 191.78125 C 228.816406 191.78125 203.90625 199.90625 182.683594 214.074219 C 163.550781 226.84375 151.1875 242.378906 151.1875 253.648438 C 151.1875 275.4375 205.226562 285.195312 258.78125 285.195312 C 304.617188 285.195312 350.859375 274.386719 350.859375 250.234375 C 350.859375 238.980469 338.8125 224.484375 319.410156 212.394531 C 298.382812 199.296875 273.457031 191.78125 251.027344 191.78125 M 258.78125 288.519531 C 207.617188 288.519531 147.863281 279.382812 147.863281 253.648438 C 147.863281 227.3125 202.207031 188.457031 251.027344 188.457031 C 274.0625 188.457031 299.628906 196.152344 321.167969 209.574219 C 341.535156 222.261719 354.183594 237.84375 354.183594 250.234375 C 354.183594 262.449219 343.996094 272.503906 324.722656 279.300781 C 307.882812 285.246094 284.46875 288.519531 258.78125 288.519531 " fill-opacity="1" fill-rule="nonzero"/></g><path fill="rgb(97.24884%, 63.139343%, 29.019165%)" d="M 315.042969 203.433594 C 318.988281 215.808594 317.566406 229.554688 316.109375 231.488281 C 313.933594 234.367188 307.375 205.707031 291.804688 193.964844 C 291.375 193.636719 290.960938 193.3125 290.539062 192.984375 C 277.835938 188.851562 264.335938 186.347656 251.027344 186.347656 C 246.722656 186.347656 242.402344 186.652344 238.09375 187.191406 C 250.8125 198.898438 252.074219 222.808594 250.472656 225.640625 C 248.699219 228.78125 244.082031 204.808594 227.101562 195.214844 C 224.585938 193.789062 222.183594 192.347656 219.894531 190.917969 C 206.109375 194.816406 193 200.914062 181.722656 208.082031 C 195.0625 216.035156 203.261719 233.632812 202.90625 236.523438 C 202.464844 240.101562 189.046875 219.703125 169.691406 217.316406 C 169.460938 217.289062 169.238281 217.253906 169.003906 217.226562 C 154.699219 228.910156 145.566406 241.902344 145.566406 252.347656 C 145.566406 277.824219 207.789062 286.859375 259.089844 286.859375 C 310.386719 286.859375 356.484375 274.273438 356.484375 248.804688 C 356.484375 234.445312 339.261719 216.425781 315.042969 203.433594 " fill-opacity="1" fill-rule="nonzero"/><path fill="rgb(96.469116%, 75.289917%, 52.549744%)" d="M 205.734375 238.824219 C 205.265625 238.824219 204.363281 238.097656 203.070312 236.929688 C 203.097656 236.933594 203.125 236.933594 203.148438 236.933594 C 203.347656 236.933594 203.46875 236.808594 203.503906 236.523438 C 203.820312 233.941406 197.316406 219.664062 186.429688 210.972656 C 198.855469 219.300781 206.425781 235.636719 206.085938 238.40625 C 206.050781 238.695312 205.929688 238.824219 205.734375 238.824219 " fill-opacity="1" fill-rule="nonzero"/><path fill="rgb(96.078491%, 65.489197%, 39.99939%)" d="M 222.417969 192.46875 C 221.628906 191.992188 220.847656 191.515625 220.082031 191.039062 C 220.222656 190.996094 220.355469 190.957031 220.492188 190.917969 C 221.261719 191.398438 222.039062 191.878906 222.832031 192.363281 C 222.695312 192.398438 222.554688 192.433594 222.417969 192.46875 " fill-opacity="1" fill-rule="nonzero"/><path fill="rgb(84.709167%, 57.249451%, 34.899902%)" d="M 232.179688 198.273438 C 231.566406 197.867188 230.9375 197.46875 230.285156 197.101562 C 229.820312 196.835938 229.359375 196.578125 228.902344 196.3125 C 228.320312 195.929688 227.722656 195.558594 227.101562 195.214844 C 226.871094 195.085938 226.636719 194.949219 226.402344 194.816406 C 226.542969 194.78125 226.683594 194.746094 226.828125 194.714844 C 227.117188 194.878906 227.410156 195.050781 227.699219 195.214844 C 229.300781 196.117188 230.789062 197.148438 232.179688 198.273438 " fill-opacity="1" fill-rule="nonzero"/><path fill="rgb(31.759644%, 30.589294%, 32.939148%)" d="M 226.402344 194.816406 C 226.046875 194.613281 225.695312 194.410156 225.347656 194.207031 C 224.574219 193.738281 223.816406 193.269531 223.074219 192.804688 C 223.050781 192.8125 223.027344 192.816406 223.003906 192.824219 C 222.808594 192.707031 222.613281 192.585938 222.417969 192.46875 C 222.554688 192.433594 222.695312 192.398438 222.832031 192.363281 C 224.128906 193.144531 225.457031 193.933594 226.828125 194.714844 C 226.683594 194.746094 226.542969 194.78125 226.402344 194.816406 " fill-opacity="1" fill-rule="nonzero"/><path fill="rgb(96.469116%, 75.289917%, 52.549744%)" d="M 185.03125 209.890625 C 184.152344 209.25 183.253906 208.636719 182.320312 208.082031 C 193.484375 200.984375 206.449219 194.9375 220.082031 191.039062 C 220.847656 191.515625 221.628906 191.992188 222.417969 192.46875 C 222.613281 192.585938 222.808594 192.707031 223.003906 192.824219 C 209.296875 196.707031 196.257812 202.769531 185.03125 209.890625 M 228.902344 196.3125 C 227.691406 195.613281 226.507812 194.910156 225.347656 194.207031 C 225.695312 194.410156 226.046875 194.613281 226.402344 194.816406 C 226.636719 194.949219 226.871094 195.085938 227.101562 195.214844 C 227.722656 195.558594 228.320312 195.929688 228.902344 196.3125 " fill-opacity="1" fill-rule="nonzero"/><path fill="rgb(96.469116%, 75.289917%, 52.549744%)" d="M 172.105469 217.710938 C 171.308594 217.550781 170.507812 217.414062 169.691406 217.316406 C 169.636719 217.3125 169.574219 217.304688 169.519531 217.292969 C 169.542969 217.273438 169.574219 217.25 169.601562 217.226562 C 169.832031 217.253906 170.058594 217.289062 170.289062 217.316406 C 170.941406 217.398438 171.585938 217.496094 172.222656 217.617188 C 172.183594 217.648438 172.144531 217.679688 172.105469 217.710938 " fill-opacity="1" fill-rule="nonzero"/><path fill="rgb(84.709167%, 57.249451%, 34.899902%)" d="M 190.953125 226.703125 C 189.414062 225.632812 187.78125 224.597656 186.050781 223.65625 C 183.042969 221.726562 179.707031 219.980469 176.09375 218.78125 C 176.152344 218.734375 176.214844 218.691406 176.273438 218.644531 C 181.886719 220.441406 186.847656 223.546875 190.953125 226.703125 " fill-opacity="1" fill-rule="nonzero"/><path fill="rgb(31.759644%, 30.589294%, 32.939148%)" d="M 176.09375 218.78125 C 174.796875 218.351562 173.464844 217.988281 172.105469 217.710938 C 172.144531 217.679688 172.183594 217.648438 172.222656 217.617188 C 173.609375 217.878906 174.957031 218.226562 176.273438 218.644531 C 176.214844 218.691406 176.152344 218.734375 176.09375 218.78125 " fill-opacity="1" fill-rule="nonzero"/><path fill="rgb(96.469116%, 75.289917%, 52.549744%)" d="M 156.722656 268.507812 C 150.066406 264.078125 146.160156 258.726562 146.160156 252.347656 C 146.160156 241.917969 155.261719 228.960938 169.519531 217.292969 C 169.574219 217.304688 169.636719 217.3125 169.691406 217.316406 C 170.507812 217.414062 171.308594 217.550781 172.105469 217.710938 C 173.464844 217.988281 174.796875 218.351562 176.09375 218.78125 C 179.707031 219.980469 183.042969 221.726562 186.050781 223.65625 C 182.09375 221.492188 177.667969 219.796875 172.871094 219.203125 C 172.640625 219.175781 172.414062 219.140625 172.179688 219.113281 C 157.878906 230.796875 148.742188 243.785156 148.742188 254.242188 C 148.742188 259.738281 151.65625 264.46875 156.722656 268.507812 " fill-opacity="1" fill-rule="nonzero"/><path fill="rgb(96.078491%, 65.489197%, 39.99939%)" d="M 285.125 191.339844 C 274.136719 188.222656 262.667969 186.382812 251.339844 186.347656 C 251.433594 186.347656 251.527344 186.347656 251.625 186.347656 C 262.894531 186.347656 274.300781 188.140625 285.246094 191.207031 C 285.207031 191.25 285.164062 191.296875 285.125 191.339844 " fill-opacity="1" fill-rule="nonzero"/><path fill="rgb(87.059021%, 59.21936%, 36.079407%)" d="M 293.425781 194.78125 C 293.105469 194.679688 292.785156 194.578125 292.464844 194.472656 C 292.246094 194.300781 292.023438 194.132812 291.804688 193.964844 C 291.375 193.636719 290.960938 193.3125 290.539062 192.984375 C 288.75 192.40625 286.945312 191.855469 285.125 191.339844 C 285.164062 191.296875 285.207031 191.25 285.246094 191.207031 C 287.226562 191.761719 289.191406 192.351562 291.136719 192.984375 C 291.558594 193.3125 291.972656 193.636719 292.402344 193.964844 C 292.746094 194.222656 293.085938 194.503906 293.425781 194.78125 " fill-opacity="1" fill-rule="nonzero"/><path fill="rgb(96.469116%, 75.289917%, 52.549744%)" d="M 253.292969 227.804688 C 252.832031 227.804688 252.210938 226.671875 251.34375 224.824219 C 252.460938 219.742188 250.582031 198.128906 238.691406 187.191406 C 242.90625 186.667969 247.125 186.359375 251.339844 186.347656 C 262.667969 186.382812 274.136719 188.222656 285.125 191.339844 C 286.945312 191.855469 288.75 192.40625 290.539062 192.984375 C 290.960938 193.3125 291.375 193.636719 291.804688 193.964844 C 292.023438 194.132812 292.246094 194.300781 292.464844 194.472656 C 280.128906 190.578125 267.082031 188.234375 254.203125 188.234375 C 249.902344 188.234375 245.582031 188.539062 241.269531 189.078125 C 253.992188 200.78125 255.25 224.695312 253.652344 227.523438 C 253.546875 227.714844 253.425781 227.804688 253.292969 227.804688 " fill-opacity="1" fill-rule="nonzero"/><path fill="rgb(85.488892%, 85.099792%, 85.099792%)" d="M 341.550781 271.03125 C 342.765625 270.179688 343.898438 269.304688 344.941406 268.40625 C 352.257812 263.046875 356.484375 256.515625 356.484375 248.804688 C 356.484375 237.226562 345.289062 223.269531 328.261719 211.492188 C 328.351562 211.414062 328.445312 211.339844 328.53125 211.265625 C 345.746094 223.09375 357.082031 237.15625 357.082031 248.804688 C 357.082031 257.824219 351.296875 265.226562 341.550781 271.03125 " fill-opacity="1" fill-rule="nonzero"/><path fill="rgb(8.239746%, 8.628845%, 9.799194%)" d="M 328.261719 211.492188 C 327.738281 211.128906 327.207031 210.761719 326.667969 210.40625 C 326.679688 210.375 326.6875 210.34375 326.695312 210.3125 C 326.71875 210.226562 326.730469 210.140625 326.738281 210.054688 C 327.34375 210.457031 327.941406 210.859375 328.53125 211.265625 C 328.445312 211.339844 328.351562 211.414062 328.261719 211.492188 " fill-opacity="1" fill-rule="nonzero"/><path fill="rgb(8.239746%, 8.628845%, 9.799194%)" d="M 326.667969 210.40625 C 323.296875 208.148438 319.714844 205.976562 315.957031 203.925781 C 315.851562 203.761719 315.75 203.601562 315.640625 203.433594 C 319.535156 205.523438 323.25 207.742188 326.738281 210.054688 C 326.730469 210.140625 326.71875 210.226562 326.695312 210.3125 C 326.6875 210.34375 326.679688 210.375 326.667969 210.40625 " fill-opacity="1" fill-rule="nonzero"/><path fill="rgb(8.239746%, 8.628845%, 9.799194%)" d="M 259.6875 286.859375 C 259.574219 286.859375 259.472656 286.859375 259.363281 286.859375 C 295.019531 286.824219 328.132812 280.707031 344.941406 268.40625 C 343.898438 269.304688 342.765625 270.179688 341.550781 271.03125 C 323.777344 281.609375 292.816406 286.859375 259.6875 286.859375 " fill-opacity="1" fill-rule="nonzero"/><path fill="rgb(83.139038%, 53.329468%, 24.308777%)" d="M 259.363281 286.859375 C 223.6875 286.828125 182.816406 282.4375 161.277344 271.1875 C 172.765625 272.9375 200.589844 276.125 230.242188 276.125 C 288.570312 276.125 353.960938 263.789062 315.957031 203.925781 C 319.714844 205.976562 323.296875 208.148438 326.667969 210.40625 C 327.207031 210.761719 327.738281 211.128906 328.261719 211.492188 C 345.289062 223.269531 356.484375 237.226562 356.484375 248.804688 C 356.484375 256.515625 352.257812 263.046875 344.941406 268.40625 C 328.132812 280.707031 295.019531 286.824219 259.363281 286.859375 " fill-opacity="1" fill-rule="nonzero"/><g clip-path="url(#id3)"><path fill="rgb(9.408569%, 9.799194%, 11.369324%)" d="M 169.5 218.96875 C 155.542969 230.515625 147.226562 242.960938 147.226562 252.347656 C 147.226562 275.039062 203.410156 285.195312 259.089844 285.195312 C 306.742188 285.195312 354.820312 273.945312 354.820312 248.804688 C 354.820312 236.195312 340.042969 219.59375 317.683594 206.796875 C 320.292969 218.070312 319.246094 230.089844 317.433594 232.492188 C 317.011719 233.046875 316.425781 233.355469 315.765625 233.355469 C 313.859375 233.355469 312.945312 231.269531 310.234375 225.078125 C 306.539062 216.632812 300.347656 202.492188 290.800781 195.289062 C 290.523438 195.078125 290.253906 194.867188 289.980469 194.65625 L 289.753906 194.476562 C 276.472656 190.183594 263.449219 188.007812 251.027344 188.007812 C 248.027344 188.007812 244.878906 188.164062 241.636719 188.472656 C 252.59375 201.183594 253.949219 222.867188 251.921875 226.457031 C 251.347656 227.472656 250.46875 227.582031 250.117188 227.582031 C 248.460938 227.585938 247.75 226.035156 245.859375 221.898438 C 242.796875 215.21875 237.101562 202.769531 226.289062 196.664062 C 224.089844 195.421875 221.863281 194.09375 219.640625 192.722656 C 207.675781 196.175781 195.703125 201.472656 184.820312 208.109375 C 197.246094 216.816406 204.984375 233.230469 204.554688 236.726562 C 204.394531 238.023438 203.433594 238.605469 202.550781 238.605469 C 201.265625 238.605469 200.082031 237.496094 197.210938 234.824219 C 191.832031 229.820312 181.824219 220.492188 169.5 218.96875 Z M 259.089844 288.519531 C 205.953125 288.519531 143.902344 279.046875 143.902344 252.347656 C 143.902344 241.695312 152.667969 228.425781 167.949219 215.941406 C 168.300781 215.652344 168.757812 215.523438 169.203125 215.574219 L 169.886719 215.667969 C 183.292969 217.320312 193.820312 227.125 199.480469 232.394531 C 199.765625 232.667969 200.0625 232.945312 200.359375 233.210938 C 197.964844 227.378906 190.929688 215.507812 180.871094 209.507812 C 180.378906 209.214844 180.070312 208.683594 180.0625 208.105469 C 180.054688 207.527344 180.34375 206.988281 180.832031 206.679688 C 192.769531 199.085938 206.125 193.085938 219.441406 189.320312 C 219.894531 189.191406 220.375 189.257812 220.78125 189.511719 C 223.160156 191 225.5625 192.429688 227.925781 193.769531 C 239.671875 200.40625 245.664062 213.488281 248.878906 220.519531 C 249.03125 220.851562 249.1875 221.1875 249.34375 221.527344 C 249.304688 214.289062 246.820312 197.476562 236.96875 188.414062 C 236.492188 187.972656 236.3125 187.296875 236.507812 186.683594 C 236.707031 186.070312 237.246094 185.625 237.890625 185.542969 C 242.449219 184.972656 246.871094 184.683594 251.027344 184.683594 C 263.882812 184.683594 277.351562 186.945312 291.054688 191.40625 C 291.234375 191.464844 291.40625 191.550781 291.554688 191.667969 L 292.023438 192.039062 C 292.285156 192.238281 292.539062 192.433594 292.804688 192.640625 C 303.046875 200.363281 309.453125 215 313.28125 223.746094 C 313.988281 225.355469 314.746094 227.097656 315.371094 228.382812 C 316.152344 223.925781 316.535156 213.582031 313.464844 203.9375 C 313.257812 203.292969 313.464844 202.589844 313.984375 202.15625 C 314.503906 201.722656 315.234375 201.648438 315.832031 201.96875 C 341.539062 215.757812 358.144531 234.140625 358.144531 248.804688 C 358.144531 261.46875 347.574219 271.894531 327.574219 278.949219 C 310.085938 285.117188 285.765625 288.519531 259.089844 288.519531 " fill-opacity="1" fill-rule="nonzero"/></g></svg>