<svg xmlns="http://www.w3.org/2000/svg" xmlns:xlink="http://www.w3.org/1999/xlink" width="1000" zoomAndPan="magnify" viewBox="0 0 750 374.999991" height="500" preserveAspectRatio="xMidYMid meet" version="1.0"><defs><g/></defs><g fill="rgb(255, 218, 162)" fill-opacity="1"><g transform="translate(10.364248, 242.283835)"><g><path d="M 106.5625 -202.726562 C 94.085938 -201.949219 72.253906 -190.25 51.460938 -166.601562 C 34.046875 -146.847656 11.4375 -111.238281 1.820312 -55.101562 C -4.679688 -16.632812 7.796875 -2.339844 19.492188 2.597656 C 23.910156 4.679688 29.109375 5.71875 34.566406 5.71875 C 42.105469 5.71875 50.941406 3.898438 60.039062 0.261719 L 62.636719 -1.039062 L 70.175781 -4.417969 C 89.929688 -14.554688 109.160156 -31.1875 124.234375 -50.941406 C 125.015625 -51.722656 124.753906 -52.761719 123.976562 -53.539062 C 123.195312 -54.0625 121.894531 -54.0625 121.375 -53.28125 C 103.960938 -30.667969 82.128906 -13.515625 61.859375 -4.679688 C 61.597656 -4.679688 61.339844 -4.679688 61.339844 -4.417969 C 53.28125 -0.78125 41.324219 0 31.96875 -7.277344 C 21.832031 -14.816406 18.195312 -29.371094 21.832031 -48.34375 C 32.488281 -107.601562 55.621094 -142.429688 73.035156 -161.140625 C 92.265625 -181.675781 110.71875 -189.210938 114.617188 -188.953125 C 121.375 -188.171875 122.417969 -179.074219 122.675781 -177.515625 C 122.675781 -165.300781 118.257812 -151.007812 110.460938 -141.910156 C 109.941406 -141.128906 109.941406 -140.089844 110.71875 -139.308594 C 111.5 -138.53125 112.800781 -138.789062 113.578125 -139.570312 C 121.894531 -149.1875 126.574219 -164.261719 126.316406 -177.257812 L 126.316406 -177.515625 C 126.316406 -183.496094 125.273438 -188.953125 122.9375 -193.371094 C 119.558594 -200.128906 113.839844 -203.246094 106.5625 -202.726562 Z M 106.5625 -202.726562 "/></g></g></g><g fill="rgb(255, 218, 162)" fill-opacity="1"><g transform="translate(130.691332, 242.283835)"><g><path d="M 94.347656 -53.800781 C 93.304688 -54.0625 92.265625 -53.539062 92.007812 -52.761719 C 88.367188 -34.308594 81.089844 -9.097656 73.292969 4.9375 C 71.996094 6.496094 68.617188 10.394531 64.976562 8.316406 C 63.15625 7.277344 60.558594 -2.859375 63.9375 -28.328125 C 66.796875 -50.683594 73.292969 -74.851562 80.832031 -92.785156 C 82.390625 -96.945312 81.351562 -102.144531 77.191406 -105.78125 L 73.292969 -109.421875 C 71.996094 -110.71875 69.914062 -111.5 68.09375 -111.5 C 66.277344 -111.238281 64.976562 -110.460938 63.675781 -108.902344 C 60.039062 -101.882812 56.140625 -92.007812 53.019531 -80.570312 L 53.019531 -81.089844 C 51.460938 -87.328125 47.824219 -92.007812 43.144531 -94.347656 C 39.503906 -95.90625 34.046875 -95.90625 28.589844 -93.828125 C 21.3125 -90.96875 7.796875 -82.390625 0.78125 -56.660156 C -4.417969 -35.085938 -0.78125 -23.390625 2.597656 -17.152344 C 6.757812 -10.917969 12.214844 -9.355469 14.292969 -8.835938 C 15.335938 -8.578125 16.113281 -8.578125 17.152344 -8.578125 C 22.871094 -8.578125 29.628906 -11.957031 35.867188 -20.53125 C 36.128906 -21.050781 36.386719 -21.3125 36.90625 -21.574219 C 36.90625 -21.832031 37.167969 -21.832031 37.167969 -22.09375 C 40.027344 -26.25 42.882812 -31.1875 45.484375 -37.6875 C 44.445312 -22.613281 44.183594 -0.261719 51.203125 11.4375 C 53.800781 15.855469 57.179688 18.453125 61.597656 18.972656 L 62.636719 18.972656 C 70.953125 18.972656 78.492188 7.539062 86.550781 -15.855469 C 92.265625 -33.269531 95.90625 -51.203125 96.164062 -51.460938 C 95.90625 -52.5 95.386719 -53.539062 94.347656 -53.800781 Z M 50.683594 -70.175781 C 49.382812 -64.976562 48.601562 -59.777344 47.824219 -54.320312 C 43.144531 -40.804688 38.464844 -30.929688 33.789062 -24.171875 C 29.628906 -18.714844 24.691406 -18.453125 22.613281 -19.753906 C 20.273438 -21.050781 14.816406 -24.171875 21.050781 -54.0625 C 26.769531 -82.128906 38.984375 -86.808594 42.882812 -86.289062 C 45.742188 -85.769531 48.34375 -82.910156 49.382812 -80.050781 C 50.160156 -77.453125 50.683594 -74.074219 50.683594 -70.175781 Z M 50.683594 -70.175781 "/></g></g></g><g fill="rgb(255, 218, 162)" fill-opacity="1"><g transform="translate(222.950771, 242.283835)"><g><path d="M 82.910156 -53.800781 C 81.871094 -54.320312 80.832031 -53.800781 80.3125 -52.761719 C 69.914062 -31.1875 57.4375 -15.074219 47.304688 -6.496094 C 45.484375 -5.457031 43.40625 -4.417969 41.84375 -4.9375 C 41.585938 -4.9375 41.066406 -5.199219 40.546875 -6.238281 C 37.425781 -12.996094 42.105469 -35.085938 48.34375 -51.203125 C 49.121094 -53.28125 48.601562 -55.621094 47.042969 -56.917969 C 45.484375 -58.480469 43.144531 -59 41.324219 -58.21875 C 34.566406 -55.359375 24.949219 -51.980469 17.933594 -52.242188 C 14.816406 -52.242188 12.996094 -53.019531 12.214844 -54.320312 C 10.136719 -57.699219 13.773438 -66.535156 16.632812 -72.773438 C 18.714844 -77.191406 17.671875 -82.390625 13.773438 -85.507812 L 11.4375 -87.589844 C 9.875 -89.148438 7.539062 -89.667969 5.457031 -89.148438 C 3.378906 -88.628906 1.558594 -87.328125 0.78125 -85.25 C -6.757812 -69.136719 -8.835938 -59.777344 -1.039062 -51.722656 C 5.457031 -44.964844 20.792969 -46.523438 27.550781 -47.5625 C 20.792969 -30.667969 17.414062 -10.136719 23.652344 -0.519531 C 25.992188 2.597656 29.109375 4.417969 33.007812 4.417969 L 33.269531 4.417969 C 38.207031 4.417969 44.183594 1.300781 50.421875 -4.160156 C 51.203125 -4.679688 51.460938 -5.199219 51.722656 -5.457031 C 62.636719 -15.074219 74.332031 -31.449219 83.691406 -51.203125 C 84.210938 -52.242188 83.949219 -53.28125 82.910156 -53.800781 Z M 82.910156 -53.800781 "/></g></g></g><g fill="rgb(255, 218, 162)" fill-opacity="1"><g transform="translate(302.995571, 242.283835)"><g><path d="M 116.4375 -53.800781 C 115.660156 -54.320312 114.359375 -53.800781 113.839844 -53.019531 C 107.601562 -41.324219 90.96875 -15.335938 77.710938 -5.71875 C 77.710938 -5.457031 77.453125 -5.457031 77.453125 -5.457031 C 76.152344 -4.679688 74.332031 -3.898438 72.515625 -5.199219 C 70.433594 -6.757812 61.597656 -16.632812 73.292969 -71.472656 C 104.484375 -102.921875 139.828125 -166.339844 135.152344 -191.8125 C 134.371094 -196.75 131.773438 -200.128906 128.132812 -201.949219 C 122.675781 -204.027344 117.21875 -203.765625 111.238281 -200.90625 C 90.96875 -190.511719 70.695312 -149.707031 57.960938 -94.347656 L 57.179688 -91.226562 C 55.621094 -93.828125 53.800781 -96.164062 51.203125 -97.726562 C 46.785156 -100.585938 41.324219 -100.84375 35.347656 -98.503906 C 21.050781 -93.304688 -0.519531 -71.214844 -1.300781 -40.285156 C -1.558594 -27.289062 3.378906 -21.574219 7.796875 -18.972656 C 10.65625 -17.414062 14.035156 -16.632812 17.414062 -16.632812 C 21.832031 -16.632812 26.511719 -17.933594 29.890625 -20.011719 C 38.464844 -25.210938 44.183594 -32.75 49.121094 -41.324219 C 47.824219 -23.910156 49.640625 -12.476562 54.320312 -5.71875 C 57.4375 -1.300781 61.859375 1.300781 67.574219 1.820312 C 67.835938 2.078125 68.355469 2.078125 68.875 2.078125 C 71.734375 2.078125 75.371094 0.78125 79.011719 -1.820312 C 79.273438 -2.078125 79.53125 -2.078125 79.53125 -2.339844 C 79.792969 -2.339844 79.792969 -2.339844 79.792969 -2.597656 C 85.769531 -6.757812 92.527344 -14.035156 99.804688 -24.171875 C 109.679688 -37.425781 117.21875 -50.941406 117.21875 -51.203125 C 117.738281 -51.980469 117.476562 -53.28125 116.4375 -53.800781 Z M 80.832031 -102.664062 C 99.285156 -171.019531 114.097656 -187.394531 121.375 -191.292969 C 123.714844 -192.589844 125.535156 -192.851562 127.355469 -192.070312 C 130.992188 -191.03125 131.511719 -185.3125 131.773438 -184.273438 C 129.695312 -159.324219 102.921875 -109.160156 74.851562 -78.75 Z M 49.902344 -51.203125 C 44.183594 -39.765625 38.207031 -29.628906 28.070312 -23.390625 C 26.25 -22.613281 23.652344 -22.09375 21.574219 -24.171875 C 17.152344 -28.328125 15.855469 -39.503906 22.613281 -55.878906 C 33.007812 -81.609375 49.640625 -88.628906 51.460938 -88.628906 C 53.800781 -88.628906 54.582031 -87.328125 55.101562 -86.550781 C 55.359375 -85.769531 55.621094 -84.988281 55.621094 -84.46875 C 53.019531 -71.734375 51.203125 -60.816406 49.902344 -51.203125 Z M 49.902344 -51.203125 "/></g></g></g><g fill="rgb(255, 218, 162)" fill-opacity="1"><g transform="translate(416.305744, 242.283835)"><g><path d="M 94.347656 -53.800781 C 93.304688 -54.0625 92.265625 -53.539062 92.007812 -52.761719 C 87.847656 -34.308594 79.792969 -9.097656 71.472656 4.9375 C 70.433594 6.496094 67.054688 10.394531 62.898438 8.316406 C 61.339844 7.277344 59 -2.859375 63.15625 -28.328125 C 66.796875 -50.683594 73.8125 -74.851562 82.128906 -92.785156 C 83.691406 -96.945312 82.652344 -102.144531 79.011719 -105.78125 L 75.113281 -109.421875 C 73.554688 -110.71875 71.734375 -111.5 69.914062 -111.5 C 68.09375 -111.238281 66.535156 -110.460938 65.496094 -108.902344 C 61.339844 -101.882812 57.4375 -92.007812 54.0625 -80.570312 L 53.800781 -81.089844 C 52.242188 -87.328125 49.121094 -92.007812 44.445312 -94.347656 C 40.804688 -95.90625 35.347656 -95.90625 29.890625 -93.828125 C 22.351562 -90.96875 8.835938 -82.390625 1.039062 -56.660156 C -4.9375 -35.085938 -1.820312 -23.390625 1.558594 -17.152344 C 5.457031 -10.917969 10.917969 -9.355469 12.996094 -8.835938 C 14.035156 -8.578125 14.816406 -8.578125 15.855469 -8.578125 C 21.574219 -8.578125 28.328125 -11.957031 35.085938 -20.53125 C 35.085938 -21.050781 35.347656 -21.3125 35.867188 -21.574219 C 35.867188 -21.832031 36.128906 -21.832031 36.128906 -22.09375 C 39.503906 -26.25 42.363281 -31.1875 45.222656 -37.6875 C 43.664062 -22.613281 42.625 -0.261719 49.121094 11.4375 C 51.722656 15.855469 55.101562 18.453125 59.519531 18.972656 L 60.558594 18.972656 C 68.875 18.972656 76.671875 7.539062 85.25 -15.855469 C 91.746094 -33.269531 95.90625 -51.203125 96.164062 -51.460938 C 95.90625 -52.5 95.386719 -53.539062 94.347656 -53.800781 Z M 51.460938 -70.175781 C 49.640625 -64.976562 48.601562 -59.777344 47.824219 -54.320312 C 42.882812 -40.804688 37.6875 -30.929688 32.75 -24.171875 C 28.589844 -18.714844 23.652344 -18.453125 21.832031 -19.753906 C 19.234375 -21.050781 13.773438 -24.171875 21.050781 -54.0625 C 27.808594 -82.128906 40.027344 -86.808594 43.925781 -86.289062 C 46.785156 -85.769531 49.382812 -82.910156 50.421875 -80.050781 C 50.941406 -77.453125 51.460938 -74.074219 51.460938 -70.175781 Z M 46.003906 -134.632812 C 43.664062 -136.972656 41.324219 -137.75 39.765625 -136.449219 L 21.574219 -119.296875 C 20.011719 -118.257812 20.273438 -115.917969 22.09375 -113.839844 L 22.871094 -113.058594 L 23.132812 -112.800781 C 24.429688 -111.5 25.992188 -110.71875 27.03125 -111.5 L 49.121094 -126.574219 C 49.902344 -127.09375 50.421875 -127.613281 50.160156 -128.394531 C 50.160156 -129.433594 49.902344 -130.472656 48.863281 -131.773438 Z M 46.003906 -134.632812 "/></g></g></g><g fill="rgb(255, 218, 162)" fill-opacity="1"><g transform="translate(508.56516, 242.283835)"><g><path d="M 93.828125 -53.28125 C 82.652344 -42.363281 68.355469 -30.148438 56.140625 -22.613281 C 60.558594 -27.808594 65.496094 -35.867188 69.914062 -47.304688 C 77.972656 -68.355469 79.011719 -83.171875 73.035156 -91.488281 C 70.175781 -95.644531 65.757812 -97.726562 60.296875 -97.726562 C 57.179688 -97.726562 52.761719 -94.867188 48.082031 -91.226562 L 47.5625 -90.707031 C 42.882812 -86.808594 37.945312 -81.609375 34.046875 -76.933594 C 28.851562 -70.695312 24.429688 -64.195312 20.792969 -57.960938 C 23.132812 -67.574219 25.730469 -75.894531 28.070312 -82.652344 C 29.890625 -87.328125 29.109375 -92.527344 25.730469 -96.425781 L 22.871094 -100.0625 C 21.574219 -101.625 19.492188 -102.402344 17.671875 -102.144531 C 15.59375 -101.625 14.035156 -100.324219 13.253906 -98.503906 C -5.71875 -50.421875 -14.816406 30.929688 -15.335938 86.289062 C -15.335938 90.707031 -13.773438 94.605469 -11.175781 97.464844 C -9.097656 99.542969 -6.238281 100.84375 -3.117188 100.84375 C 0.519531 100.84375 3.640625 97.464844 3.640625 93.566406 C 3.640625 44.445312 9.097656 -1.820312 16.113281 -36.90625 C 20.273438 -55.359375 37.6875 -77.453125 49.902344 -87.847656 C 49.902344 -87.847656 50.160156 -87.847656 50.160156 -88.109375 C 52.761719 -89.929688 57.960938 -91.226562 59.777344 -89.148438 C 61.859375 -86.550781 62.117188 -70.175781 53.019531 -50.941406 C 44.964844 -33.269531 33.269531 -20.011719 29.109375 -20.53125 C 27.808594 -20.792969 27.289062 -23.390625 27.03125 -24.429688 C 26.25 -34.828125 34.308594 -48.082031 34.308594 -48.34375 C 34.828125 -49.121094 34.566406 -50.421875 33.789062 -50.941406 C 33.007812 -51.460938 31.707031 -51.203125 31.1875 -50.160156 C 30.667969 -49.640625 22.09375 -35.867188 23.390625 -24.171875 L 23.390625 -23.652344 C 23.652344 -21.3125 24.171875 -19.234375 25.472656 -17.152344 C 27.550781 -13.515625 31.449219 -11.4375 35.867188 -11.175781 L 36.648438 -11.175781 C 55.621094 -11.175781 89.667969 -43.925781 96.425781 -50.683594 C 97.207031 -51.460938 97.207031 -52.5 96.683594 -53.28125 C 95.90625 -54.0625 94.605469 -54.0625 93.828125 -53.28125 Z M 93.828125 -53.28125 "/></g></g></g><g fill="rgb(255, 218, 162)" fill-opacity="1"><g transform="translate(601.084493, 242.283835)"><g><path d="M 6.496094 -6.238281 C 7.796875 -5.976562 9.097656 -5.71875 10.394531 -5.71875 C 18.195312 -5.71875 26.769531 -12.476562 36.386719 -26.25 C 44.445312 -37.945312 50.421875 -50.421875 50.421875 -50.421875 C 50.941406 -51.460938 50.421875 -52.5 49.382812 -53.019531 C 48.601562 -53.539062 47.304688 -53.019531 47.042969 -52.242188 C 42.363281 -42.105469 30.148438 -20.53125 18.714844 -12.476562 L 18.453125 -12.476562 C 17.414062 -11.695312 17.152344 -11.957031 16.894531 -12.214844 C 15.074219 -13.253906 12.734375 -19.234375 13.773438 -31.449219 C 15.335938 -47.042969 21.832031 -66.535156 27.289062 -79.53125 C 29.109375 -83.691406 27.550781 -88.628906 23.652344 -91.226562 L 19.492188 -93.828125 C 17.933594 -94.867188 16.375 -94.867188 14.816406 -94.605469 C 13.253906 -94.085938 11.957031 -92.785156 11.4375 -91.226562 C 5.457031 -77.453125 -8.578125 -30.929688 -0.519531 -12.996094 C 1.039062 -9.617188 3.378906 -7.277344 6.496094 -6.238281 Z M 28.070312 -100.585938 C 29.371094 -100.0625 30.410156 -100.0625 31.449219 -100.0625 C 33.527344 -100.0625 36.128906 -101.363281 36.90625 -102.921875 L 42.882812 -113.058594 C 44.445312 -116.4375 44.703125 -119.296875 43.925781 -122.417969 C 42.625 -125.535156 40.027344 -128.132812 36.90625 -129.695312 L 36.128906 -129.953125 C 32.75 -131.511719 29.109375 -130.214844 27.550781 -127.355469 L 21.050781 -113.320312 C 19.234375 -109.160156 20.792969 -104.484375 24.949219 -102.402344 Z M 28.070312 -100.585938 "/></g></g></g><g fill="rgb(255, 218, 162)" fill-opacity="1"><g transform="translate(647.863899, 242.283835)"><g><path d="M 97.464844 -53.019531 C 96.945312 -53.800781 95.644531 -54.320312 94.867188 -53.539062 C 94.605469 -53.539062 74.332031 -40.804688 55.359375 -45.222656 C 57.960938 -53.019531 59 -61.078125 58.738281 -68.355469 C 57.960938 -81.609375 52.5 -90.96875 43.144531 -94.347656 C 37.425781 -96.425781 31.707031 -96.164062 25.992188 -93.304688 C 15.074219 -87.589844 5.71875 -72.773438 0 -52.5 C -4.9375 -34.828125 1.039062 -22.09375 8.058594 -16.113281 C 12.214844 -12.734375 16.894531 -11.175781 21.832031 -11.175781 C 25.210938 -11.175781 28.328125 -11.957031 31.449219 -13.515625 C 41.84375 -18.453125 49.640625 -29.371094 54.0625 -41.324219 C 57.179688 -40.804688 60.296875 -40.285156 63.675781 -40.285156 C 67.054688 -40.285156 70.953125 -40.804688 74.851562 -41.585938 C 87.070312 -44.183594 96.425781 -50.160156 96.945312 -50.421875 C 97.726562 -50.941406 97.984375 -52.242188 97.464844 -53.019531 Z M 35.347656 -20.53125 C 31.1875 -17.414062 26.769531 -17.152344 22.871094 -19.753906 C 17.152344 -23.652344 12.476562 -34.566406 17.414062 -53.019531 C 19.492188 -60.816406 22.613281 -67.574219 26.511719 -72.773438 C 26.769531 -67.835938 28.589844 -61.078125 35.085938 -53.539062 C 39.246094 -48.601562 43.925781 -44.964844 49.640625 -42.882812 C 49.902344 -42.625 50.160156 -42.625 50.421875 -42.625 C 47.042969 -33.789062 41.84375 -25.730469 35.347656 -20.53125 Z M 51.722656 -46.261719 C 51.460938 -46.261719 51.203125 -46.261719 50.941406 -46.523438 C 47.042969 -48.082031 43.925781 -51.460938 42.105469 -56.140625 C 37.945312 -66.796875 40.546875 -81.089844 42.105469 -85.507812 C 42.882812 -85.769531 43.40625 -85.769531 43.925781 -85.769531 C 47.5625 -86.289062 50.421875 -84.46875 51.980469 -80.832031 C 54.0625 -76.414062 54.839844 -71.472656 54.839844 -68.09375 C 55.359375 -61.339844 54.0625 -53.539062 51.722656 -46.261719 Z M 51.722656 -46.261719 "/></g></g></g></svg>