<svg xmlns="http://www.w3.org/2000/svg" xmlns:xlink="http://www.w3.org/1999/xlink" width="1000" zoomAndPan="magnify" viewBox="0 0 750 374.999991" height="500" preserveAspectRatio="xMidYMid meet" version="1.0"><defs><g/></defs><g fill="rgb(43.919373%, 27.839661%, 3.529358%)" fill-opacity="1"><g transform="translate(9.948242, 239.803204)"><g><path d="M 162.777344 -171.710938 C 147.394531 -159.554688 126.550781 -163.523438 106.699219 -167.246094 C 102.976562 -167.988281 99.253906 -168.734375 95.535156 -169.230469 L 97.023438 -174.9375 C 98.261719 -180.398438 96.773438 -186.105469 93.300781 -189.824219 L 91.066406 -192.308594 C 89.824219 -193.546875 88.335938 -194.042969 86.601562 -193.546875 C 84.863281 -193.050781 83.621094 -191.5625 83.125 -189.824219 L 78.90625 -170.96875 C 67.492188 -171.214844 56.824219 -168.980469 47.890625 -161.289062 C 47.144531 -160.546875 47.144531 -159.304688 47.640625 -158.558594 C 48.140625 -158.3125 48.636719 -158.0625 49.132812 -158.0625 C 49.628906 -158.0625 49.875 -158.0625 50.371094 -158.558594 C 58.3125 -165.261719 67.742188 -167.492188 77.914062 -167.246094 C 72.457031 -144.167969 66.5 -120.347656 60.296875 -98.757812 C 24.8125 -79.652344 10.421875 -57.816406 4.714844 -44.417969 C -1.738281 -28.785156 -0.496094 -16.625 2.480469 -10.917969 C 6.949219 -2.480469 13.648438 0 18.609375 0.496094 L 20.59375 0.496094 C 28.535156 0.496094 37.46875 -3.96875 42.929688 -10.671875 C 48.636719 -17.867188 58.5625 -30.519531 78.660156 -103.472656 C 87.839844 -107.195312 98.261719 -110.917969 109.925781 -114.390625 C 110.917969 -114.640625 111.414062 -115.632812 111.164062 -116.625 C 110.917969 -117.617188 109.925781 -118.113281 108.933594 -117.867188 C 98.261719 -114.886719 88.585938 -111.414062 79.902344 -107.941406 C 84.367188 -124.070312 89.328125 -143.175781 94.789062 -165.757812 C 98.511719 -165.011719 102.234375 -164.265625 105.953125 -163.769531 C 126.796875 -159.800781 148.386719 -155.832031 165.011719 -168.734375 C 166.003906 -169.476562 166.003906 -170.472656 165.507812 -171.464844 C 164.765625 -172.207031 163.769531 -172.457031 162.777344 -171.710938 Z M 30.273438 -17.371094 C 26.550781 -11.664062 20.84375 -8.1875 15.382812 -7.691406 C 11.910156 -7.445312 8.933594 -8.4375 6.949219 -10.421875 C 6.453125 -11.167969 5.957031 -11.910156 5.707031 -12.65625 C 2.730469 -17.867188 2.480469 -29.527344 8.1875 -42.929688 C 13.398438 -55.582031 26.800781 -75.929688 59.058594 -93.796875 C 48.882812 -58.5625 38.710938 -29.527344 30.273438 -17.371094 Z M 30.273438 -17.371094 "/></g></g></g><g fill="rgb(43.919373%, 27.839661%, 3.529358%)" fill-opacity="1"><g transform="translate(111.676596, 239.803204)"><g><path d="M 76.921875 -50.867188 C 76.179688 -51.363281 75.1875 -51.117188 74.441406 -50.371094 C 53.597656 -22.582031 40.941406 -11.414062 30.273438 -7.445312 L 30.023438 -7.445312 C 25.558594 -6.203125 21.589844 -7.195312 18.859375 -10.421875 C 13.398438 -16.625 13.152344 -29.527344 18.113281 -43.921875 C 23.078125 -44.914062 42.929688 -49.378906 51.859375 -66.003906 C 54.589844 -71.464844 55.085938 -75.929688 54.589844 -79.402344 C 54.589844 -80.148438 54.34375 -81.140625 54.09375 -81.886719 C 53.597656 -83.375 53.101562 -84.367188 52.605469 -85.359375 C 49.875 -89.824219 44.914062 -92.554688 39.949219 -92.554688 C 28.535156 -92.554688 12.160156 -81.140625 0 -49.875 C -7.195312 -31.015625 -3.472656 -19.355469 0.992188 -12.902344 C 6.453125 -4.960938 14.640625 -1.984375 19.851562 -1.984375 C 23.574219 -1.984375 27.296875 -2.730469 31.015625 -3.96875 C 31.015625 -3.96875 31.265625 -3.96875 31.265625 -4.21875 C 44.167969 -8.683594 57.566406 -22.085938 77.417969 -48.140625 C 77.914062 -49.132812 77.914062 -50.125 76.921875 -50.867188 Z M 20.097656 -48.882812 C 30.519531 -73.945312 39.207031 -81.390625 44.664062 -83.125 C 46.402344 -83.871094 47.890625 -83.621094 49.132812 -82.878906 L 50.621094 -80.894531 C 51.859375 -77.171875 51.117188 -72.457031 48.636719 -67.742188 C 41.4375 -54.589844 26.300781 -49.628906 19.601562 -48.140625 Z M 20.097656 -48.882812 "/></g></g></g><g fill="rgb(43.919373%, 27.839661%, 3.529358%)" fill-opacity="1"><g transform="translate(185.615744, 239.803204)"><g><path d="M 76.921875 -50.867188 C 76.179688 -51.363281 75.1875 -51.117188 74.441406 -50.371094 C 53.597656 -22.582031 40.941406 -11.414062 30.273438 -7.445312 L 30.023438 -7.445312 C 25.558594 -6.203125 21.589844 -7.195312 18.859375 -10.421875 C 13.398438 -16.625 13.152344 -29.527344 18.113281 -43.921875 C 23.078125 -44.914062 42.929688 -49.378906 51.859375 -66.003906 C 54.589844 -71.464844 55.085938 -75.929688 54.589844 -79.402344 C 54.589844 -80.148438 54.34375 -81.140625 54.09375 -81.886719 C 53.597656 -83.375 53.101562 -84.367188 52.605469 -85.359375 C 49.875 -89.824219 44.914062 -92.554688 39.949219 -92.554688 C 28.535156 -92.554688 12.160156 -81.140625 0 -49.875 C -7.195312 -31.015625 -3.472656 -19.355469 0.992188 -12.902344 C 6.453125 -4.960938 14.640625 -1.984375 19.851562 -1.984375 C 23.574219 -1.984375 27.296875 -2.730469 31.015625 -3.96875 C 31.015625 -3.96875 31.265625 -3.96875 31.265625 -4.21875 C 44.167969 -8.683594 57.566406 -22.085938 77.417969 -48.140625 C 77.914062 -49.132812 77.914062 -50.125 76.921875 -50.867188 Z M 20.097656 -48.882812 C 30.519531 -73.945312 39.207031 -81.390625 44.664062 -83.125 C 46.402344 -83.871094 47.890625 -83.621094 49.132812 -82.878906 L 50.621094 -80.894531 C 51.859375 -77.171875 51.117188 -72.457031 48.636719 -67.742188 C 41.4375 -54.589844 26.300781 -49.628906 19.601562 -48.140625 Z M 20.097656 -48.882812 "/></g></g></g><g fill="rgb(43.919373%, 27.839661%, 3.529358%)" fill-opacity="1"><g transform="translate(259.554892, 239.803204)"><g><path d="M 111.164062 -51.363281 C 110.421875 -51.859375 109.179688 -51.363281 108.683594 -50.621094 C 102.730469 -39.453125 86.847656 -14.640625 74.191406 -5.460938 C 74.191406 -5.210938 73.945312 -5.210938 73.945312 -5.210938 C 72.703125 -4.464844 70.96875 -3.722656 69.230469 -4.960938 C 67.246094 -6.453125 58.808594 -15.878906 69.976562 -68.238281 C 99.75 -98.261719 133.5 -158.808594 129.03125 -183.125 C 128.289062 -187.839844 125.804688 -191.066406 122.332031 -192.804688 C 117.121094 -194.789062 111.910156 -194.539062 106.203125 -191.8125 C 86.847656 -181.886719 67.492188 -142.925781 55.335938 -90.074219 L 54.589844 -87.097656 C 53.101562 -89.578125 51.363281 -91.8125 48.882812 -93.300781 C 44.664062 -96.03125 39.453125 -96.277344 33.746094 -94.042969 C 20.097656 -89.082031 -0.496094 -67.988281 -1.242188 -38.460938 C -1.488281 -26.054688 3.226562 -20.59375 7.445312 -18.113281 C 10.171875 -16.625 13.398438 -15.878906 16.625 -15.878906 C 20.84375 -15.878906 25.308594 -17.121094 28.535156 -19.105469 C 36.722656 -24.070312 42.183594 -31.265625 46.898438 -39.453125 C 45.65625 -22.828125 47.394531 -11.910156 51.859375 -5.460938 C 54.839844 -1.242188 59.058594 1.242188 64.515625 1.738281 C 64.765625 1.984375 65.261719 1.984375 65.757812 1.984375 C 68.484375 1.984375 71.960938 0.746094 75.433594 -1.738281 C 75.683594 -1.984375 75.929688 -1.984375 75.929688 -2.234375 C 76.179688 -2.234375 76.179688 -2.234375 76.179688 -2.480469 C 81.886719 -6.453125 88.335938 -13.398438 95.285156 -23.078125 C 104.714844 -35.730469 111.910156 -48.636719 111.910156 -48.882812 C 112.40625 -49.628906 112.160156 -50.867188 111.164062 -51.363281 Z M 77.171875 -98.015625 C 94.789062 -163.273438 108.933594 -178.90625 115.878906 -182.628906 C 118.113281 -183.871094 119.851562 -184.117188 121.585938 -183.375 C 125.0625 -182.382812 125.558594 -176.921875 125.804688 -175.929688 C 123.820312 -152.109375 98.261719 -104.21875 71.464844 -75.1875 Z M 47.640625 -48.882812 C 42.183594 -37.964844 36.476562 -28.289062 26.800781 -22.332031 C 25.0625 -21.589844 22.582031 -21.089844 20.59375 -23.078125 C 16.378906 -27.046875 15.136719 -37.71875 21.589844 -53.351562 C 31.511719 -77.914062 47.394531 -84.613281 49.132812 -84.613281 C 51.363281 -84.613281 52.109375 -83.375 52.605469 -82.628906 C 52.851562 -81.886719 53.101562 -81.140625 53.101562 -80.644531 C 50.621094 -68.484375 48.882812 -58.0625 47.640625 -48.882812 Z M 47.640625 -48.882812 "/></g></g></g><g fill="rgb(43.919373%, 27.839661%, 3.529358%)" fill-opacity="1"><g transform="translate(367.734324, 239.803204)"><g><path d="M 113.152344 -51.117188 C 112.40625 -51.859375 111.164062 -51.613281 110.667969 -50.621094 C 99.007812 -33.25 82.132812 -20.347656 66.003906 -11.910156 C 74.691406 -21.589844 81.390625 -34.492188 83.871094 -39.949219 C 97.765625 -69.976562 98.015625 -88.335938 84.367188 -96.277344 C 81.140625 -98.015625 77.171875 -98.261719 72.457031 -96.527344 C 69.230469 -95.285156 65.757812 -93.300781 61.785156 -90.074219 C 61.539062 -90.074219 61.289062 -89.824219 61.289062 -89.578125 C 47.890625 -78.660156 30.769531 -55.335938 15.632812 -16.128906 C 15.382812 -26.800781 15.878906 -38.460938 17.121094 -50.125 C 17.617188 -50.125 18.363281 -50.371094 18.859375 -50.867188 C 74.191406 -128.535156 77.417969 -166.253906 74.9375 -181.140625 L 74.9375 -181.390625 L 74.191406 -184.613281 C 72.953125 -189.328125 70.472656 -193.050781 67.492188 -194.292969 C 60.792969 -197.023438 56.078125 -195.035156 50.867188 -190.816406 C 42.679688 -184.367188 21.589844 -161.289062 5.707031 -87.59375 C -4.464844 -40.695312 -1.488281 -3.722656 0.25 10.171875 C 0.992188 15.136719 3.96875 19.355469 8.1875 21.589844 L 14.144531 24.566406 C 14.886719 24.8125 15.382812 25.0625 16.128906 25.0625 C 17.121094 25.0625 17.867188 24.8125 18.609375 24.070312 C 20.097656 23.078125 20.59375 21.339844 20.097656 19.851562 C 18.113281 13.152344 16.875 3.96875 16.128906 -6.699219 C 31.015625 -48.386719 49.378906 -75.1875 63.773438 -87.097656 C 66.75 -88.585938 74.191406 -91.5625 77.667969 -88.335938 C 80.894531 -85.113281 79.902344 -71.960938 67.246094 -44.417969 C 57.070312 -22.582031 46.898438 -8.4375 39.453125 -7.195312 C 37.46875 -6.699219 35.730469 -7.445312 33.996094 -8.933594 C 32.507812 -10.171875 31.511719 -11.910156 30.273438 -13.648438 C 29.527344 -14.390625 28.535156 -14.640625 27.542969 -14.144531 C 26.800781 -13.648438 26.550781 -12.40625 27.046875 -11.664062 C 28.535156 -9.675781 29.777344 -7.941406 31.265625 -6.453125 C 33.25 -4.21875 35.484375 -2.730469 37.71875 -1.738281 C 39.949219 -0.496094 42.429688 0 44.914062 0 L 46.152344 0 L 48.386719 -0.496094 L 48.636719 -0.496094 C 50.621094 -0.992188 52.605469 -1.738281 54.34375 -2.730469 C 74.191406 -10.421875 98.511719 -25.804688 113.648438 -48.636719 C 114.144531 -49.378906 113.894531 -50.621094 113.152344 -51.117188 Z M 22.582031 -82.382812 C 26.300781 -97.519531 34.492188 -124.316406 42.679688 -146.402344 C 57.320312 -184.367188 64.269531 -186.847656 65.757812 -186.847656 L 66.003906 -186.847656 C 69.726562 -186.351562 71.214844 -181.636719 71.214844 -180.644531 C 72.457031 -174.191406 72.457031 -161.539062 65.261719 -141.191406 C 56.824219 -117.121094 40.695312 -88.335938 17.867188 -55.832031 C 18.859375 -64.765625 20.59375 -73.695312 22.582031 -82.382812 Z M 22.582031 -82.382812 "/></g></g></g><g fill="rgb(43.919373%, 27.839661%, 3.529358%)" fill-opacity="1"><g transform="translate(477.898692, 239.803204)"><g><path d="M 90.074219 -51.363281 C 89.082031 -51.613281 88.089844 -51.117188 87.839844 -50.371094 C 84.367188 -32.753906 77.417969 -8.683594 69.976562 4.714844 C 68.734375 6.203125 65.507812 9.925781 62.035156 7.941406 C 60.296875 6.949219 57.816406 -2.730469 61.042969 -27.046875 C 63.773438 -48.386719 69.976562 -71.464844 77.171875 -88.585938 C 78.660156 -92.554688 77.667969 -97.519531 73.695312 -100.992188 L 69.976562 -104.464844 C 68.734375 -105.707031 66.75 -106.453125 65.011719 -106.453125 C 63.273438 -106.203125 62.035156 -105.457031 60.792969 -103.96875 C 57.320312 -97.269531 53.597656 -87.839844 50.621094 -76.921875 L 50.621094 -77.417969 C 49.132812 -83.375 45.65625 -87.839844 41.191406 -90.074219 C 37.71875 -91.5625 32.507812 -91.5625 27.296875 -89.578125 C 20.347656 -86.847656 7.445312 -78.660156 0.746094 -54.09375 C -4.21875 -33.5 -0.746094 -22.332031 2.480469 -16.378906 C 6.453125 -10.421875 11.664062 -8.933594 13.648438 -8.4375 C 14.640625 -8.1875 15.382812 -8.1875 16.378906 -8.1875 C 21.835938 -8.1875 28.289062 -11.414062 34.242188 -19.601562 C 34.492188 -20.097656 34.738281 -20.347656 35.234375 -20.59375 C 35.234375 -20.84375 35.484375 -20.84375 35.484375 -21.089844 C 38.214844 -25.0625 40.941406 -29.777344 43.425781 -35.980469 C 42.429688 -21.589844 42.183594 -0.25 48.882812 10.917969 C 51.363281 15.136719 54.589844 17.617188 58.808594 18.113281 L 59.800781 18.113281 C 67.742188 18.113281 74.9375 7.195312 82.628906 -15.136719 C 88.089844 -31.761719 91.5625 -48.882812 91.8125 -49.132812 C 91.5625 -50.125 91.066406 -51.117188 90.074219 -51.363281 Z M 48.386719 -66.996094 C 47.144531 -62.035156 46.402344 -57.070312 45.65625 -51.859375 C 41.191406 -38.957031 36.722656 -29.527344 32.257812 -23.078125 C 28.289062 -17.867188 23.574219 -17.617188 21.589844 -18.859375 C 19.355469 -20.097656 14.144531 -23.078125 20.097656 -51.613281 C 25.558594 -78.410156 37.222656 -82.878906 40.941406 -82.382812 C 43.671875 -81.886719 46.152344 -79.15625 47.144531 -76.425781 C 47.890625 -73.945312 48.386719 -70.71875 48.386719 -66.996094 Z M 48.386719 -66.996094 "/></g></g></g><g fill="rgb(43.919373%, 27.839661%, 3.529358%)" fill-opacity="1"><g transform="translate(565.980556, 239.803204)"><g><path d="M 87.839844 -51.117188 C 87.097656 -51.613281 85.855469 -51.613281 85.359375 -50.867188 C 61.289062 -18.859375 46.648438 -5.957031 34.492188 -1.488281 L 34.242188 -1.488281 C 28.535156 0 23.820312 -1.242188 20.097656 -5.210938 C 12.902344 -13.648438 13.152344 -30.769531 20.84375 -48.882812 C 34.988281 -83.125 46.898438 -88.585938 49.875 -87.839844 C 54.09375 -86.847656 55.582031 -81.636719 55.582031 -81.390625 C 56.078125 -78.164062 56.078125 -74.191406 55.582031 -70.222656 C 55.335938 -69.230469 56.078125 -68.238281 57.070312 -67.988281 C 58.0625 -67.988281 59.058594 -68.734375 59.058594 -69.726562 C 60.546875 -78.660156 59.304688 -86.601562 55.335938 -91.5625 C 52.851562 -95.035156 49.132812 -97.023438 44.664062 -97.765625 C 33.25 -99.253906 14.390625 -87.839844 0.25 -50.371094 C -8.1875 -28.785156 -3.722656 -15.382812 1.242188 -7.941406 C 7.445312 0.992188 16.625 4.21875 22.582031 4.21875 C 26.800781 4.21875 31.015625 3.472656 35.234375 1.984375 L 35.730469 1.984375 C 50.371094 -3.472656 65.757812 -18.609375 88.335938 -48.636719 C 88.832031 -49.378906 88.585938 -50.621094 87.839844 -51.117188 Z M 87.839844 -51.117188 "/></g></g></g><g fill="rgb(43.919373%, 27.839661%, 3.529358%)" fill-opacity="1"><g transform="translate(650.588756, 239.803204)"><g><path d="M 89.082031 -51.363281 C 88.335938 -51.613281 87.097656 -51.363281 86.847656 -50.371094 C 86.601562 -49.875 74.191406 -18.113281 60.792969 -7.691406 L 60.546875 -7.691406 C 58.5625 -5.957031 57.320312 -6.453125 56.824219 -6.699219 C 52.355469 -9.179688 48.882812 -23.820312 50.621094 -47.144531 C 61.785156 -50.125 70.472656 -57.816406 75.1875 -69.230469 C 79.652344 -80.148438 79.15625 -92.058594 73.945312 -96.277344 C 72.953125 -97.269531 70.96875 -98.015625 67.988281 -97.023438 C 59.058594 -94.042969 44.664062 -76.921875 34.242188 -61.785156 C 25.0625 -48.386719 17.371094 -34.738281 11.910156 -22.582031 C 13.398438 -31.265625 15.136719 -40.695312 17.121094 -50.371094 C 33.5 -70.472656 49.875 -95.035156 62.035156 -118.363281 C 73.199219 -140.199219 79.652344 -158.3125 80.894531 -170.71875 L 80.894531 -171.214844 C 80.894531 -173.449219 80.894531 -175.683594 80.644531 -177.667969 C 80.148438 -182.132812 78.410156 -185.359375 75.683594 -187.34375 C 73.199219 -189.328125 68.734375 -190.816406 62.28125 -187.839844 C 49.378906 -182.132812 34.988281 -161.539062 22.828125 -131.265625 C 7.691406 -93.300781 -3.722656 -40.941406 -10.421875 20.347656 C -10.917969 24.566406 -7.941406 28.535156 -3.722656 29.28125 L -0.496094 29.777344 C -0.25 30.023438 0.25 30.023438 0.496094 30.023438 C 1.738281 30.023438 2.730469 29.527344 3.722656 28.785156 C 4.960938 28.039062 5.707031 26.550781 5.707031 25.0625 C 6.453125 18.859375 7.445312 9.179688 9.179688 -2.976562 C 12.902344 -18.609375 23.324219 -39.703125 37.222656 -59.554688 C 44.417969 -69.976562 51.613281 -78.90625 57.816406 -84.863281 C 58.808594 -86.105469 60.050781 -86.601562 61.042969 -86.601562 C 61.785156 -86.601562 62.28125 -86.105469 62.53125 -85.609375 C 63.273438 -84.863281 63.273438 -80.644531 60.546875 -73.945312 C 56.574219 -64.019531 47.890625 -51.613281 36.476562 -49.628906 L 36.226562 -49.628906 L 35.980469 -49.378906 L 35.730469 -49.378906 L 35.730469 -49.132812 L 35.484375 -49.132812 L 35.234375 -48.882812 L 35.234375 -48.636719 L 34.988281 -48.636719 L 34.988281 -47.890625 C 33.5 -32.011719 35.484375 -10.671875 45.160156 -3.226562 C 47.394531 -1.488281 49.875 -0.746094 52.355469 -0.746094 C 54.09375 -0.746094 55.832031 -0.992188 57.320312 -1.738281 C 59.058594 -2.234375 60.792969 -3.226562 62.28125 -4.21875 C 62.53125 -4.464844 62.777344 -4.464844 62.777344 -4.714844 C 63.027344 -4.714844 63.027344 -4.714844 63.027344 -4.960938 C 77.417969 -16.128906 89.578125 -47.394531 90.324219 -48.882812 C 90.570312 -49.875 90.074219 -51.117188 89.082031 -51.363281 Z M 23.574219 -77.667969 C 37.71875 -129.28125 57.320312 -172.953125 69.230469 -179.652344 C 70.222656 -180.148438 71.214844 -180.398438 71.960938 -180.398438 C 72.207031 -180.398438 72.703125 -180.148438 72.953125 -180.148438 C 77.417969 -178.410156 77.171875 -171.464844 77.171875 -171.214844 C 75.1875 -146.898438 49.875 -98.015625 18.859375 -58.5625 Z M 23.574219 -77.667969 "/></g></g></g></svg>