<svg xmlns="http://www.w3.org/2000/svg" xmlns:xlink="http://www.w3.org/1999/xlink" width="1000" zoomAndPan="magnify" viewBox="0 0 750 749.999995" height="1000" preserveAspectRatio="xMidYMid meet" version="1.0"><defs><g/><clipPath id="dcb71356cf"><path d="M 375 0 C 167.894531 0 0 167.894531 0 375 C 0 582.105469 167.894531 750 375 750 C 582.105469 750 750 582.105469 750 375 C 750 167.894531 582.105469 0 375 0 " clip-rule="nonzero"/></clipPath></defs><g clip-path="url(#dcb71356cf)"><rect x="-75" width="900" fill="#ab8448" y="-74.999999" height="899.999994" fill-opacity="1"/></g><g fill="#000000" fill-opacity="1"><g transform="translate(288.107194, 510.61097)"><g><path d="M 285.40625 -55.734375 C 286.769531 -55.859375 287.390625 -54.816406 287.265625 -52.609375 C 287.140625 -50.410156 286.269531 -49.25 284.65625 -49.125 C 283.101562 -48.875 281.6875 -48.125 280.40625 -46.875 C 279.132812 -45.632812 278.5 -44.269531 278.5 -42.78125 C 278.875 -29.539062 277.179688 -16.800781 273.421875 -4.5625 C 269.660156 7.675781 264.644531 19.484375 258.375 30.859375 C 245.945312 54.460938 230.847656 75.460938 213.078125 93.859375 C 195.304688 112.253906 174.519531 127.757812 150.71875 140.375 C 137.601562 147.207031 124.101562 152.332031 110.21875 155.75 C 96.332031 159.164062 81.929688 160.441406 67.015625 159.578125 C 54.585938 158.890625 42.90625 155.5625 31.96875 149.59375 C 18.976562 141.894531 10.398438 131.859375 6.234375 119.484375 C 2.078125 107.117188 2.859375 93.976562 8.578125 80.0625 C 14.597656 66.519531 24.070312 53.90625 37 42.21875 C 49.925781 30.539062 64.960938 19.804688 82.109375 10.015625 C 99.265625 0.234375 117.144531 -8.414062 135.75 -15.9375 C 154.363281 -23.457031 172.304688 -29.875 189.578125 -35.1875 C 206.859375 -40.5 222.207031 -44.519531 235.625 -47.25 C 239.289062 -48.125 242.894531 -48.90625 246.4375 -49.59375 C 250.289062 -50.269531 254.050781 -51.015625 257.71875 -51.828125 C 260.882812 -52.378906 262.003906 -54.085938 261.078125 -56.953125 C 257.910156 -70.066406 251.601562 -81.34375 242.15625 -90.78125 C 235.320312 -97.488281 227.910156 -103.15625 219.921875 -107.78125 C 211.941406 -112.414062 203.507812 -116.320312 194.625 -119.5 C 167.957031 -128.9375 140.394531 -134.25 111.9375 -135.4375 C 110.007812 -135.625 108.023438 -135.71875 105.984375 -135.71875 C 103.679688 -135.53125 102.46875 -134.285156 102.34375 -131.984375 C 102.03125 -129.242188 101.875 -126.507812 101.875 -123.78125 C 101.75 -102.34375 101.6875 -80.875 101.6875 -59.375 C 101.5625 -49.925781 101.5 -40.421875 101.5 -30.859375 C 101.5 -30.171875 101.5 -29.578125 101.5 -29.078125 C 101.5 -27.710938 101.5 -26.347656 101.5 -24.984375 C 100.820312 -18.828125 97.625 -16.679688 91.90625 -18.546875 C 89.664062 -19.234375 88.484375 -20.691406 88.359375 -22.921875 C 88.109375 -26.035156 88.046875 -29.175781 88.171875 -32.34375 C 88.046875 -51.726562 87.984375 -71.050781 87.984375 -90.3125 C 87.984375 -100.070312 87.984375 -109.738281 87.984375 -119.3125 C 87.984375 -120.113281 87.984375 -120.921875 87.984375 -121.734375 C 87.984375 -124.023438 87.921875 -126.414062 87.796875 -128.90625 C 87.796875 -131.519531 87.40625 -133.226562 86.625 -134.03125 C 85.851562 -134.84375 84.257812 -135.3125 81.84375 -135.4375 C 80.71875 -135.4375 79.691406 -135.4375 78.765625 -135.4375 C 76.148438 -135.625 73.601562 -135.835938 71.125 -136.078125 C 68.945312 -136.328125 67.453125 -137.476562 66.640625 -139.53125 C 65.960938 -142.144531 66.644531 -144.289062 68.6875 -145.96875 C 71.425781 -148.132812 74.285156 -150.242188 77.265625 -152.296875 C 78.515625 -153.109375 79.632812 -153.796875 80.625 -154.359375 C 82.925781 -155.847656 84.585938 -157.070312 85.609375 -158.03125 C 86.640625 -159 87.257812 -160.085938 87.46875 -161.296875 C 87.6875 -162.503906 87.796875 -164.414062 87.796875 -167.03125 C 87.609375 -168.519531 87.515625 -170.289062 87.515625 -172.34375 C 87.703125 -187.8125 87.796875 -203.347656 87.796875 -218.953125 C 87.796875 -227.523438 87.796875 -236.191406 87.796875 -244.953125 C 87.796875 -245.078125 87.796875 -245.296875 87.796875 -245.609375 C 87.796875 -248.585938 87.921875 -251.503906 88.171875 -254.359375 C 88.421875 -258.085938 90.597656 -259.890625 94.703125 -259.765625 C 98.679688 -259.890625 100.945312 -258.179688 101.5 -254.640625 C 101.75 -251.035156 101.875 -247.398438 101.875 -243.734375 C 101.875 -234.421875 101.875 -225.132812 101.875 -215.875 C 101.875 -204.5 101.96875 -193.21875 102.15625 -182.03125 C 101.96875 -181.226562 101.875 -180.484375 101.875 -179.796875 C 101.625 -176.628906 102.125 -172.992188 103.375 -168.890625 C 112.382812 -174.109375 123.269531 -180.707031 136.03125 -188.6875 C 148.800781 -196.675781 161.816406 -205.253906 175.078125 -214.421875 C 188.347656 -223.585938 200.109375 -232.753906 210.359375 -241.921875 C 220.617188 -251.085938 227.738281 -259.554688 231.71875 -267.328125 C 235.9375 -276.210938 234.007812 -283.507812 225.9375 -289.21875 C 216 -295.9375 203.132812 -299.601562 187.34375 -300.21875 C 171.5625 -300.84375 154.910156 -299.164062 137.390625 -295.1875 C 119.867188 -291.207031 103.585938 -285.675781 88.546875 -278.59375 C 73.503906 -271.507812 61.632812 -263.523438 52.9375 -254.640625 C 50.207031 -251.722656 47.738281 -248.257812 45.53125 -244.25 C 43.320312 -240.238281 41.597656 -236.25 40.359375 -232.28125 C 39.429688 -229.789062 37.597656 -228.34375 34.859375 -227.9375 C 32.128906 -227.53125 29.800781 -228.289062 27.875 -230.21875 C 26.9375 -231.59375 26.65625 -233.085938 27.03125 -234.703125 C 28.269531 -239.359375 30.414062 -243.613281 33.46875 -247.46875 C 43.15625 -259.894531 56.914062 -270.753906 74.75 -280.046875 C 92.582031 -289.335938 111.921875 -296.375 132.765625 -301.15625 C 153.617188 -305.9375 173.410156 -307.921875 192.140625 -307.109375 C 210.878906 -306.304688 226 -302.054688 237.5 -294.359375 C 249.238281 -286.335938 251.753906 -276.019531 245.046875 -263.40625 C 241.628906 -257.132812 236.609375 -250.75 229.984375 -244.25 C 223.367188 -237.757812 216.332031 -231.609375 208.875 -225.796875 C 201.414062 -219.984375 194.800781 -214.96875 189.03125 -210.75 C 178.53125 -203.101562 167.75 -195.753906 156.6875 -188.703125 C 145.625 -181.648438 134.46875 -174.765625 123.21875 -168.046875 C 122.96875 -167.929688 122.6875 -167.75 122.375 -167.5 C 116.789062 -164.320312 111.328125 -161.023438 105.984375 -157.609375 C 102.191406 -154.753906 101.039062 -150.9375 102.53125 -146.15625 C 102.65625 -145.71875 102.960938 -145.265625 103.453125 -144.796875 C 103.953125 -144.328125 104.453125 -144.09375 104.953125 -144.09375 C 107.191406 -143.664062 109.398438 -143.453125 111.578125 -143.453125 C 111.691406 -143.453125 111.875 -143.453125 112.125 -143.453125 C 141.707031 -142.640625 170.507812 -137.570312 198.53125 -128.25 C 214.0625 -123.34375 228.539062 -116.164062 241.96875 -106.71875 C 250.039062 -101 256.90625 -94.441406 262.5625 -87.046875 C 268.21875 -79.660156 272.414062 -71.179688 275.15625 -61.609375 C 276.019531 -58.503906 277.023438 -56.609375 278.171875 -55.921875 C 279.328125 -55.242188 281.738281 -55.179688 285.40625 -55.734375 Z M 263.3125 -32.34375 C 263.875 -37.9375 263.46875 -41.351562 262.09375 -42.59375 C 260.726562 -43.832031 257.21875 -43.769531 251.5625 -42.40625 C 238.207031 -39.675781 223.125 -35.835938 206.3125 -30.890625 C 189.507812 -25.953125 172.21875 -19.925781 154.4375 -12.8125 C 136.664062 -5.695312 119.578125 2.472656 103.171875 11.703125 C 86.773438 20.929688 72.316406 31.179688 59.796875 42.453125 C 47.273438 53.734375 37.875 66.113281 31.59375 79.59375 C 27.0625 89.851562 24.992188 99.535156 25.390625 108.640625 C 25.796875 117.742188 28.128906 125.601562 32.390625 132.21875 C 36.648438 138.832031 42.257812 143.507812 49.21875 146.25 C 58.101562 149.664062 67.328125 151.53125 76.890625 151.84375 C 77.578125 151.84375 78.203125 151.78125 78.765625 151.65625 C 80.128906 151.46875 81.492188 151.375 82.859375 151.375 C 100.878906 149.632812 117.90625 144.722656 133.9375 136.640625 C 163.144531 122.160156 187.796875 103.503906 207.890625 80.671875 C 227.992188 57.835938 243.921875 31.320312 255.671875 1.125 C 259.773438 -9.6875 262.320312 -20.84375 263.3125 -32.34375 Z M 263.3125 -32.34375 "/></g></g></g><g fill="#000000" fill-opacity="1"><g transform="translate(225.09752, 410.37677)"><g><path d="M 155.84375 -55.09375 C 157.332031 -55.332031 158.867188 -55.421875 160.453125 -55.359375 C 162.035156 -55.296875 163.578125 -54.863281 165.078125 -54.0625 C 165.316406 -53.8125 165.546875 -53.375 165.765625 -52.75 C 165.984375 -52.132812 166.15625 -51.546875 166.28125 -50.984375 C 166.28125 -50.734375 166.140625 -50.4375 165.859375 -50.09375 C 165.578125 -49.757812 165.316406 -49.4375 165.078125 -49.125 C 164.390625 -48.75 163.703125 -48.46875 163.015625 -48.28125 C 154.128906 -46.539062 145.894531 -43.585938 138.3125 -39.421875 C 130.738281 -35.265625 123.535156 -30.453125 116.703125 -24.984375 C 107.378906 -17.710938 98.785156 -9.738281 90.921875 -1.0625 C 83.066406 7.601562 75.65625 16.65625 68.6875 26.09375 C 55.457031 43.863281 43.15625 62.320312 31.78125 81.46875 C 29.175781 85.875 26.503906 90.191406 23.765625 94.421875 C 23.390625 95.222656 22.925781 95.96875 22.375 96.65625 C 21.125 98.707031 19.753906 100.632812 18.265625 102.4375 C 14.285156 106.664062 9.625 107.691406 4.28125 105.515625 C 2.113281 104.390625 0.859375 102.910156 0.515625 101.078125 C 0.171875 99.242188 0.21875 97.304688 0.65625 95.265625 C 3.632812 68.296875 5.40625 41.359375 5.96875 14.453125 C 7.019531 -21.648438 7.71875 -57.753906 8.0625 -93.859375 C 8.40625 -129.960938 7.832031 -166.035156 6.34375 -202.078125 C 5.40625 -223.703125 4.191406 -245.390625 2.703125 -267.140625 C 2.015625 -277.078125 1.332031 -287.050781 0.65625 -297.0625 C 0.65625 -297.863281 0.5625 -298.609375 0.375 -299.296875 C 0.25 -301.347656 0.1875 -303.394531 0.1875 -305.4375 C 0.5 -308.613281 2.269531 -310.382812 5.5 -310.75 C 7.425781 -311.0625 9.148438 -310.875 10.671875 -310.1875 C 12.191406 -309.507812 13.078125 -308.488281 13.328125 -307.125 C 14.566406 -302.03125 15.46875 -296.898438 16.03125 -291.734375 C 16.03125 -290.242188 16.09375 -288.722656 16.21875 -287.171875 C 18.269531 -259.023438 20.039062 -230.878906 21.53125 -202.734375 C 23.019531 -174.828125 23.734375 -146.890625 23.671875 -118.921875 C 23.609375 -90.960938 23.238281 -62.972656 22.5625 -34.953125 C 22.125 -12.023438 21.5 10.929688 20.6875 33.921875 C 20.5625 39.265625 20.285156 44.578125 19.859375 49.859375 C 19.609375 52.910156 19.421875 55.925781 19.296875 58.90625 C 19.171875 61.519531 19.015625 64.191406 18.828125 66.921875 C 18.828125 68.160156 18.765625 69.40625 18.640625 70.65625 C 19.078125 70.78125 19.421875 70.90625 19.671875 71.03125 C 20.097656 71.03125 20.5 71.09375 20.875 71.21875 C 21.5625 70.15625 22.242188 69.128906 22.921875 68.140625 C 24.722656 65.273438 26.585938 62.414062 28.515625 59.5625 C 41.191406 39.300781 55.207031 20.097656 70.5625 1.953125 C 78.320312 -7.242188 86.613281 -15.769531 95.4375 -23.625 C 104.269531 -31.488281 113.9375 -38.429688 124.4375 -44.453125 C 129.40625 -47.191406 134.453125 -49.507812 139.578125 -51.40625 C 144.703125 -53.300781 150.125 -54.53125 155.84375 -55.09375 Z M 155.84375 -55.09375 "/></g></g></g><g fill="#000000" fill-opacity="1"><g transform="translate(234.98634, 675.430952)"><g/></g></g></svg>