<svg xmlns="http://www.w3.org/2000/svg" xmlns:xlink="http://www.w3.org/1999/xlink" width="1000" zoomAndPan="magnify" viewBox="0 0 750 749.999995" height="1000" preserveAspectRatio="xMidYMid meet" version="1.0"><defs><g/></defs><g fill="rgb(43.919373%, 27.839661%, 3.529358%)" fill-opacity="1"><g transform="translate(20.573436, 429.979086)"><g><path d="M 103.578125 -197.050781 C 91.453125 -196.292969 70.230469 -184.925781 50.019531 -161.9375 C 33.09375 -142.734375 11.117188 -108.125 1.769531 -53.558594 C -4.546875 -16.167969 7.578125 -2.273438 18.945312 2.527344 C 23.242188 4.546875 28.292969 5.558594 33.601562 5.558594 C 40.925781 5.558594 49.515625 3.789062 58.359375 0.253906 L 60.882812 -1.011719 L 68.210938 -4.292969 C 87.410156 -14.148438 106.105469 -30.316406 120.757812 -49.515625 C 121.515625 -50.273438 121.261719 -51.285156 120.503906 -52.042969 C 119.746094 -52.546875 118.484375 -52.546875 117.976562 -51.789062 C 101.050781 -29.808594 79.832031 -13.136719 60.125 -4.546875 C 59.875 -4.546875 59.621094 -4.546875 59.621094 -4.292969 C 51.789062 -0.757812 40.167969 0 31.074219 -7.074219 C 21.222656 -14.398438 17.683594 -28.546875 21.222656 -46.988281 C 31.578125 -104.589844 54.0625 -138.441406 70.988281 -156.628906 C 89.683594 -176.589844 107.621094 -183.914062 111.410156 -183.660156 C 117.976562 -182.902344 118.988281 -174.0625 119.242188 -172.546875 C 119.242188 -160.671875 114.945312 -146.777344 107.367188 -137.9375 C 106.863281 -137.179688 106.863281 -136.167969 107.621094 -135.410156 C 108.378906 -134.652344 109.640625 -134.90625 110.398438 -135.664062 C 118.484375 -145.007812 123.03125 -159.664062 122.777344 -172.292969 L 122.777344 -172.546875 C 122.777344 -178.355469 121.769531 -183.660156 119.492188 -187.957031 C 116.210938 -194.523438 110.652344 -197.558594 103.578125 -197.050781 Z M 103.578125 -197.050781 "/></g></g></g><g fill="rgb(43.919373%, 27.839661%, 3.529358%)" fill-opacity="1"><g transform="translate(137.531568, 429.979086)"><g><path d="M 91.703125 -52.292969 C 90.695312 -52.546875 89.683594 -52.042969 89.429688 -51.285156 C 85.894531 -33.347656 78.820312 -8.84375 71.242188 4.800781 C 69.976562 6.316406 66.695312 10.105469 63.15625 8.085938 C 61.390625 7.074219 58.863281 -2.777344 62.148438 -27.535156 C 64.925781 -49.261719 71.242188 -72.757812 78.566406 -90.1875 C 80.082031 -94.230469 79.074219 -99.285156 75.03125 -102.820312 L 71.242188 -106.355469 C 69.976562 -107.621094 67.957031 -108.378906 66.1875 -108.378906 C 64.421875 -108.125 63.15625 -107.367188 61.894531 -105.851562 C 58.359375 -99.03125 54.566406 -89.429688 51.535156 -78.316406 L 51.535156 -78.820312 C 50.019531 -84.882812 46.484375 -89.429688 41.9375 -91.703125 C 38.398438 -93.21875 33.09375 -93.21875 27.789062 -91.199219 C 20.714844 -88.421875 7.578125 -80.082031 0.757812 -55.074219 C -4.292969 -34.105469 -0.757812 -22.738281 2.527344 -16.671875 C 6.570312 -10.609375 11.875 -9.09375 13.894531 -8.589844 C 14.90625 -8.335938 15.664062 -8.335938 16.671875 -8.335938 C 22.230469 -8.335938 28.800781 -11.621094 34.863281 -19.957031 C 35.117188 -20.464844 35.367188 -20.714844 35.875 -20.96875 C 35.875 -21.222656 36.125 -21.222656 36.125 -21.472656 C 38.90625 -25.515625 41.683594 -30.316406 44.210938 -36.632812 C 43.199219 -21.980469 42.945312 -0.253906 49.769531 11.117188 C 52.292969 15.410156 55.578125 17.9375 59.875 18.441406 L 60.882812 18.441406 C 68.96875 18.441406 76.292969 7.328125 84.125 -15.410156 C 89.683594 -32.335938 93.21875 -49.769531 93.472656 -50.019531 C 93.21875 -51.03125 92.714844 -52.042969 91.703125 -52.292969 Z M 49.261719 -68.210938 C 48 -63.15625 47.242188 -58.105469 46.484375 -52.800781 C 41.9375 -39.664062 37.390625 -30.0625 32.84375 -23.496094 C 28.800781 -18.1875 24 -17.9375 21.980469 -19.199219 C 19.707031 -20.464844 14.398438 -23.496094 20.464844 -52.546875 C 26.019531 -79.832031 37.894531 -84.378906 41.683594 -83.875 C 44.460938 -83.367188 46.988281 -80.589844 48 -77.808594 C 48.757812 -75.285156 49.261719 -72 49.261719 -68.210938 Z M 49.261719 -68.210938 "/></g></g></g><g fill="rgb(43.919373%, 27.839661%, 3.529358%)" fill-opacity="1"><g transform="translate(227.207901, 429.979086)"><g><path d="M 80.589844 -52.292969 C 79.578125 -52.800781 78.566406 -52.292969 78.0625 -51.285156 C 67.957031 -30.316406 55.832031 -14.652344 45.980469 -6.316406 C 44.210938 -5.304688 42.1875 -4.292969 40.671875 -4.800781 C 40.421875 -4.800781 39.914062 -5.050781 39.410156 -6.0625 C 36.378906 -12.632812 40.925781 -34.105469 46.988281 -49.769531 C 47.746094 -51.789062 47.242188 -54.0625 45.726562 -55.324219 C 44.210938 -56.839844 41.9375 -57.347656 40.167969 -56.589844 C 33.601562 -53.808594 24.253906 -50.527344 17.429688 -50.777344 C 14.398438 -50.777344 12.632812 -51.535156 11.875 -52.800781 C 9.851562 -56.082031 13.390625 -64.671875 16.167969 -70.738281 C 18.1875 -75.03125 17.179688 -80.082031 13.390625 -83.117188 L 11.117188 -85.136719 C 9.601562 -86.652344 7.328125 -87.15625 5.304688 -86.652344 C 3.285156 -86.148438 1.515625 -84.882812 0.757812 -82.863281 C -6.570312 -67.199219 -8.589844 -58.105469 -1.011719 -50.273438 C 5.304688 -43.703125 20.210938 -45.222656 26.777344 -46.230469 C 20.210938 -29.808594 16.925781 -9.851562 22.988281 -0.503906 C 25.261719 2.527344 28.292969 4.292969 32.085938 4.292969 L 32.335938 4.292969 C 37.136719 4.292969 42.945312 1.261719 49.011719 -4.042969 C 49.769531 -4.546875 50.019531 -5.050781 50.273438 -5.304688 C 60.882812 -14.652344 72.253906 -30.566406 81.347656 -49.769531 C 81.851562 -50.777344 81.597656 -51.789062 80.589844 -52.292969 Z M 80.589844 -52.292969 "/></g></g></g><g fill="rgb(43.919373%, 27.839661%, 3.529358%)" fill-opacity="1"><g transform="translate(305.011585, 429.979086)"><g><path d="M 113.179688 -52.292969 C 112.421875 -52.800781 111.15625 -52.292969 110.652344 -51.535156 C 104.589844 -40.167969 88.421875 -14.90625 75.535156 -5.558594 C 75.535156 -5.304688 75.285156 -5.304688 75.285156 -5.304688 C 74.019531 -4.546875 72.253906 -3.789062 70.484375 -5.050781 C 68.460938 -6.570312 59.875 -16.167969 71.242188 -69.472656 C 101.558594 -100.042969 135.914062 -161.683594 131.367188 -186.441406 C 130.609375 -191.242188 128.082031 -194.523438 124.546875 -196.292969 C 119.242188 -198.316406 113.9375 -198.0625 108.125 -195.28125 C 88.421875 -185.179688 68.714844 -145.515625 56.335938 -91.703125 L 55.578125 -88.671875 C 54.0625 -91.199219 52.292969 -93.472656 49.769531 -94.988281 C 45.472656 -97.769531 40.167969 -98.019531 34.359375 -95.746094 C 20.464844 -90.695312 -0.503906 -69.21875 -1.261719 -39.15625 C -1.515625 -26.527344 3.285156 -20.96875 7.578125 -18.441406 C 10.359375 -16.925781 13.640625 -16.167969 16.925781 -16.167969 C 21.222656 -16.167969 25.769531 -17.429688 29.050781 -19.453125 C 37.390625 -24.503906 42.945312 -31.832031 47.746094 -40.167969 C 46.484375 -23.242188 48.253906 -12.125 52.800781 -5.558594 C 55.832031 -1.261719 60.125 1.261719 65.683594 1.769531 C 65.9375 2.019531 66.441406 2.019531 66.945312 2.019531 C 69.726562 2.019531 73.261719 0.757812 76.800781 -1.769531 C 77.050781 -2.019531 77.304688 -2.019531 77.304688 -2.273438 C 77.558594 -2.273438 77.558594 -2.273438 77.558594 -2.527344 C 83.367188 -6.570312 89.9375 -13.640625 97.011719 -23.496094 C 106.609375 -36.378906 113.9375 -49.515625 113.9375 -49.769531 C 114.441406 -50.527344 114.1875 -51.789062 113.179688 -52.292969 Z M 78.566406 -99.789062 C 96.503906 -166.230469 110.90625 -182.144531 117.976562 -185.9375 C 120.25 -187.199219 122.019531 -187.453125 123.789062 -186.695312 C 127.324219 -185.683594 127.832031 -180.125 128.082031 -179.113281 C 126.0625 -154.863281 100.042969 -106.105469 72.757812 -76.546875 Z M 48.503906 -49.769531 C 42.945312 -38.652344 37.136719 -28.800781 27.285156 -22.738281 C 25.515625 -21.980469 22.988281 -21.472656 20.96875 -23.496094 C 16.671875 -27.535156 15.410156 -38.398438 21.980469 -54.316406 C 32.085938 -79.324219 48.253906 -86.148438 50.019531 -86.148438 C 52.292969 -86.148438 53.050781 -84.882812 53.558594 -84.125 C 53.808594 -83.367188 54.0625 -82.609375 54.0625 -82.105469 C 51.535156 -69.726562 49.769531 -59.117188 48.503906 -49.769531 Z M 48.503906 -49.769531 "/></g></g></g><g fill="rgb(43.919373%, 27.839661%, 3.529358%)" fill-opacity="1"><g transform="translate(415.149267, 429.979086)"><g><path d="M 91.703125 -52.292969 C 90.695312 -52.546875 89.683594 -52.042969 89.429688 -51.285156 C 85.390625 -33.347656 77.558594 -8.84375 69.472656 4.800781 C 68.460938 6.316406 65.179688 10.105469 61.136719 8.085938 C 59.621094 7.074219 57.347656 -2.777344 61.390625 -27.535156 C 64.925781 -49.261719 71.746094 -72.757812 79.832031 -90.1875 C 81.347656 -94.230469 80.335938 -99.285156 76.800781 -102.820312 L 73.011719 -106.355469 C 71.496094 -107.621094 69.726562 -108.378906 67.957031 -108.378906 C 66.1875 -108.125 64.671875 -107.367188 63.664062 -105.851562 C 59.621094 -99.03125 55.832031 -89.429688 52.546875 -78.316406 L 52.292969 -78.820312 C 50.777344 -84.882812 47.746094 -89.429688 43.199219 -91.703125 C 39.664062 -93.21875 34.359375 -93.21875 29.050781 -91.199219 C 21.726562 -88.421875 8.589844 -80.082031 1.011719 -55.074219 C -4.800781 -34.105469 -1.769531 -22.738281 1.515625 -16.671875 C 5.304688 -10.609375 10.609375 -9.09375 12.632812 -8.589844 C 13.640625 -8.335938 14.398438 -8.335938 15.410156 -8.335938 C 20.96875 -8.335938 27.535156 -11.621094 34.105469 -19.957031 C 34.105469 -20.464844 34.359375 -20.714844 34.863281 -20.96875 C 34.863281 -21.222656 35.117188 -21.222656 35.117188 -21.472656 C 38.398438 -25.515625 41.179688 -30.316406 43.957031 -36.632812 C 42.441406 -21.980469 41.429688 -0.253906 47.746094 11.117188 C 50.273438 15.410156 53.558594 17.9375 57.851562 18.441406 L 58.863281 18.441406 C 66.945312 18.441406 74.527344 7.328125 82.863281 -15.410156 C 89.179688 -32.335938 93.21875 -49.769531 93.472656 -50.019531 C 93.21875 -51.03125 92.714844 -52.042969 91.703125 -52.292969 Z M 50.019531 -68.210938 C 48.253906 -63.15625 47.242188 -58.105469 46.484375 -52.800781 C 41.683594 -39.664062 36.632812 -30.0625 31.832031 -23.496094 C 27.789062 -18.1875 22.988281 -17.9375 21.222656 -19.199219 C 18.695312 -20.464844 13.390625 -23.496094 20.464844 -52.546875 C 27.03125 -79.832031 38.90625 -84.378906 42.695312 -83.875 C 45.472656 -83.367188 48 -80.589844 49.011719 -77.808594 C 49.515625 -75.285156 50.019531 -72 50.019531 -68.210938 Z M 44.714844 -130.863281 C 42.441406 -133.136719 40.167969 -133.894531 38.652344 -132.628906 L 20.96875 -115.957031 C 19.453125 -114.945312 19.707031 -112.671875 21.472656 -110.652344 L 22.484375 -109.640625 C 23.746094 -108.378906 25.261719 -107.621094 26.273438 -108.378906 L 47.746094 -123.03125 C 48.503906 -123.535156 49.011719 -124.042969 48.757812 -124.800781 C 48.757812 -125.808594 48.503906 -126.820312 47.496094 -128.082031 Z M 44.714844 -130.863281 "/></g></g></g><g fill="rgb(43.919373%, 27.839661%, 3.529358%)" fill-opacity="1"><g transform="translate(504.825577, 429.979086)"><g><path d="M 91.199219 -51.789062 C 80.335938 -41.179688 66.441406 -29.304688 54.566406 -21.980469 C 58.863281 -27.03125 63.664062 -34.863281 67.957031 -45.980469 C 75.789062 -66.441406 76.800781 -80.839844 70.988281 -88.925781 C 68.210938 -92.96875 63.914062 -94.988281 58.609375 -94.988281 C 55.578125 -94.988281 51.285156 -92.210938 46.738281 -88.671875 L 46.230469 -88.167969 C 41.683594 -84.378906 36.882812 -79.324219 33.09375 -74.777344 C 28.042969 -68.714844 23.746094 -62.398438 20.210938 -56.335938 C 22.484375 -65.683594 25.011719 -73.769531 27.285156 -80.335938 C 29.050781 -84.882812 28.292969 -89.9375 25.011719 -93.726562 L 22.230469 -97.261719 C 20.96875 -98.777344 18.945312 -99.535156 17.179688 -99.285156 C 15.15625 -98.777344 13.640625 -97.515625 12.882812 -95.746094 C -5.558594 -49.011719 -14.398438 30.0625 -14.90625 83.875 C -14.90625 88.167969 -13.390625 91.957031 -10.863281 94.734375 C -8.84375 96.757812 -6.0625 98.019531 -3.03125 98.019531 C 0.503906 98.019531 3.535156 94.734375 3.535156 90.945312 C 3.535156 43.199219 8.84375 -1.769531 15.664062 -35.875 C 19.707031 -53.808594 36.632812 -75.285156 48.503906 -85.390625 C 48.503906 -85.390625 48.757812 -85.390625 48.757812 -85.640625 C 51.285156 -87.410156 56.335938 -88.671875 58.105469 -86.652344 C 60.125 -84.125 60.378906 -68.210938 51.535156 -49.515625 C 43.703125 -32.335938 32.335938 -19.453125 28.292969 -19.957031 C 27.03125 -20.210938 26.527344 -22.738281 26.273438 -23.746094 C 25.515625 -33.851562 33.347656 -46.738281 33.347656 -46.988281 C 33.851562 -47.746094 33.601562 -49.011719 32.84375 -49.515625 C 32.085938 -50.019531 30.820312 -49.769531 30.316406 -48.757812 C 29.808594 -48.253906 21.472656 -34.863281 22.738281 -23.496094 L 22.738281 -22.988281 C 22.988281 -20.714844 23.496094 -18.695312 24.757812 -16.671875 C 26.777344 -13.136719 30.566406 -11.117188 34.863281 -10.863281 L 35.621094 -10.863281 C 54.0625 -10.863281 87.15625 -42.695312 93.726562 -49.261719 C 94.484375 -50.019531 94.484375 -51.03125 93.976562 -51.789062 C 93.21875 -52.546875 91.957031 -52.546875 91.199219 -51.789062 Z M 91.199219 -51.789062 "/></g></g></g><g fill="rgb(43.919373%, 27.839661%, 3.529358%)" fill-opacity="1"><g transform="translate(594.754529, 429.979086)"><g><path d="M 6.316406 -6.0625 C 7.578125 -5.808594 8.84375 -5.558594 10.105469 -5.558594 C 17.683594 -5.558594 26.019531 -12.125 35.367188 -25.515625 C 43.199219 -36.882812 49.011719 -49.011719 49.011719 -49.011719 C 49.515625 -50.019531 49.011719 -51.03125 48 -51.535156 C 47.242188 -52.042969 45.980469 -51.535156 45.726562 -50.777344 C 41.179688 -40.925781 29.304688 -19.957031 18.1875 -12.125 L 17.9375 -12.125 C 16.925781 -11.367188 16.671875 -11.621094 16.421875 -11.875 C 14.652344 -12.882812 12.378906 -18.695312 13.390625 -30.566406 C 14.90625 -45.726562 21.222656 -64.671875 26.527344 -77.304688 C 28.292969 -81.347656 26.777344 -86.148438 22.988281 -88.671875 L 18.945312 -91.199219 C 17.429688 -92.210938 15.914062 -92.210938 14.398438 -91.957031 C 12.882812 -91.453125 11.621094 -90.1875 11.117188 -88.671875 C 5.304688 -75.285156 -8.335938 -30.0625 -0.503906 -12.632812 C 1.011719 -9.347656 3.285156 -7.074219 6.316406 -6.0625 Z M 27.285156 -97.769531 C 28.546875 -97.261719 29.558594 -97.261719 30.566406 -97.261719 C 32.589844 -97.261719 35.117188 -98.527344 35.875 -100.042969 L 41.683594 -109.894531 C 43.199219 -113.179688 43.453125 -115.957031 42.695312 -118.988281 C 41.429688 -122.019531 38.90625 -124.546875 35.875 -126.0625 L 35.117188 -126.316406 C 31.832031 -127.832031 28.292969 -126.566406 26.777344 -123.789062 L 20.464844 -110.148438 C 18.695312 -106.105469 20.210938 -101.558594 24.253906 -99.535156 Z M 27.285156 -97.769531 "/></g></g></g><g fill="rgb(43.919373%, 27.839661%, 3.529358%)" fill-opacity="1"><g transform="translate(640.224191, 429.979086)"><g><path d="M 94.734375 -51.535156 C 94.230469 -52.292969 92.96875 -52.800781 92.210938 -52.042969 C 91.957031 -52.042969 72.253906 -39.664062 53.808594 -43.957031 C 56.335938 -51.535156 57.347656 -59.367188 57.09375 -66.441406 C 56.335938 -79.324219 51.03125 -88.421875 41.9375 -91.703125 C 36.378906 -93.726562 30.820312 -93.472656 25.261719 -90.695312 C 14.652344 -85.136719 5.558594 -70.738281 0 -51.03125 C -4.800781 -33.851562 1.011719 -21.472656 7.832031 -15.664062 C 11.875 -12.378906 16.421875 -10.863281 21.222656 -10.863281 C 24.503906 -10.863281 27.535156 -11.621094 30.566406 -13.136719 C 40.671875 -17.9375 48.253906 -28.546875 52.546875 -40.167969 C 55.578125 -39.664062 58.609375 -39.15625 61.894531 -39.15625 C 65.179688 -39.15625 68.96875 -39.664062 72.757812 -40.421875 C 84.632812 -42.945312 93.726562 -48.757812 94.230469 -49.011719 C 94.988281 -49.515625 95.242188 -50.777344 94.734375 -51.535156 Z M 34.359375 -19.957031 C 30.316406 -16.925781 26.019531 -16.671875 22.230469 -19.199219 C 16.671875 -22.988281 12.125 -33.601562 16.925781 -51.535156 C 18.945312 -59.117188 21.980469 -65.683594 25.769531 -70.738281 C 26.019531 -65.9375 27.789062 -59.367188 34.105469 -52.042969 C 38.148438 -47.242188 42.695312 -43.703125 48.253906 -41.683594 C 48.503906 -41.429688 48.757812 -41.429688 49.011719 -41.429688 C 45.726562 -32.84375 40.671875 -25.011719 34.359375 -19.957031 Z M 50.273438 -44.96875 C 50.019531 -44.96875 49.769531 -44.96875 49.515625 -45.222656 C 45.726562 -46.738281 42.695312 -50.019531 40.925781 -54.566406 C 36.882812 -64.925781 39.410156 -78.820312 40.925781 -83.117188 C 41.683594 -83.367188 42.1875 -83.367188 42.695312 -83.367188 C 46.230469 -83.875 49.011719 -82.105469 50.527344 -78.566406 C 52.546875 -74.273438 53.304688 -69.472656 53.304688 -66.1875 C 53.808594 -59.621094 52.546875 -52.042969 50.273438 -44.96875 Z M 50.273438 -44.96875 "/></g></g></g></svg>