<svg xmlns="http://www.w3.org/2000/svg" xmlns:xlink="http://www.w3.org/1999/xlink" width="500" zoomAndPan="magnify" viewBox="0 0 375 374.999991" height="500" preserveAspectRatio="xMidYMid meet" version="1.0"><defs><g/></defs><g fill="rgb(43.919373%, 27.839661%, 3.529358%)" fill-opacity="1"><g transform="translate(10.286721, 214.989528)"><g><path d="M 51.789062 -98.527344 C 45.726562 -98.148438 35.117188 -92.460938 25.011719 -80.96875 C 16.546875 -71.367188 5.558594 -54.0625 0.882812 -26.777344 C -2.273438 -8.085938 3.789062 -1.136719 9.472656 1.261719 C 11.621094 2.273438 14.148438 2.777344 16.800781 2.777344 C 20.464844 2.777344 24.757812 1.894531 29.179688 0.125 L 30.441406 -0.503906 L 34.105469 -2.148438 C 43.703125 -7.074219 53.050781 -15.15625 60.378906 -24.757812 C 60.757812 -25.136719 60.632812 -25.640625 60.253906 -26.019531 C 59.875 -26.273438 59.242188 -26.273438 58.988281 -25.894531 C 50.527344 -14.90625 39.914062 -6.570312 30.0625 -2.273438 C 29.9375 -2.273438 29.808594 -2.273438 29.808594 -2.148438 C 25.894531 -0.378906 20.085938 0 15.535156 -3.535156 C 10.609375 -7.199219 8.84375 -14.273438 10.609375 -23.496094 C 15.789062 -52.292969 27.03125 -69.21875 35.496094 -78.316406 C 44.84375 -88.292969 53.808594 -91.957031 55.703125 -91.832031 C 58.988281 -91.453125 59.496094 -87.03125 59.621094 -86.273438 C 59.621094 -80.335938 57.472656 -73.390625 53.683594 -68.96875 C 53.429688 -68.589844 53.429688 -68.082031 53.808594 -67.703125 C 54.1875 -67.324219 54.820312 -67.453125 55.199219 -67.832031 C 59.242188 -72.503906 61.515625 -79.832031 61.390625 -86.148438 L 61.390625 -86.273438 C 61.390625 -89.179688 60.882812 -91.832031 59.746094 -93.976562 C 58.105469 -97.261719 55.324219 -98.777344 51.789062 -98.527344 Z M 51.789062 -98.527344 "/></g></g></g><g fill="rgb(43.919373%, 27.839661%, 3.529358%)" fill-opacity="1"><g transform="translate(68.765786, 214.989528)"><g><path d="M 45.851562 -26.148438 C 45.347656 -26.273438 44.84375 -26.019531 44.714844 -25.640625 C 42.945312 -16.671875 39.410156 -4.421875 35.621094 2.398438 C 34.988281 3.15625 33.347656 5.050781 31.578125 4.042969 C 30.695312 3.535156 29.429688 -1.390625 31.074219 -13.769531 C 32.464844 -24.632812 35.621094 -36.378906 39.285156 -45.09375 C 40.042969 -47.117188 39.535156 -49.640625 37.515625 -51.410156 L 35.621094 -53.179688 C 34.988281 -53.808594 33.980469 -54.1875 33.09375 -54.1875 C 32.210938 -54.0625 31.578125 -53.683594 30.945312 -52.925781 C 29.179688 -49.515625 27.285156 -44.714844 25.769531 -39.15625 L 25.769531 -39.410156 C 25.011719 -42.441406 23.242188 -44.714844 20.96875 -45.851562 C 19.199219 -46.609375 16.546875 -46.609375 13.894531 -45.601562 C 10.359375 -44.210938 3.789062 -40.042969 0.378906 -27.535156 C -2.148438 -17.050781 -0.378906 -11.367188 1.261719 -8.335938 C 3.285156 -5.304688 5.9375 -4.546875 6.949219 -4.292969 C 7.453125 -4.167969 7.832031 -4.167969 8.335938 -4.167969 C 11.117188 -4.167969 14.398438 -5.808594 17.429688 -9.980469 C 17.558594 -10.230469 17.683594 -10.359375 17.9375 -10.484375 C 17.9375 -10.609375 18.0625 -10.609375 18.0625 -10.738281 C 19.453125 -12.757812 20.84375 -15.15625 22.105469 -18.316406 C 21.601562 -10.988281 21.472656 -0.125 24.882812 5.558594 C 26.148438 7.707031 27.789062 8.96875 29.9375 9.222656 L 30.441406 9.222656 C 34.484375 9.222656 38.148438 3.664062 42.0625 -7.707031 C 44.84375 -16.167969 46.609375 -24.882812 46.738281 -25.011719 C 46.609375 -25.515625 46.359375 -26.019531 45.851562 -26.148438 Z M 24.632812 -34.105469 C 24 -31.578125 23.621094 -29.050781 23.242188 -26.398438 C 20.96875 -19.832031 18.695312 -15.03125 16.421875 -11.746094 C 14.398438 -9.09375 12 -8.96875 10.988281 -9.601562 C 9.851562 -10.230469 7.199219 -11.746094 10.230469 -26.273438 C 13.011719 -39.914062 18.945312 -42.1875 20.84375 -41.9375 C 22.230469 -41.683594 23.496094 -40.292969 24 -38.90625 C 24.378906 -37.640625 24.632812 -36 24.632812 -34.105469 Z M 24.632812 -34.105469 "/></g></g></g><g fill="rgb(43.919373%, 27.839661%, 3.529358%)" fill-opacity="1"><g transform="translate(113.603952, 214.989528)"><g><path d="M 40.292969 -26.148438 C 39.789062 -26.398438 39.285156 -26.148438 39.03125 -25.640625 C 33.980469 -15.15625 27.914062 -7.328125 22.988281 -3.15625 C 22.105469 -2.652344 21.09375 -2.148438 20.335938 -2.398438 C 20.210938 -2.398438 19.957031 -2.527344 19.707031 -3.03125 C 18.1875 -6.316406 20.464844 -17.050781 23.496094 -24.882812 C 23.875 -25.894531 23.621094 -27.03125 22.863281 -27.664062 C 22.105469 -28.421875 20.96875 -28.671875 20.085938 -28.292969 C 16.800781 -26.90625 12.125 -25.261719 8.714844 -25.390625 C 7.199219 -25.390625 6.316406 -25.769531 5.9375 -26.398438 C 4.925781 -28.042969 6.695312 -32.335938 8.085938 -35.367188 C 9.09375 -37.515625 8.589844 -40.042969 6.695312 -41.558594 L 5.558594 -42.566406 C 4.800781 -43.324219 3.664062 -43.578125 2.652344 -43.324219 C 1.640625 -43.074219 0.757812 -42.441406 0.378906 -41.429688 C -3.285156 -33.601562 -4.292969 -29.050781 -0.503906 -25.136719 C 2.652344 -21.851562 10.105469 -22.609375 13.390625 -23.117188 C 10.105469 -14.90625 8.464844 -4.925781 11.496094 -0.253906 C 12.632812 1.261719 14.148438 2.148438 16.042969 2.148438 L 16.167969 2.148438 C 18.566406 2.148438 21.472656 0.632812 24.503906 -2.019531 C 24.882812 -2.273438 25.011719 -2.527344 25.136719 -2.652344 C 30.441406 -7.328125 36.125 -15.285156 40.671875 -24.882812 C 40.925781 -25.390625 40.800781 -25.894531 40.292969 -26.148438 Z M 40.292969 -26.148438 "/></g></g></g><g fill="rgb(43.919373%, 27.839661%, 3.529358%)" fill-opacity="1"><g transform="translate(152.505793, 214.989528)"><g><path d="M 56.589844 -26.148438 C 56.210938 -26.398438 55.578125 -26.148438 55.324219 -25.769531 C 52.292969 -20.085938 44.210938 -7.453125 37.769531 -2.777344 C 37.769531 -2.652344 37.640625 -2.652344 37.640625 -2.652344 C 37.011719 -2.273438 36.125 -1.894531 35.242188 -2.527344 C 34.230469 -3.285156 29.9375 -8.085938 35.621094 -34.738281 C 50.777344 -50.019531 67.957031 -80.839844 65.683594 -93.21875 C 65.304688 -95.621094 64.042969 -97.261719 62.273438 -98.148438 C 59.621094 -99.15625 56.96875 -99.03125 54.0625 -97.640625 C 44.210938 -92.589844 34.359375 -72.757812 28.167969 -45.851562 L 27.789062 -44.335938 C 27.03125 -45.601562 26.148438 -46.738281 24.882812 -47.496094 C 22.738281 -48.882812 20.085938 -49.011719 17.179688 -47.875 C 10.230469 -45.347656 -0.253906 -34.609375 -0.632812 -19.578125 C -0.757812 -13.261719 1.640625 -10.484375 3.789062 -9.222656 C 5.179688 -8.464844 6.820312 -8.085938 8.464844 -8.085938 C 10.609375 -8.085938 12.882812 -8.714844 14.527344 -9.726562 C 18.695312 -12.253906 21.472656 -15.914062 23.875 -20.085938 C 23.242188 -11.621094 24.125 -6.0625 26.398438 -2.777344 C 27.914062 -0.632812 30.0625 0.632812 32.84375 0.882812 C 32.96875 1.011719 33.222656 1.011719 33.472656 1.011719 C 34.863281 1.011719 36.632812 0.378906 38.398438 -0.882812 C 38.527344 -1.011719 38.652344 -1.011719 38.652344 -1.136719 C 38.777344 -1.136719 38.777344 -1.136719 38.777344 -1.261719 C 41.683594 -3.285156 44.96875 -6.820312 48.503906 -11.746094 C 53.304688 -18.1875 56.96875 -24.757812 56.96875 -24.882812 C 57.21875 -25.261719 57.09375 -25.894531 56.589844 -26.148438 Z M 39.285156 -49.894531 C 48.253906 -83.117188 55.453125 -91.074219 58.988281 -92.96875 C 60.125 -93.597656 61.011719 -93.726562 61.894531 -93.347656 C 63.664062 -92.839844 63.914062 -90.0625 64.042969 -89.558594 C 63.03125 -77.429688 50.019531 -53.050781 36.378906 -38.273438 Z M 24.253906 -24.882812 C 21.472656 -19.328125 18.566406 -14.398438 13.640625 -11.367188 C 12.757812 -10.988281 11.496094 -10.738281 10.484375 -11.746094 C 8.335938 -13.769531 7.707031 -19.199219 10.988281 -27.15625 C 16.042969 -39.664062 24.125 -43.074219 25.011719 -43.074219 C 26.148438 -43.074219 26.527344 -42.441406 26.777344 -42.0625 C 26.90625 -41.683594 27.03125 -41.304688 27.03125 -41.050781 C 25.769531 -34.863281 24.882812 -29.558594 24.253906 -24.882812 Z M 24.253906 -24.882812 "/></g></g></g><g fill="rgb(43.919373%, 27.839661%, 3.529358%)" fill-opacity="1"><g transform="translate(207.574633, 214.989528)"><g><path d="M 45.851562 -26.148438 C 45.347656 -26.273438 44.84375 -26.019531 44.714844 -25.640625 C 42.695312 -16.671875 38.777344 -4.421875 34.738281 2.398438 C 34.230469 3.15625 32.589844 5.050781 30.566406 4.042969 C 29.808594 3.535156 28.671875 -1.390625 30.695312 -13.769531 C 32.464844 -24.632812 35.875 -36.378906 39.914062 -45.09375 C 40.671875 -47.117188 40.167969 -49.640625 38.398438 -51.410156 L 36.503906 -53.179688 C 35.746094 -53.808594 34.863281 -54.1875 33.980469 -54.1875 C 33.09375 -54.0625 32.335938 -53.683594 31.832031 -52.925781 C 29.808594 -49.515625 27.914062 -44.714844 26.273438 -39.15625 L 26.148438 -39.410156 C 25.390625 -42.441406 23.875 -44.714844 21.601562 -45.851562 C 19.832031 -46.609375 17.179688 -46.609375 14.527344 -45.601562 C 10.863281 -44.210938 4.292969 -40.042969 0.503906 -27.535156 C -2.398438 -17.050781 -0.882812 -11.367188 0.757812 -8.335938 C 2.652344 -5.304688 5.304688 -4.546875 6.316406 -4.292969 C 6.820312 -4.167969 7.199219 -4.167969 7.707031 -4.167969 C 10.484375 -4.167969 13.769531 -5.808594 17.050781 -9.980469 C 17.050781 -10.230469 17.179688 -10.359375 17.429688 -10.484375 C 17.429688 -10.609375 17.558594 -10.609375 17.558594 -10.738281 C 19.199219 -12.757812 20.589844 -15.15625 21.980469 -18.316406 C 21.222656 -10.988281 20.714844 -0.125 23.875 5.558594 C 25.136719 7.707031 26.777344 8.96875 28.925781 9.222656 L 29.429688 9.222656 C 33.472656 9.222656 37.261719 3.664062 41.429688 -7.707031 C 44.589844 -16.167969 46.609375 -24.882812 46.738281 -25.011719 C 46.609375 -25.515625 46.359375 -26.019531 45.851562 -26.148438 Z M 25.011719 -34.105469 C 24.125 -31.578125 23.621094 -29.050781 23.242188 -26.398438 C 20.84375 -19.832031 18.316406 -15.03125 15.914062 -11.746094 C 13.894531 -9.09375 11.496094 -8.96875 10.609375 -9.601562 C 9.347656 -10.230469 6.695312 -11.746094 10.230469 -26.273438 C 13.515625 -39.914062 19.453125 -42.1875 21.347656 -41.9375 C 22.738281 -41.683594 24 -40.292969 24.503906 -38.90625 C 24.757812 -37.640625 25.011719 -36 25.011719 -34.105469 Z M 22.359375 -65.429688 C 21.222656 -66.566406 20.085938 -66.945312 19.328125 -66.316406 L 10.484375 -57.980469 C 9.726562 -57.472656 9.851562 -56.335938 10.738281 -55.324219 L 11.242188 -54.820312 C 11.875 -54.1875 12.632812 -53.808594 13.136719 -54.1875 L 23.875 -61.515625 C 24.253906 -61.769531 24.503906 -62.019531 24.378906 -62.398438 C 24.378906 -62.90625 24.253906 -63.410156 23.746094 -64.042969 Z M 22.359375 -65.429688 "/></g></g></g><g fill="rgb(43.919373%, 27.839661%, 3.529358%)" fill-opacity="1"><g transform="translate(252.412788, 214.989528)"><g><path d="M 45.601562 -25.894531 C 40.167969 -20.589844 33.222656 -14.652344 27.285156 -10.988281 C 29.429688 -13.515625 31.832031 -17.429688 33.980469 -22.988281 C 37.894531 -33.222656 38.398438 -40.421875 35.496094 -44.460938 C 34.105469 -46.484375 31.957031 -47.496094 29.304688 -47.496094 C 27.789062 -47.496094 25.640625 -46.105469 23.367188 -44.335938 L 23.117188 -44.082031 C 20.84375 -42.1875 18.441406 -39.664062 16.546875 -37.390625 C 14.019531 -34.359375 11.875 -31.199219 10.105469 -28.167969 C 11.242188 -32.84375 12.503906 -36.882812 13.640625 -40.167969 C 14.527344 -42.441406 14.148438 -44.96875 12.503906 -46.863281 L 11.117188 -48.632812 C 10.484375 -49.390625 9.472656 -49.769531 8.589844 -49.640625 C 7.578125 -49.390625 6.820312 -48.757812 6.441406 -47.875 C -2.777344 -24.503906 -7.199219 15.03125 -7.453125 41.9375 C -7.453125 44.082031 -6.695312 45.980469 -5.429688 47.367188 C -4.421875 48.378906 -3.03125 49.011719 -1.515625 49.011719 C 0.253906 49.011719 1.769531 47.367188 1.769531 45.472656 C 1.769531 21.601562 4.421875 -0.882812 7.832031 -17.9375 C 9.851562 -26.90625 18.316406 -37.640625 24.253906 -42.695312 C 24.253906 -42.695312 24.378906 -42.695312 24.378906 -42.820312 C 25.640625 -43.703125 28.167969 -44.335938 29.050781 -43.324219 C 30.0625 -42.0625 30.1875 -34.105469 25.769531 -24.757812 C 21.851562 -16.167969 16.167969 -9.726562 14.148438 -9.980469 C 13.515625 -10.105469 13.261719 -11.367188 13.136719 -11.875 C 12.757812 -16.925781 16.671875 -23.367188 16.671875 -23.496094 C 16.925781 -23.875 16.800781 -24.503906 16.421875 -24.757812 C 16.042969 -25.011719 15.410156 -24.882812 15.15625 -24.378906 C 14.90625 -24.125 10.738281 -17.429688 11.367188 -11.746094 L 11.367188 -11.496094 C 11.496094 -10.359375 11.746094 -9.347656 12.378906 -8.335938 C 13.390625 -6.570312 15.285156 -5.558594 17.429688 -5.429688 L 17.808594 -5.429688 C 27.03125 -5.429688 43.578125 -21.347656 46.863281 -24.632812 C 47.242188 -25.011719 47.242188 -25.515625 46.988281 -25.894531 C 46.609375 -26.273438 45.980469 -26.273438 45.601562 -25.894531 Z M 45.601562 -25.894531 "/></g></g></g><g fill="rgb(43.919373%, 27.839661%, 3.529358%)" fill-opacity="1"><g transform="translate(297.377262, 214.989528)"><g><path d="M 3.15625 -3.03125 C 3.789062 -2.90625 4.421875 -2.777344 5.050781 -2.777344 C 8.84375 -2.777344 13.011719 -6.0625 17.683594 -12.757812 C 21.601562 -18.441406 24.503906 -24.503906 24.503906 -24.503906 C 24.757812 -25.011719 24.503906 -25.515625 24 -25.769531 C 23.621094 -26.019531 22.988281 -25.769531 22.863281 -25.390625 C 20.589844 -20.464844 14.652344 -9.980469 9.09375 -6.0625 L 8.96875 -6.0625 C 8.464844 -5.683594 8.335938 -5.808594 8.210938 -5.9375 C 7.328125 -6.441406 6.1875 -9.347656 6.695312 -15.285156 C 7.453125 -22.863281 10.609375 -32.335938 13.261719 -38.652344 C 14.148438 -40.671875 13.390625 -43.074219 11.496094 -44.335938 L 9.472656 -45.601562 C 8.714844 -46.105469 7.957031 -46.105469 7.199219 -45.980469 C 6.441406 -45.726562 5.808594 -45.09375 5.558594 -44.335938 C 2.652344 -37.640625 -4.167969 -15.03125 -0.253906 -6.316406 C 0.503906 -4.671875 1.640625 -3.535156 3.15625 -3.03125 Z M 13.640625 -48.882812 C 14.273438 -48.632812 14.777344 -48.632812 15.285156 -48.632812 C 16.292969 -48.632812 17.558594 -49.261719 17.9375 -50.019531 L 20.84375 -54.945312 C 21.601562 -56.589844 21.726562 -57.980469 21.347656 -59.496094 C 20.714844 -61.011719 19.453125 -62.273438 17.9375 -63.03125 L 17.558594 -63.15625 C 15.914062 -63.914062 14.148438 -63.285156 13.390625 -61.894531 L 10.230469 -55.074219 C 9.347656 -53.050781 10.105469 -50.777344 12.125 -49.769531 Z M 13.640625 -48.882812 "/></g></g></g><g fill="rgb(43.919373%, 27.839661%, 3.529358%)" fill-opacity="1"><g transform="translate(320.112093, 214.989528)"><g><path d="M 47.367188 -25.769531 C 47.117188 -26.148438 46.484375 -26.398438 46.105469 -26.019531 C 45.980469 -26.019531 36.125 -19.832031 26.90625 -21.980469 C 28.167969 -25.769531 28.671875 -29.683594 28.546875 -33.222656 C 28.167969 -39.664062 25.515625 -44.210938 20.96875 -45.851562 C 18.1875 -46.863281 15.410156 -46.738281 12.632812 -45.347656 C 7.328125 -42.566406 2.777344 -35.367188 0 -25.515625 C -2.398438 -16.925781 0.503906 -10.738281 3.914062 -7.832031 C 5.9375 -6.1875 8.210938 -5.429688 10.609375 -5.429688 C 12.253906 -5.429688 13.769531 -5.808594 15.285156 -6.570312 C 20.335938 -8.96875 24.125 -14.273438 26.273438 -20.085938 C 27.789062 -19.832031 29.304688 -19.578125 30.945312 -19.578125 C 32.589844 -19.578125 34.484375 -19.832031 36.378906 -20.210938 C 42.316406 -21.472656 46.863281 -24.378906 47.117188 -24.503906 C 47.496094 -24.757812 47.621094 -25.390625 47.367188 -25.769531 Z M 17.179688 -9.980469 C 15.15625 -8.464844 13.011719 -8.335938 11.117188 -9.601562 C 8.335938 -11.496094 6.0625 -16.800781 8.464844 -25.769531 C 9.472656 -29.558594 10.988281 -32.84375 12.882812 -35.367188 C 13.011719 -32.96875 13.894531 -29.683594 17.050781 -26.019531 C 19.074219 -23.621094 21.347656 -21.851562 24.125 -20.84375 C 24.253906 -20.714844 24.378906 -20.714844 24.503906 -20.714844 C 22.863281 -16.421875 20.335938 -12.503906 17.179688 -9.980469 Z M 25.136719 -22.484375 C 25.011719 -22.484375 24.882812 -22.484375 24.757812 -22.609375 C 22.863281 -23.367188 21.347656 -25.011719 20.464844 -27.285156 C 18.441406 -32.464844 19.707031 -39.410156 20.464844 -41.558594 C 20.84375 -41.683594 21.09375 -41.683594 21.347656 -41.683594 C 23.117188 -41.9375 24.503906 -41.050781 25.261719 -39.285156 C 26.273438 -37.136719 26.652344 -34.738281 26.652344 -33.09375 C 26.90625 -29.808594 26.273438 -26.019531 25.136719 -22.484375 Z M 25.136719 -22.484375 "/></g></g></g></svg>