<svg xmlns="http://www.w3.org/2000/svg" xmlns:xlink="http://www.w3.org/1999/xlink" width="500" zoomAndPan="magnify" viewBox="0 0 375 374.999991" height="500" preserveAspectRatio="xMidYMid meet" version="1.0"><defs><clipPath id="id1"><path d="M 7.570312 83.683594 L 367.570312 83.683594 L 367.570312 291.378906 L 7.570312 291.378906 Z M 7.570312 83.683594 " clip-rule="nonzero"/></clipPath><clipPath id="id2"><path d="M 11 83.660156 L 363 83.660156 L 363 287 L 11 287 Z M 11 83.660156 " clip-rule="nonzero"/></clipPath></defs><g clip-path="url(#id1)"><path fill="rgb(97.648621%, 68.629456%, 14.898682%)" d="M 82.722656 138.683594 C 85.175781 137.8125 92.53125 137.109375 94.316406 135.320312 C 104.160156 125.476562 114.628906 118.746094 124.183594 114.132812 C 142.589844 105.242188 157.496094 104.289062 157.496094 104.289062 C 167.304688 96.894531 179.1875 91.992188 192.105469 88.875 C 207.433594 85.136719 224.257812 83.847656 240.792969 83.726562 C 240.792969 83.726562 240.792969 83.726562 240.835938 83.726562 C 258.363281 83.558594 275.605469 84.679688 290.558594 85.46875 C 292.054688 85.554688 293.46875 85.636719 294.878906 85.761719 C 332.765625 89.042969 348.757812 107.074219 348.757812 107.074219 C 418.09375 179.6875 275.105469 239.007812 252.921875 248.6875 C 230.738281 258.414062 118.203125 299.410156 54.472656 289.984375 C 27.101562 285.953125 11.066406 267.175781 8.035156 240.378906 C 6.746094 228.996094 8.199219 218.03125 11.648438 207.730469 C 16.214844 194.230469 24.234375 181.847656 34.246094 171.175781 C 40.476562 164.484375 47.5 158.460938 54.890625 153.3125 C 63.492188 147.289062 72.839844 142.257812 82.722656 138.6875 " fill-opacity="1" fill-rule="nonzero"/></g><g clip-path="url(#id2)"><path fill="rgb(42.749023%, 26.669312%, 1.959229%)" d="M 247.9375 90.039062 C 255.746094 92.28125 263.515625 94.816406 271.117188 97.640625 C 278.71875 100.425781 286.03125 104.121094 293.714844 106.613281 C 294.339844 106.824219 294.671875 105.949219 294.132812 105.574219 C 280.839844 96.769531 263.558594 92.324219 248.144531 89.210938 C 247.648438 89.125 247.4375 89.871094 247.9375 90.039062 Z M 44.425781 203.367188 C 61.042969 201.617188 77.285156 202.988281 93.816406 205.105469 C 102.125 206.144531 110.476562 207.183594 118.742188 208.722656 C 126.675781 210.222656 134.234375 212.75 142.007812 214.789062 C 143.046875 215.078125 143.710938 213.542969 142.75 213.042969 C 128.960938 205.730469 111.308594 204.980469 96.015625 203.238281 C 78.90625 201.289062 61.375 199.582031 44.257812 202.121094 C 43.59375 202.242188 43.71875 203.445312 44.425781 203.367188 Z M 110.394531 145.039062 C 132.660156 145.246094 154.175781 150.230469 174.992188 158 C 195.761719 165.769531 214.910156 176.691406 235.058594 185.789062 C 235.890625 186.164062 236.597656 185.042969 235.765625 184.542969 C 216.65625 173.457031 196.175781 163.9375 175.449219 156.335938 C 154.636719 148.691406 132.617188 143.667969 110.394531 143.832031 C 109.644531 143.875 109.644531 145.039062 110.394531 145.039062 Z M 198.046875 115.875 C 214.289062 118.785156 230.488281 123.394531 245.945312 129.167969 C 262.269531 135.238281 276.765625 143.960938 292.34375 151.476562 C 293.425781 152.015625 294.257812 150.5625 293.300781 149.855469 C 280.132812 140.136719 263.683594 133.574219 248.4375 127.878906 C 232.109375 121.773438 215.492188 117.789062 198.296875 114.964844 C 197.714844 114.878906 197.464844 115.75 198.046875 115.875 Z M 357.773438 128.796875 C 360.265625 135.566406 361.679688 142.714844 360.765625 149.898438 C 359.890625 156.792969 356.734375 162.484375 354.285156 168.839844 C 353.953125 169.71875 355.238281 170.132812 355.738281 169.464844 C 364.128906 157.789062 365.125 141.089844 358.5625 128.503906 C 358.3125 128.089844 357.609375 128.382812 357.773438 128.796875 Z M 25.480469 247.480469 C 26.3125 250.222656 27.601562 252.800781 29.347656 255.125 C 30.757812 257.035156 32.460938 259.320312 34.703125 260.277344 C 35.371094 260.523438 35.910156 259.65625 35.578125 259.152344 C 34.332031 257.035156 32.171875 255.414062 30.71875 253.425781 C 29.222656 251.347656 28.015625 249.183594 26.894531 246.898438 C 26.480469 246.066406 25.191406 246.648438 25.480469 247.480469 Z M 14.140625 233.855469 C 14.804688 248.976562 23.902344 268.378906 39.523438 273.277344 C 40.0625 273.441406 40.601562 272.652344 40.105469 272.238281 C 34 267.210938 28.058594 263.433594 23.53125 256.703125 C 18.960938 249.929688 16.09375 242 15.386719 233.8125 C 15.304688 233.105469 14.101562 233.070312 14.140625 233.855469 Z M 257.078125 220.8125 C 248.144531 225.710938 238.882812 229.492188 229.699219 233.855469 C 228.996094 234.1875 229.492188 235.390625 230.242188 235.144531 C 239.796875 231.859375 248.894531 226.792969 257.617188 221.765625 C 258.28125 221.390625 257.699219 220.4375 257.078125 220.8125 Z M 289.644531 211.917969 C 271.449219 221.929688 252.671875 230.90625 233.355469 238.507812 C 214.539062 245.902344 195.054688 250.59375 176.027344 257.199219 C 175.152344 257.492188 175.488281 258.738281 176.398438 258.570312 C 196.589844 255.164062 216.824219 246.898438 235.683594 239.128906 C 254.335938 231.445312 272.40625 222.511719 289.894531 212.375 C 290.183594 212.210938 289.9375 211.753906 289.644531 211.917969 Z M 345.851562 180.679688 C 291.140625 231.238281 218.941406 255.457031 147.488281 271.199219 C 125.390625 276.066406 103.121094 280.089844 80.980469 284.582031 C 79.484375 284.867188 80.152344 287.074219 81.605469 286.820312 C 156.753906 274.023438 234.5625 257.742188 300.195312 217.152344 C 316.855469 206.851562 332.433594 195.011719 346.640625 181.511719 C 347.222656 181.011719 346.390625 180.183594 345.851562 180.679688 Z M 294.960938 85.757812 C 293.550781 85.632812 292.097656 85.550781 290.601562 85.46875 C 273.691406 84.511719 257.160156 83.761719 240.875 83.679688 C 262.0625 88.414062 287.109375 96.269531 313.613281 109.519531 C 323.625 114.546875 332.765625 119.777344 341.074219 125.054688 C 338.164062 120.15625 334.300781 114.585938 329.109375 109.019531 C 317.0625 96.058594 303.726562 89.289062 294.960938 85.757812 Z M 192.1875 88.871094 C 179.269531 92.03125 167.386719 96.890625 157.585938 104.285156 C 157.585938 104.285156 257.90625 109.808594 317.230469 154.71875 C 317.230469 154.71875 289.976562 104.492188 192.1875 88.875 Z M 124.261719 114.128906 C 114.707031 118.742188 104.203125 125.472656 94.398438 135.316406 C 174.738281 131.453125 263.765625 193.679688 265.136719 194.640625 C 221.601562 112.054688 125.554688 114.085938 124.261719 114.132812 Z M 184.707031 221.265625 C 184.707031 221.265625 70.84375 167.054688 11.648438 207.730469 C 16.214844 194.226562 24.234375 181.84375 34.246094 171.171875 C 35.617188 170.628906 129.128906 132.660156 184.707031 221.265625 " fill-opacity="1" fill-rule="nonzero"/></g><path fill="rgb(97.648621%, 68.629456%, 14.898682%)" d="M 319.097656 109.441406 C 311.828125 103.417969 301.734375 97.519531 292.34375 95.6875 C 291.597656 95.523438 291.015625 96.605469 291.804688 97.019531 C 295.917969 99.304688 300.738281 100.382812 305.097656 102.210938 C 309.960938 104.246094 314.570312 106.699219 318.808594 109.855469 C 319.015625 109.980469 319.304688 109.605469 319.097656 109.441406 Z M 330.148438 115.546875 C 326.785156 108.734375 321.050781 104.414062 314.902344 100.175781 C 307.964844 95.398438 299.617188 89.167969 291.222656 87.589844 C 290.351562 87.421875 289.894531 88.503906 290.640625 89 C 297 93.402344 304.933594 95.8125 311.578125 99.800781 C 318.433594 103.914062 325.660156 108.691406 329.609375 115.878906 C 329.773438 116.25 330.316406 115.921875 330.148438 115.546875 Z M 238.132812 113.59375 C 229.824219 110.976562 221.226562 108.277344 212.628906 106.949219 C 211.921875 106.824219 211.546875 107.859375 212.292969 108.070312 C 220.8125 110.351562 229.410156 112.058594 237.84375 114.550781 C 238.464844 114.757812 238.757812 113.800781 238.132812 113.59375 Z M 292.925781 134.738281 C 288.109375 127.882812 280.839844 124.394531 273.484375 120.78125 C 264.761719 116.503906 255.957031 112.347656 246.980469 108.527344 C 230.199219 101.339844 211.007812 94.898438 192.480469 96.105469 C 190.984375 96.1875 190.984375 98.347656 192.480469 98.429688 C 211.046875 99.46875 227.914062 103.25 245.195312 110.105469 C 253.835938 113.550781 262.269531 117.539062 270.660156 121.570312 C 278.386719 125.308594 286.320312 128.800781 292.011719 135.484375 C 292.429688 135.984375 293.34375 135.320312 292.925781 134.738281 Z M 194.929688 146.25 C 184.960938 143.339844 175.03125 140.015625 164.9375 137.5625 C 163.9375 137.316406 163.519531 138.808594 164.523438 139.097656 C 174.410156 142.257812 184.585938 144.664062 194.640625 147.367188 C 195.347656 147.574219 195.636719 146.457031 194.929688 146.25 Z M 244.074219 172.457031 C 227.789062 157.625 209.304688 145.703125 189.324219 136.441406 C 170.296875 127.632812 148.734375 120.242188 127.585938 119.492188 C 126.511719 119.453125 126.21875 121.195312 127.34375 121.445312 C 148.613281 125.683594 169.257812 129.632812 189.324219 138.355469 C 209.097656 146.949219 227.25 158.957031 243.410156 173.164062 C 243.867188 173.539062 244.53125 172.871094 244.074219 172.457031 Z M 105.65625 185.667969 C 100.257812 183.921875 93.730469 182.675781 88.121094 184.257812 C 87.460938 184.421875 87.628906 185.417969 88.292969 185.417969 C 94.191406 185.503906 99.546875 185.089844 105.40625 186.542969 C 105.984375 186.707031 106.191406 185.832031 105.65625 185.667969 Z M 160.160156 204.359375 C 160.449219 204.824219 159.746094 205.238281 159.414062 204.777344 C 146.535156 187.375 123.1875 179.933594 102.664062 176.488281 C 80.816406 172.789062 59.753906 175.488281 38.441406 180.765625 C 36.488281 181.265625 35.824219 178.523438 37.609375 177.820312 C 58.714844 169.632812 83.472656 169.425781 105.40625 174.082031 C 125.054688 178.234375 148.609375 186.914062 160.160156 204.359375 " fill-opacity="1" fill-rule="nonzero"/></svg>