<svg xmlns="http://www.w3.org/2000/svg" xmlns:xlink="http://www.w3.org/1999/xlink" width="1000" zoomAndPan="magnify" viewBox="0 0 750 374.999991" height="500" preserveAspectRatio="xMidYMid meet" version="1.0"><defs><g/></defs><g fill="rgb(43.919373%, 27.839661%, 3.529358%)" fill-opacity="1"><g transform="translate(175.291092, 263.364574)"><g><path d="M 276.515625 -220.191406 C 276.515625 -221.148438 276.515625 -222.109375 276.515625 -222.75 C 276.195312 -223.070312 276.195312 -223.390625 276.195312 -223.390625 C 275.878906 -223.710938 275.878906 -223.710938 275.878906 -223.710938 C 276.515625 -225.308594 275.238281 -226.589844 275.558594 -227.871094 C 275.878906 -228.191406 275.878906 -228.511719 275.878906 -228.511719 C 275.558594 -230.109375 274.277344 -231.390625 275.238281 -232.992188 C 274.597656 -234.589844 274.277344 -236.191406 272.675781 -237.472656 C 272.355469 -238.113281 272.355469 -239.070312 272.035156 -239.710938 C 271.398438 -240.351562 271.078125 -240.992188 270.117188 -241.3125 C 269.476562 -241.632812 268.835938 -242.59375 268.515625 -243.234375 C 268.195312 -242.914062 267.875 -242.914062 267.554688 -242.914062 C 267.554688 -243.234375 267.234375 -243.554688 267.234375 -243.871094 C 264.675781 -243.871094 262.117188 -243.871094 259.554688 -243.871094 C 258.914062 -243.554688 258.59375 -243.234375 258.273438 -242.914062 C 257.316406 -242.914062 256.355469 -242.914062 255.394531 -242.914062 C 254.433594 -242.59375 253.792969 -241.632812 252.515625 -240.992188 C 251.234375 -240.351562 250.273438 -240.03125 248.671875 -240.03125 C 248.035156 -240.03125 247.714844 -239.710938 247.714844 -239.070312 C 245.792969 -238.753906 244.832031 -236.832031 242.59375 -236.191406 C 242.59375 -236.191406 242.273438 -236.511719 242.273438 -236.511719 C 241.953125 -236.191406 241.953125 -235.871094 241.632812 -235.550781 C 240.992188 -235.550781 240.03125 -235.230469 239.390625 -235.230469 C 239.390625 -234.910156 239.390625 -234.589844 239.070312 -234.273438 C 238.753906 -234.273438 238.433594 -234.273438 238.113281 -233.953125 C 237.152344 -232.992188 236.511719 -232.351562 235.230469 -232.03125 C 233.953125 -231.710938 232.992188 -231.070312 232.351562 -229.472656 C 231.070312 -229.472656 229.789062 -229.472656 228.832031 -227.871094 C 227.871094 -227.871094 226.910156 -227.230469 226.589844 -226.269531 C 225.628906 -225.949219 224.992188 -225.628906 224.351562 -225.308594 C 223.390625 -224.992188 223.070312 -224.671875 222.109375 -223.710938 C 221.46875 -222.75 220.507812 -221.789062 219.230469 -221.46875 C 219.230469 -221.148438 219.230469 -220.828125 219.230469 -220.507812 C 218.589844 -220.191406 218.269531 -220.191406 217.628906 -220.191406 C 217.308594 -219.550781 216.667969 -219.230469 216.347656 -218.910156 C 214.109375 -218.269531 212.1875 -216.667969 209.949219 -215.710938 C 208.667969 -215.070312 207.707031 -214.109375 206.746094 -213.148438 C 206.746094 -212.828125 206.429688 -212.507812 206.429688 -212.507812 C 206.109375 -212.507812 205.789062 -212.1875 205.148438 -212.1875 C 204.507812 -210.910156 203.226562 -210.269531 201.945312 -209.628906 C 201.628906 -209.628906 201.308594 -209.308594 200.988281 -209.308594 C 200.027344 -208.667969 199.386719 -208.347656 198.425781 -208.027344 C 197.464844 -207.386719 196.507812 -206.109375 195.226562 -205.148438 C 193.945312 -204.1875 192.984375 -203.546875 191.707031 -202.585938 C 190.425781 -201.628906 189.144531 -201.308594 188.183594 -200.347656 C 187.546875 -199.386719 186.585938 -198.746094 185.625 -198.105469 C 184.34375 -197.148438 183.066406 -196.1875 181.785156 -195.226562 C 181.464844 -194.90625 181.464844 -194.265625 181.464844 -193.945312 C 180.824219 -194.265625 180.503906 -194.265625 179.863281 -194.265625 C 179.542969 -193.945312 178.902344 -193.304688 178.585938 -192.664062 C 177.304688 -192.027344 176.34375 -191.386719 175.0625 -190.746094 C 174.421875 -190.425781 173.785156 -190.105469 173.144531 -189.464844 C 172.503906 -188.503906 171.542969 -187.546875 170.582031 -187.226562 C 169.621094 -186.90625 169.621094 -185.945312 168.664062 -185.625 C 168.664062 -184.664062 167.703125 -184.664062 167.0625 -184.023438 C 166.421875 -183.703125 165.460938 -183.703125 165.460938 -182.746094 C 164.183594 -182.425781 163.542969 -181.144531 162.261719 -180.503906 C 161.300781 -180.183594 160.660156 -179.222656 159.703125 -178.585938 C 158.742188 -177.945312 158.421875 -177.625 158.101562 -176.984375 C 157.460938 -176.023438 156.5 -175.0625 155.539062 -175.0625 C 154.261719 -174.421875 153.621094 -173.785156 152.660156 -173.144531 C 152.339844 -172.824219 152.019531 -172.183594 151.378906 -171.863281 C 150.742188 -171.222656 150.421875 -169.941406 149.460938 -169.941406 C 148.5 -168.984375 147.859375 -168.023438 146.898438 -167.703125 C 146.578125 -167.382812 146.257812 -167.382812 146.257812 -167.0625 C 145.621094 -166.101562 144.980469 -165.78125 144.019531 -165.460938 C 142.738281 -164.183594 141.140625 -163.222656 139.859375 -161.941406 C 139.859375 -161.621094 139.539062 -161.621094 138.898438 -161.621094 C 138.898438 -161.621094 138.898438 -161.941406 138.898438 -162.261719 C 138.898438 -162.261719 138.578125 -161.941406 138.578125 -161.941406 C 138.898438 -161.621094 138.898438 -161.300781 138.898438 -160.660156 C 138.257812 -160.339844 137.296875 -159.703125 136.339844 -159.382812 C 136.339844 -159.0625 136.339844 -158.742188 136.660156 -158.101562 C 135.378906 -158.101562 134.738281 -157.140625 134.097656 -156.179688 C 133.136719 -156.179688 132.816406 -156.179688 132.816406 -157.140625 C 133.457031 -157.78125 134.097656 -158.421875 134.738281 -159.382812 C 134.738281 -159.703125 134.738281 -160.023438 135.058594 -160.660156 C 135.378906 -160.660156 135.699219 -160.980469 136.339844 -160.980469 C 136.339844 -161.621094 136.660156 -161.941406 136.660156 -161.941406 C 137.296875 -162.582031 137.9375 -162.902344 138.578125 -163.222656 C 138.898438 -163.542969 139.859375 -163.542969 140.5 -163.863281 C 140.179688 -163.863281 139.859375 -164.183594 139.859375 -164.183594 C 140.179688 -165.78125 141.777344 -168.664062 143.058594 -169.304688 C 143.058594 -169.621094 143.058594 -169.621094 143.058594 -169.941406 C 143.378906 -170.261719 143.699219 -170.261719 144.019531 -170.261719 C 144.339844 -170.902344 144.339844 -171.542969 144.660156 -172.183594 C 145.941406 -173.464844 147.539062 -174.421875 147.859375 -176.34375 C 148.5 -176.984375 149.140625 -177.304688 149.78125 -177.625 C 149.78125 -178.265625 150.101562 -178.902344 150.421875 -179.542969 C 151.058594 -179.863281 152.019531 -180.183594 152.339844 -180.503906 C 153.300781 -181.464844 153.941406 -182.425781 154.261719 -183.066406 C 154.261719 -183.066406 154.261719 -183.382812 154.261719 -183.703125 C 154.582031 -183.703125 155.222656 -184.023438 155.222656 -184.023438 C 155.539062 -184.664062 155.539062 -184.984375 155.539062 -185.625 C 156.179688 -185.945312 157.140625 -186.265625 157.78125 -186.585938 C 157.78125 -187.226562 157.78125 -187.867188 157.78125 -188.824219 C 159.382812 -189.785156 159.382812 -191.707031 160.660156 -192.347656 C 161.300781 -192.984375 161.621094 -193.625 162.261719 -194.265625 C 162.582031 -194.90625 162.582031 -195.867188 162.902344 -195.867188 C 164.503906 -197.148438 164.503906 -199.386719 166.101562 -200.347656 C 166.101562 -200.347656 166.421875 -200.347656 166.421875 -200.667969 C 166.421875 -201.628906 166.742188 -202.585938 167.703125 -203.226562 C 168.34375 -203.867188 168.984375 -204.828125 169.621094 -205.46875 C 169.621094 -205.46875 169.621094 -205.789062 169.621094 -205.46875 C 169.941406 -206.746094 170.261719 -208.027344 170.261719 -208.988281 C 169.941406 -209.949219 169.621094 -210.589844 169.621094 -211.546875 C 169.304688 -213.148438 168.664062 -214.429688 167.382812 -215.070312 C 166.742188 -215.070312 166.101562 -214.75 165.140625 -214.75 C 163.863281 -214.75 162.582031 -214.109375 161.941406 -212.828125 C 161.621094 -211.226562 160.980469 -209.949219 160.023438 -208.667969 C 159.382812 -208.347656 159.0625 -208.027344 158.421875 -208.027344 C 158.742188 -207.386719 158.742188 -207.386719 158.742188 -207.066406 C 158.421875 -206.429688 157.78125 -206.429688 157.460938 -206.109375 C 157.460938 -205.46875 157.460938 -205.148438 157.460938 -204.828125 C 156.179688 -203.867188 155.222656 -202.90625 154.261719 -201.945312 C 154.582031 -201.308594 154.902344 -200.988281 155.222656 -200.667969 C 154.902344 -200.027344 154.902344 -199.707031 154.902344 -199.386719 C 154.902344 -199.066406 154.902344 -199.066406 155.222656 -199.066406 C 155.539062 -199.386719 155.859375 -199.707031 156.179688 -200.347656 C 156.179688 -199.707031 156.179688 -199.066406 156.179688 -198.746094 C 155.859375 -198.105469 155.222656 -197.785156 154.582031 -197.148438 C 154.902344 -196.1875 153.621094 -195.546875 153.300781 -195.226562 C 153.300781 -193.945312 153.300781 -192.984375 152.980469 -192.027344 C 152.019531 -191.066406 151.699219 -190.105469 150.742188 -189.144531 C 149.78125 -187.546875 148.5 -185.945312 147.539062 -184.023438 C 146.257812 -182.425781 145.300781 -180.183594 143.378906 -179.542969 C 142.738281 -178.265625 142.097656 -177.304688 141.460938 -176.34375 C 141.140625 -176.34375 140.820312 -176.34375 140.820312 -176.34375 C 140.820312 -175.703125 140.5 -175.382812 140.5 -175.382812 C 139.859375 -174.742188 139.539062 -174.101562 139.21875 -173.464844 C 138.578125 -173.144531 137.9375 -172.824219 137.296875 -172.183594 C 136.976562 -171.863281 136.660156 -171.542969 136.660156 -170.902344 C 136.660156 -170.902344 136.660156 -170.582031 136.339844 -170.261719 C 135.378906 -169.621094 135.378906 -168.34375 134.097656 -167.382812 C 132.496094 -165.78125 130.898438 -163.863281 129.296875 -161.941406 C 129.296875 -161.621094 129.296875 -161.300781 129.296875 -160.980469 C 128.65625 -160.339844 128.335938 -159.703125 127.695312 -159.382812 C 126.738281 -158.742188 126.417969 -158.101562 125.777344 -157.140625 C 125.457031 -156.820312 125.457031 -156.179688 124.816406 -155.859375 C 123.855469 -155.539062 123.214844 -154.261719 122.898438 -153.300781 C 122.578125 -152.019531 121.9375 -151.378906 120.976562 -150.742188 C 120.65625 -150.421875 120.335938 -149.78125 120.015625 -149.460938 C 118.734375 -148.5 118.414062 -146.898438 117.136719 -145.941406 C 115.855469 -143.699219 113.296875 -142.097656 112.335938 -139.859375 C 111.375 -139.539062 111.375 -138.578125 111.054688 -137.9375 C 110.09375 -137.9375 109.453125 -136.976562 109.132812 -136.019531 C 108.816406 -135.378906 108.496094 -135.058594 108.175781 -135.058594 C 107.535156 -133.457031 106.894531 -132.496094 106.253906 -131.539062 C 105.933594 -131.21875 105.613281 -130.898438 105.613281 -130.898438 C 104.652344 -130.257812 104.015625 -129.617188 103.695312 -128.976562 C 103.054688 -127.378906 101.773438 -126.738281 100.8125 -125.777344 C 99.535156 -124.816406 98.253906 -123.855469 97.292969 -122.257812 C 96.972656 -121.9375 96.652344 -121.617188 96.332031 -121.296875 C 96.011719 -121.296875 95.691406 -120.976562 95.371094 -120.65625 C 94.09375 -119.054688 92.8125 -117.457031 90.890625 -116.175781 C 89.933594 -115.535156 88.972656 -114.894531 88.652344 -113.933594 C 88.332031 -113.296875 88.011719 -112.65625 87.371094 -112.015625 C 86.410156 -111.695312 86.410156 -110.09375 85.132812 -110.414062 C 84.8125 -109.773438 84.8125 -109.453125 84.492188 -109.132812 C 82.890625 -108.175781 81.609375 -106.574219 80.011719 -105.292969 C 78.730469 -104.015625 77.449219 -102.414062 76.171875 -100.8125 C 74.890625 -99.535156 73.289062 -98.253906 72.007812 -96.652344 C 70.730469 -95.371094 69.449219 -93.773438 68.167969 -92.492188 C 68.167969 -91.851562 68.167969 -91.53125 68.167969 -91.210938 C 67.527344 -90.890625 66.570312 -90.570312 66.25 -90.253906 C 65.609375 -89.613281 64.96875 -88.972656 64.328125 -88.332031 C 63.367188 -87.050781 62.089844 -86.089844 60.808594 -84.8125 C 59.847656 -83.53125 58.246094 -82.570312 57.609375 -80.972656 C 56.648438 -80.652344 55.6875 -79.691406 55.367188 -78.410156 C 53.765625 -77.769531 53.128906 -76.171875 51.847656 -74.890625 C 51.847656 -74.890625 51.207031 -74.890625 50.886719 -74.890625 C 51.207031 -75.53125 51.207031 -75.851562 51.527344 -76.171875 C 51.207031 -76.808594 50.886719 -77.449219 50.886719 -77.769531 C 50.886719 -79.691406 51.207031 -81.289062 50.566406 -82.570312 C 51.207031 -83.210938 51.207031 -83.53125 51.527344 -83.851562 C 51.527344 -85.453125 51.527344 -87.050781 51.847656 -88.652344 C 52.488281 -90.253906 52.808594 -91.851562 52.808594 -93.453125 C 53.128906 -93.773438 53.445312 -93.773438 53.765625 -93.773438 C 54.085938 -95.054688 54.085938 -96.652344 55.367188 -97.292969 C 55.367188 -97.613281 55.046875 -97.933594 55.046875 -98.253906 C 55.6875 -99.535156 56.007812 -100.8125 56.328125 -102.09375 C 56.648438 -102.414062 56.96875 -102.414062 57.289062 -102.414062 C 57.289062 -103.375 57.289062 -104.015625 56.96875 -104.652344 C 57.929688 -105.933594 58.886719 -107.214844 59.847656 -108.496094 C 59.847656 -108.816406 59.847656 -109.132812 60.167969 -109.453125 C 60.808594 -110.734375 61.449219 -112.335938 62.410156 -113.617188 C 63.367188 -114.574219 64.328125 -115.855469 63.6875 -117.777344 C 64.328125 -118.097656 64.648438 -118.414062 65.289062 -118.414062 C 64.96875 -119.054688 64.96875 -119.375 64.96875 -119.695312 C 65.289062 -120.015625 65.609375 -120.335938 65.929688 -120.335938 C 67.527344 -122.578125 68.808594 -124.496094 70.089844 -126.417969 C 70.089844 -127.378906 69.769531 -128.015625 69.769531 -128.65625 C 72.007812 -128.976562 72.96875 -130.257812 72.96875 -131.859375 C 73.289062 -131.859375 73.609375 -132.179688 73.929688 -132.179688 C 74.25 -132.816406 74.25 -133.457031 74.890625 -133.777344 C 75.53125 -134.738281 76.808594 -135.699219 77.769531 -136.339844 C 78.730469 -137.296875 79.691406 -138.257812 80.332031 -139.539062 C 80.332031 -139.859375 80.011719 -140.5 80.011719 -140.820312 C 80.332031 -141.460938 80.652344 -142.097656 80.972656 -142.738281 C 84.171875 -144.019531 86.410156 -146.898438 88.332031 -148.820312 C 88.011719 -149.460938 87.691406 -150.101562 87.691406 -150.742188 C 87.371094 -150.742188 87.371094 -150.742188 87.371094 -150.421875 C 87.050781 -149.78125 87.050781 -149.460938 87.050781 -148.820312 C 86.410156 -148.820312 85.773438 -148.5 85.132812 -148.5 C 84.8125 -147.859375 84.492188 -147.21875 84.171875 -146.898438 C 83.53125 -146.257812 82.570312 -145.941406 82.25 -145.300781 C 81.609375 -144.019531 80.652344 -143.378906 79.050781 -143.058594 C 79.371094 -142.417969 79.050781 -142.097656 78.730469 -141.460938 C 78.410156 -141.140625 78.089844 -140.820312 78.089844 -140.5 C 77.128906 -139.539062 76.492188 -138.898438 75.53125 -138.257812 C 75.53125 -137.9375 74.890625 -137.9375 74.570312 -137.617188 C 73.929688 -136.660156 72.96875 -136.019531 72.96875 -135.058594 C 72.328125 -133.777344 71.371094 -133.136719 70.089844 -132.496094 C 69.769531 -130.898438 67.847656 -130.257812 68.167969 -128.335938 C 67.527344 -128.015625 67.210938 -128.015625 66.890625 -128.015625 C 66.25 -126.738281 65.609375 -125.777344 64.96875 -125.136719 C 64.96875 -124.816406 64.96875 -124.816406 64.96875 -124.816406 C 64.328125 -123.855469 63.367188 -122.898438 62.726562 -121.9375 C 62.726562 -121.617188 62.726562 -121.296875 62.726562 -121.296875 C 61.449219 -120.335938 60.808594 -119.375 60.167969 -119.054688 C 59.527344 -117.136719 58.566406 -115.855469 57.289062 -114.253906 C 57.609375 -113.933594 57.609375 -113.617188 57.609375 -112.976562 C 57.929688 -112.976562 57.929688 -112.976562 58.566406 -112.976562 C 57.609375 -111.375 56.648438 -110.09375 56.007812 -108.496094 C 55.046875 -107.214844 54.40625 -105.613281 53.765625 -104.335938 C 53.128906 -104.335938 52.808594 -104.335938 52.488281 -104.335938 C 51.207031 -103.695312 51.847656 -102.414062 51.207031 -101.773438 C 51.527344 -101.132812 51.847656 -100.8125 51.847656 -100.492188 C 51.847656 -99.214844 51.207031 -98.894531 50.886719 -97.933594 C 50.886719 -96.972656 50.246094 -96.332031 50.566406 -95.691406 C 49.925781 -95.054688 49.605469 -94.734375 49.285156 -94.09375 C 49.605469 -94.09375 49.605469 -94.09375 49.925781 -93.773438 C 48.648438 -91.53125 48.648438 -90.890625 47.6875 -90.570312 C 47.367188 -90.890625 47.367188 -91.53125 47.046875 -92.171875 C 47.046875 -91.210938 46.726562 -90.253906 47.046875 -89.613281 C 47.367188 -89.613281 47.6875 -89.613281 48.007812 -89.613281 C 47.367188 -88.332031 47.6875 -87.050781 46.40625 -86.089844 C 46.40625 -86.410156 46.726562 -87.050781 46.726562 -87.691406 C 46.726562 -88.011719 46.726562 -88.332031 46.40625 -88.652344 C 46.40625 -88.652344 46.40625 -88.652344 46.085938 -88.332031 C 46.085938 -87.691406 45.765625 -86.730469 45.765625 -85.773438 C 46.085938 -85.453125 46.40625 -85.453125 46.40625 -85.453125 C 46.085938 -83.851562 46.085938 -82.570312 46.085938 -81.289062 C 45.445312 -80.652344 45.125 -79.691406 44.164062 -78.410156 C 44.164062 -77.769531 44.164062 -76.492188 44.164062 -75.210938 C 44.164062 -74.25 43.847656 -73.289062 43.847656 -72.007812 C 44.164062 -72.007812 44.164062 -71.691406 44.484375 -71.691406 C 44.484375 -71.371094 44.484375 -70.730469 44.484375 -70.410156 C 44.164062 -70.089844 43.847656 -69.769531 43.527344 -69.128906 C 43.207031 -67.847656 43.207031 -66.570312 42.886719 -65.289062 C 42.246094 -64.96875 42.566406 -63.367188 41.285156 -63.6875 C 40.964844 -62.726562 40.324219 -61.769531 40.003906 -60.808594 C 39.683594 -60.808594 39.367188 -60.488281 39.046875 -60.167969 C 38.40625 -58.566406 36.484375 -57.929688 35.523438 -56.648438 C 34.246094 -55.367188 32.964844 -54.085938 32.003906 -52.808594 C 31.363281 -51.527344 30.722656 -50.886719 30.085938 -49.925781 C 29.125 -49.285156 28.484375 -48.328125 27.523438 -47.367188 C 26.882812 -47.046875 26.242188 -46.40625 25.921875 -46.085938 C 24.964844 -44.484375 24.003906 -43.527344 22.722656 -41.925781 C 22.722656 -41.605469 22.722656 -41.285156 22.722656 -40.644531 C 22.082031 -40.644531 21.761719 -40.644531 21.441406 -40.644531 C 20.484375 -39.683594 19.523438 -38.40625 18.242188 -37.125 C 17.601562 -36.164062 16.320312 -34.882812 15.363281 -33.925781 C 14.402344 -32.644531 13.441406 -31.363281 12.480469 -30.085938 C 12.800781 -29.765625 12.800781 -29.765625 12.800781 -29.445312 C 12.480469 -29.125 12.160156 -28.484375 11.839844 -27.84375 C 11.839844 -27.203125 11.839844 -26.5625 10.882812 -26.5625 C 10.5625 -26.882812 10.5625 -27.203125 10.5625 -27.523438 C 9.601562 -25.921875 9.601562 -25.921875 8.320312 -25.921875 C 7.679688 -24.964844 7.359375 -24.003906 6.722656 -23.042969 C 6.402344 -23.042969 6.402344 -23.042969 6.082031 -23.042969 C 4.480469 -21.441406 2.878906 -19.84375 0.960938 -17.921875 C 0.960938 -17.601562 0.320312 -16.640625 0 -15.683594 C -1.921875 -15.363281 -2.558594 -13.441406 -3.519531 -12.160156 C -3.839844 -12.160156 -3.839844 -11.839844 -4.160156 -11.839844 C -4.800781 -11.523438 -5.121094 -10.882812 -5.441406 -10.5625 C -6.082031 -9.921875 -7.039062 -9.28125 -7.359375 -8.640625 C -8.320312 -7.039062 -9.921875 -5.761719 -11.203125 -4.480469 C -11.203125 -3.839844 -11.203125 -3.519531 -11.203125 -3.199219 C -12.800781 -2.878906 -13.761719 -1.921875 -14.722656 -0.640625 C -15.683594 0.320312 -16.640625 1.601562 -17.601562 2.878906 C -18.242188 3.519531 -19.203125 4.160156 -19.523438 5.121094 C -19.84375 6.082031 -20.484375 6.722656 -21.441406 7.359375 C -21.121094 8.640625 -22.402344 8.640625 -23.042969 8.960938 C -23.683594 10.242188 -24.644531 11.523438 -25.285156 12.800781 C -24.964844 13.121094 -24.644531 13.441406 -24.964844 13.761719 C -25.601562 14.402344 -25.921875 13.761719 -26.5625 13.441406 C -27.203125 14.722656 -27.84375 15.683594 -28.804688 16.320312 C -29.125 16.320312 -29.445312 16.960938 -30.085938 17.28125 C -31.363281 18.882812 -32.644531 20.164062 -33.925781 21.761719 C -34.246094 22.082031 -34.566406 22.722656 -34.882812 23.042969 C -34.882812 23.042969 -34.882812 23.042969 -35.203125 23.042969 C -35.84375 23.683594 -36.804688 24.324219 -37.445312 24.964844 C -37.765625 24.964844 -37.765625 24.964844 -37.765625 24.964844 C -38.726562 26.5625 -39.683594 28.164062 -40.964844 30.085938 C -41.285156 30.085938 -41.605469 30.085938 -41.605469 30.402344 C -42.566406 31.683594 -43.527344 32.964844 -44.484375 34.246094 C -45.445312 34.882812 -46.40625 35.84375 -47.367188 36.804688 C -47.6875 37.765625 -48.007812 38.40625 -48.648438 39.367188 C -49.925781 40.964844 -50.886719 42.566406 -51.847656 44.164062 C -52.808594 45.445312 -54.085938 46.726562 -55.367188 48.007812 C -55.6875 48.964844 -56.328125 50.246094 -56.96875 51.527344 C -56.96875 51.847656 -57.609375 52.167969 -57.929688 52.488281 C -57.609375 52.808594 -57.609375 53.128906 -57.289062 53.128906 C -57.289062 54.085938 -58.246094 55.046875 -58.566406 55.6875 C -59.527344 57.289062 -60.488281 58.566406 -60.808594 60.488281 C -60.808594 61.128906 -61.128906 62.089844 -61.449219 62.726562 C -62.089844 63.6875 -62.089844 64.328125 -61.769531 64.96875 C -61.769531 65.609375 -61.769531 65.929688 -62.410156 66.890625 C -62.410156 66.890625 -62.410156 67.210938 -62.410156 67.210938 C -62.410156 67.210938 -62.089844 67.210938 -61.769531 67.210938 C -61.769531 68.167969 -61.449219 69.128906 -61.449219 70.410156 C -61.769531 71.050781 -61.769531 71.691406 -61.449219 72.648438 C -61.128906 72.648438 -61.449219 72.96875 -61.449219 73.289062 C -61.128906 73.289062 -60.488281 73.289062 -60.167969 73.609375 C -59.527344 73.929688 -58.886719 74.570312 -58.566406 74.890625 C -57.929688 74.890625 -57.289062 74.890625 -56.648438 74.890625 C -55.6875 73.609375 -54.085938 72.96875 -52.808594 72.648438 C -52.808594 72.007812 -52.808594 71.691406 -53.128906 71.050781 C -52.167969 71.371094 -51.847656 70.730469 -51.527344 70.089844 C -51.207031 69.769531 -50.886719 69.449219 -50.566406 69.128906 C -50.566406 68.488281 -50.246094 68.167969 -49.925781 67.847656 C -49.285156 67.210938 -48.964844 66.570312 -48.007812 66.890625 C -48.007812 66.890625 -47.6875 66.570312 -47.6875 66.570312 C -47.6875 65.929688 -47.6875 65.609375 -47.6875 64.96875 C -47.046875 64.96875 -46.726562 64.648438 -46.085938 64.648438 C -46.085938 64.007812 -46.085938 63.367188 -46.085938 63.046875 C -44.484375 62.089844 -42.886719 61.449219 -42.246094 59.847656 C -41.605469 59.847656 -41.285156 59.527344 -40.964844 59.527344 C -40.003906 56.96875 -38.726562 56.007812 -36.484375 55.367188 C -35.203125 53.445312 -33.925781 51.527344 -32.644531 49.605469 C -32.003906 49.285156 -31.363281 48.964844 -31.042969 48.648438 C -31.042969 48.007812 -30.722656 47.6875 -30.722656 47.046875 C -30.085938 46.40625 -29.445312 45.445312 -28.804688 44.804688 C -27.84375 43.847656 -27.203125 42.886719 -26.5625 42.246094 C -25.921875 41.285156 -25.285156 40.324219 -24.324219 39.683594 C -23.363281 39.046875 -22.722656 38.085938 -22.402344 36.804688 C -21.761719 36.484375 -20.804688 36.484375 -20.164062 36.164062 C -19.523438 34.246094 -17.601562 32.964844 -17.28125 31.363281 C -15.683594 30.085938 -14.402344 28.804688 -13.761719 27.203125 C -13.121094 26.5625 -12.160156 25.921875 -11.203125 24.964844 C -11.203125 24.964844 -11.203125 24.644531 -11.203125 24.324219 C -9.601562 22.402344 -7.679688 20.804688 -5.761719 18.5625 C -5.761719 18.242188 -5.441406 17.28125 -4.800781 16.640625 C -4.480469 16.320312 -3.839844 16.003906 -3.199219 16.003906 C -2.242188 13.441406 -0.320312 11.839844 0.960938 9.921875 C 1.601562 9.601562 1.921875 9.601562 2.242188 9.601562 C 2.242188 8.320312 3.519531 8 4.160156 7.039062 C 4.480469 6.082031 5.441406 5.121094 5.441406 4.160156 C 5.761719 3.839844 6.082031 3.839844 6.082031 3.839844 C 6.722656 2.878906 7.359375 1.921875 8 1.28125 C 9.28125 0.320312 10.5625 -1.28125 11.523438 -2.558594 C 12.800781 -3.839844 13.761719 -5.121094 15.042969 -6.082031 C 16.640625 -7.359375 17.28125 -8.960938 17.921875 -10.242188 C 18.882812 -11.523438 19.523438 -12.480469 20.484375 -13.441406 C 21.121094 -14.722656 21.761719 -15.363281 22.722656 -16.960938 C 23.683594 -17.601562 25.601562 -19.84375 26.242188 -21.441406 C 27.523438 -21.441406 27.84375 -23.042969 29.125 -23.683594 C 29.125 -24.003906 29.125 -24.324219 29.125 -24.644531 C 29.765625 -25.601562 31.363281 -26.242188 31.683594 -27.523438 C 31.683594 -27.84375 31.683594 -28.164062 32.003906 -28.164062 C 32.964844 -29.445312 34.246094 -30.722656 35.523438 -32.003906 C 36.164062 -32.324219 36.804688 -32.964844 37.125 -33.605469 C 37.445312 -34.566406 38.40625 -35.203125 39.367188 -35.84375 C 39.367188 -36.164062 39.367188 -36.804688 39.367188 -37.125 C 41.925781 -40.324219 44.484375 -43.207031 47.367188 -46.085938 C 47.367188 -46.40625 47.367188 -46.726562 47.367188 -47.046875 C 47.6875 -47.367188 48.328125 -47.367188 48.964844 -47.367188 C 48.648438 -46.40625 49.925781 -45.765625 49.925781 -44.804688 C 50.246094 -44.484375 50.566406 -44.164062 50.886719 -44.164062 C 51.527344 -42.886719 51.527344 -41.605469 52.808594 -40.324219 C 53.765625 -39.367188 54.085938 -38.085938 55.367188 -37.445312 C 55.6875 -37.445312 55.6875 -37.125 55.6875 -37.125 C 56.328125 -35.84375 57.609375 -35.203125 58.566406 -34.246094 C 59.527344 -33.605469 60.488281 -32.644531 61.769531 -31.363281 C 62.410156 -31.042969 63.6875 -30.402344 64.328125 -29.445312 C 66.25 -28.804688 67.847656 -27.203125 69.769531 -26.5625 C 71.050781 -25.921875 72.328125 -25.285156 73.929688 -24.644531 C 74.25 -24.644531 74.570312 -24.644531 74.890625 -24.324219 C 76.492188 -23.042969 78.730469 -23.042969 80.652344 -22.722656 C 81.289062 -22.722656 81.929688 -22.402344 82.890625 -22.402344 C 83.53125 -23.042969 84.8125 -21.761719 85.773438 -22.722656 C 85.773438 -22.722656 86.410156 -22.402344 86.410156 -22.402344 C 87.050781 -22.722656 87.371094 -22.722656 87.691406 -23.042969 C 88.972656 -21.761719 90.570312 -23.683594 91.210938 -23.042969 C 93.132812 -23.683594 95.054688 -23.363281 96.011719 -24.964844 C 96.652344 -24.644531 96.972656 -24.644531 97.613281 -24.324219 C 97.933594 -24.644531 98.253906 -24.964844 98.574219 -25.285156 C 99.214844 -24.964844 100.171875 -24.964844 100.8125 -24.644531 C 102.414062 -25.921875 104.015625 -26.242188 105.613281 -26.5625 C 106.894531 -26.5625 107.535156 -27.203125 108.175781 -27.84375 C 107.855469 -28.484375 107.855469 -28.804688 107.855469 -29.445312 C 108.496094 -28.804688 108.816406 -28.484375 109.453125 -28.164062 C 109.773438 -28.164062 110.414062 -28.164062 110.734375 -28.484375 C 110.734375 -28.804688 110.734375 -29.125 110.734375 -29.445312 C 111.054688 -29.125 111.375 -28.804688 111.695312 -28.484375 C 112.335938 -28.804688 112.976562 -29.125 113.617188 -29.125 C 114.253906 -29.125 114.574219 -29.445312 115.214844 -29.765625 C 116.496094 -30.722656 118.097656 -31.363281 119.695312 -32.003906 C 120.65625 -32.644531 121.9375 -33.605469 123.214844 -33.925781 C 124.175781 -34.246094 124.496094 -34.882812 125.136719 -35.203125 C 128.335938 -36.164062 130.898438 -38.085938 134.097656 -39.367188 C 134.097656 -39.683594 134.417969 -40.003906 134.417969 -40.644531 C 136.019531 -40.644531 137.296875 -40.644531 137.617188 -42.246094 C 138.578125 -42.246094 138.898438 -42.246094 139.21875 -42.246094 C 140.820312 -43.527344 141.777344 -44.164062 143.058594 -45.125 C 144.660156 -45.125 145.621094 -46.085938 146.898438 -46.726562 C 147.539062 -48.007812 148.179688 -48.964844 149.460938 -49.605469 C 149.460938 -49.925781 149.140625 -50.246094 148.820312 -50.566406 C 149.140625 -50.566406 149.460938 -50.566406 149.460938 -50.566406 C 149.78125 -50.246094 150.101562 -49.925781 150.421875 -49.925781 C 152.980469 -51.207031 154.582031 -53.765625 157.460938 -54.726562 C 157.78125 -55.046875 158.421875 -56.007812 159.0625 -56.328125 C 160.023438 -56.96875 160.980469 -57.609375 161.941406 -58.566406 C 162.261719 -59.207031 162.902344 -59.527344 163.863281 -60.167969 C 163.863281 -60.167969 164.183594 -60.167969 164.503906 -60.167969 C 165.140625 -60.488281 165.140625 -61.128906 166.101562 -61.449219 C 166.742188 -61.449219 167.382812 -62.089844 167.703125 -63.046875 C 168.34375 -64.007812 168.984375 -64.96875 170.261719 -65.609375 C 170.582031 -65.289062 170.902344 -65.289062 170.902344 -65.289062 C 171.542969 -65.609375 171.863281 -66.25 172.503906 -66.570312 C 173.144531 -66.890625 173.785156 -67.210938 174.421875 -68.167969 C 174.742188 -68.808594 175.382812 -69.128906 176.34375 -69.769531 C 176.664062 -70.410156 176.664062 -71.691406 177.945312 -72.328125 C 178.265625 -72.007812 178.585938 -72.007812 178.902344 -72.007812 C 178.902344 -72.96875 179.863281 -72.96875 180.503906 -73.289062 C 180.824219 -73.929688 181.144531 -74.25 181.144531 -74.570312 C 182.746094 -75.851562 184.023438 -76.492188 185.304688 -77.449219 C 185.625 -78.089844 185.625 -78.730469 185.625 -79.050781 C 186.90625 -79.691406 188.183594 -80.332031 189.144531 -81.609375 C 189.464844 -81.929688 190.105469 -82.25 190.746094 -82.570312 C 190.746094 -82.570312 190.746094 -82.570312 191.066406 -82.570312 C 191.066406 -82.890625 191.386719 -83.53125 191.707031 -83.851562 C 192.984375 -84.171875 193.945312 -85.132812 194.90625 -86.089844 C 195.226562 -86.410156 195.867188 -87.050781 195.867188 -87.371094 C 196.1875 -88.652344 197.148438 -89.292969 198.425781 -89.613281 C 198.746094 -89.933594 199.386719 -90.253906 200.027344 -90.253906 C 200.347656 -90.890625 200.347656 -91.210938 200.667969 -91.53125 C 201.628906 -92.492188 202.585938 -93.132812 203.226562 -94.09375 C 204.1875 -95.371094 205.148438 -96.332031 206.109375 -97.292969 C 206.746094 -97.933594 207.066406 -98.894531 207.707031 -99.535156 C 208.988281 -100.171875 209.949219 -101.453125 210.589844 -102.734375 C 210.910156 -102.734375 211.546875 -103.054688 211.867188 -103.375 C 211.546875 -104.335938 212.507812 -104.972656 213.148438 -105.292969 C 214.429688 -106.253906 215.070312 -107.535156 215.710938 -108.816406 C 216.027344 -108.816406 216.347656 -109.132812 216.667969 -109.132812 C 216.347656 -110.09375 216.667969 -110.734375 217.308594 -111.054688 C 217.628906 -111.054688 217.628906 -111.054688 217.628906 -111.054688 C 218.910156 -112.335938 220.191406 -113.296875 221.148438 -114.574219 C 222.109375 -115.214844 222.75 -115.855469 223.070312 -117.136719 C 223.390625 -117.777344 224.03125 -118.097656 224.351562 -118.734375 C 224.671875 -118.414062 224.992188 -118.414062 225.308594 -118.414062 C 225.308594 -119.054688 224.992188 -119.375 224.992188 -119.375 C 225.308594 -120.015625 225.308594 -120.335938 225.628906 -120.65625 C 226.269531 -121.617188 227.230469 -122.257812 227.550781 -123.535156 C 227.550781 -123.855469 228.191406 -124.496094 229.152344 -124.175781 C 229.472656 -125.136719 229.789062 -125.777344 230.109375 -126.417969 C 230.75 -126.738281 231.070312 -127.378906 231.710938 -128.015625 C 232.03125 -128.335938 232.351562 -129.296875 232.992188 -129.617188 C 234.273438 -130.578125 234.910156 -131.859375 235.550781 -133.457031 C 235.550781 -133.777344 237.152344 -135.378906 237.472656 -135.378906 C 238.113281 -135.699219 238.433594 -136.019531 238.753906 -136.019531 C 239.070312 -136.976562 239.070312 -137.296875 239.070312 -137.9375 C 239.390625 -138.257812 239.390625 -138.257812 239.390625 -138.578125 C 239.710938 -138.578125 239.710938 -138.578125 240.03125 -138.578125 C 239.710938 -140.5 241.632812 -141.140625 241.632812 -142.738281 C 241.953125 -142.738281 242.273438 -142.738281 242.914062 -142.417969 C 242.59375 -143.058594 242.273438 -143.058594 242.273438 -143.378906 C 243.554688 -144.660156 243.554688 -144.660156 244.511719 -146.898438 C 244.511719 -147.21875 245.152344 -147.539062 245.472656 -147.859375 C 245.472656 -148.5 245.792969 -148.820312 245.792969 -149.460938 C 246.433594 -150.101562 246.433594 -150.101562 247.074219 -151.058594 C 248.671875 -152.019531 249.3125 -152.980469 249.632812 -154.902344 C 251.234375 -156.179688 251.554688 -158.101562 252.515625 -159.703125 C 252.835938 -160.023438 253.472656 -160.339844 253.792969 -160.339844 C 253.792969 -160.980469 253.792969 -161.621094 254.113281 -161.941406 C 255.074219 -163.542969 256.035156 -165.140625 256.996094 -167.0625 C 257.632812 -168.023438 258.59375 -169.304688 258.914062 -170.582031 C 259.234375 -171.863281 259.875 -173.144531 261.15625 -174.101562 C 261.15625 -174.742188 261.15625 -175.382812 261.476562 -175.382812 C 262.433594 -176.984375 262.753906 -178.585938 264.035156 -179.863281 C 264.355469 -180.183594 264.355469 -180.503906 264.355469 -180.824219 C 264.675781 -182.105469 264.996094 -183.066406 265.636719 -184.34375 C 265.957031 -185.304688 266.597656 -186.265625 266.914062 -187.226562 C 267.234375 -188.183594 267.554688 -188.824219 267.875 -189.464844 C 268.195312 -190.105469 268.515625 -190.746094 268.835938 -191.386719 C 268.835938 -192.027344 269.476562 -192.664062 269.476562 -193.304688 C 269.476562 -193.945312 269.796875 -194.90625 270.117188 -195.226562 C 270.757812 -196.1875 270.757812 -197.148438 271.078125 -197.785156 C 271.398438 -198.746094 271.398438 -199.707031 271.714844 -200.347656 C 272.035156 -201.308594 272.035156 -201.945312 272.035156 -202.585938 C 272.035156 -202.90625 272.355469 -202.90625 272.355469 -202.90625 C 272.675781 -202.90625 272.996094 -202.90625 273.316406 -202.585938 C 272.996094 -204.1875 273.636719 -205.789062 274.597656 -207.066406 C 274.277344 -207.386719 274.277344 -207.707031 273.957031 -208.027344 C 274.277344 -208.347656 274.277344 -208.667969 274.277344 -209.308594 C 274.597656 -209.949219 274.277344 -210.910156 274.917969 -211.546875 C 275.558594 -212.507812 275.238281 -213.148438 274.917969 -213.789062 C 274.917969 -214.109375 275.238281 -214.429688 275.238281 -214.75 C 275.238281 -216.347656 275.558594 -217.949219 275.878906 -219.230469 C 276.195312 -219.550781 275.878906 -220.191406 276.515625 -220.191406 Z M 69.449219 -85.453125 C 69.449219 -86.410156 70.410156 -87.050781 71.050781 -87.691406 C 71.691406 -88.332031 72.328125 -89.292969 72.96875 -89.933594 C 73.289062 -90.253906 73.609375 -90.890625 74.25 -91.53125 C 74.570312 -91.851562 75.210938 -91.851562 75.851562 -92.171875 C 75.210938 -90.570312 74.570312 -89.613281 73.289062 -88.652344 C 72.96875 -88.332031 72.96875 -88.011719 72.96875 -87.371094 C 72.007812 -86.410156 71.050781 -85.132812 69.449219 -85.453125 C 69.449219 -83.851562 69.128906 -82.25 67.527344 -81.289062 C 67.210938 -79.371094 65.289062 -78.730469 64.328125 -76.808594 C 64.328125 -76.492188 63.6875 -76.171875 63.046875 -75.53125 C 62.726562 -74.570312 60.808594 -74.25 60.808594 -72.96875 C 60.167969 -71.691406 59.527344 -71.050781 58.886719 -70.089844 C 57.929688 -69.449219 58.246094 -68.167969 56.96875 -67.527344 C 56.007812 -66.890625 55.6875 -65.609375 55.046875 -64.648438 C 54.40625 -63.6875 54.085938 -63.046875 53.445312 -62.089844 C 52.167969 -63.367188 52.167969 -64.96875 52.167969 -66.25 C 52.167969 -66.890625 52.167969 -67.210938 52.808594 -67.527344 C 53.765625 -68.488281 54.40625 -70.089844 55.6875 -71.050781 C 56.007812 -71.691406 56.328125 -72.648438 57.609375 -72.648438 C 57.609375 -72.648438 57.929688 -72.96875 58.246094 -73.289062 C 58.246094 -73.609375 57.929688 -73.929688 57.929688 -74.25 C 59.207031 -75.53125 60.167969 -77.128906 62.089844 -77.449219 C 62.089844 -77.769531 62.089844 -78.410156 62.089844 -78.730469 C 63.046875 -79.691406 64.648438 -80.332031 63.367188 -81.929688 C 64.007812 -82.25 64.648438 -82.570312 65.289062 -82.570312 C 64.96875 -82.890625 64.96875 -83.210938 64.96875 -83.53125 C 66.570312 -83.53125 67.847656 -84.171875 69.449219 -85.453125 Z M 266.914062 -202.265625 C 266.277344 -201.945312 265.957031 -201.628906 265.636719 -201.308594 C 265.636719 -201.308594 265.636719 -200.988281 265.957031 -200.667969 C 264.996094 -199.386719 264.675781 -198.105469 265.636719 -196.828125 C 264.996094 -195.867188 263.394531 -195.226562 264.035156 -193.945312 C 262.117188 -192.347656 261.796875 -190.105469 261.796875 -188.183594 C 260.835938 -187.226562 260.195312 -186.265625 259.875 -184.984375 C 259.875 -183.703125 259.554688 -182.746094 258.273438 -181.785156 C 257.632812 -181.144531 257.632812 -180.183594 257.632812 -179.222656 C 257.316406 -178.585938 256.996094 -177.945312 256.355469 -177.304688 C 256.035156 -176.984375 256.035156 -176.664062 255.714844 -176.34375 C 255.394531 -174.742188 254.753906 -173.785156 253.792969 -172.824219 C 253.152344 -172.503906 253.152344 -171.863281 252.835938 -171.542969 C 252.515625 -170.902344 252.195312 -170.582031 251.875 -170.261719 C 251.875 -169.941406 251.875 -169.304688 252.195312 -168.984375 C 250.914062 -168.023438 250.273438 -166.421875 249.953125 -164.820312 C 247.714844 -163.542969 247.394531 -160.660156 245.472656 -158.742188 C 245.472656 -158.421875 245.472656 -158.101562 245.472656 -157.460938 C 244.511719 -156.5 243.871094 -155.539062 242.59375 -154.261719 C 242.59375 -154.261719 242.59375 -153.941406 242.59375 -153.621094 C 241.632812 -152.660156 241.3125 -151.378906 240.671875 -150.101562 C 239.710938 -149.78125 239.390625 -148.5 238.753906 -148.179688 C 238.753906 -147.859375 238.753906 -147.539062 239.070312 -147.21875 C 238.433594 -146.578125 237.472656 -145.941406 236.832031 -144.980469 C 236.832031 -144.980469 236.832031 -145.300781 236.511719 -145.300781 C 236.511719 -144.339844 236.191406 -143.699219 235.871094 -142.738281 C 235.550781 -142.417969 235.550781 -142.097656 235.230469 -141.777344 C 234.589844 -141.140625 234.273438 -140.5 233.953125 -139.539062 C 233.3125 -139.21875 232.671875 -138.578125 232.351562 -137.9375 C 232.03125 -137.296875 231.710938 -136.976562 231.070312 -136.339844 C 230.109375 -135.058594 228.832031 -133.457031 227.871094 -131.859375 C 227.550781 -131.539062 227.230469 -131.21875 226.910156 -130.578125 C 226.589844 -130.257812 225.949219 -129.9375 225.949219 -129.296875 C 225.949219 -128.976562 225.949219 -128.976562 225.949219 -128.976562 C 224.03125 -127.378906 223.070312 -125.136719 221.148438 -124.175781 C 220.191406 -122.898438 219.550781 -121.617188 218.589844 -120.65625 C 218.269531 -119.695312 217.308594 -119.054688 216.667969 -118.414062 C 216.347656 -118.414062 216.667969 -118.097656 216.347656 -117.457031 C 215.390625 -116.496094 214.75 -115.214844 213.46875 -114.253906 C 212.828125 -113.933594 212.1875 -112.976562 211.867188 -112.015625 C 210.589844 -110.734375 209.628906 -109.132812 208.347656 -108.175781 C 207.707031 -107.855469 207.707031 -107.214844 207.386719 -106.894531 C 206.429688 -105.933594 205.789062 -104.972656 204.828125 -104.015625 C 203.867188 -103.375 202.90625 -102.734375 202.585938 -101.453125 C 201.628906 -100.492188 200.667969 -99.851562 199.386719 -98.894531 C 199.066406 -98.253906 198.425781 -97.613281 197.785156 -96.972656 C 197.785156 -96.652344 197.785156 -96.332031 197.785156 -96.332031 C 196.828125 -95.371094 195.867188 -95.054688 194.90625 -94.414062 C 194.90625 -94.414062 194.90625 -94.09375 194.90625 -94.09375 C 194.265625 -93.773438 193.625 -92.8125 192.984375 -92.492188 C 192.027344 -91.851562 191.386719 -91.210938 191.066406 -90.253906 C 190.105469 -90.253906 189.785156 -88.972656 188.824219 -88.652344 C 188.183594 -88.332031 187.546875 -87.371094 186.90625 -87.050781 C 186.265625 -86.410156 185.304688 -85.773438 184.34375 -84.8125 C 184.34375 -84.8125 184.34375 -84.492188 184.023438 -83.851562 C 183.382812 -83.53125 182.746094 -83.210938 181.785156 -82.570312 C 181.464844 -82.25 181.144531 -81.609375 180.503906 -80.972656 C 180.503906 -80.652344 180.183594 -80.652344 179.863281 -80.332031 C 178.585938 -79.050781 176.984375 -77.769531 175.382812 -76.492188 C 174.421875 -75.851562 173.464844 -74.890625 172.183594 -73.929688 C 171.863281 -73.609375 171.542969 -72.96875 170.902344 -72.648438 C 170.261719 -72.328125 169.621094 -71.691406 168.984375 -70.730469 C 168.023438 -70.730469 167.382812 -70.089844 166.742188 -69.128906 C 166.101562 -68.488281 165.460938 -68.488281 164.820312 -67.847656 C 163.542969 -66.890625 161.941406 -65.609375 160.660156 -64.328125 C 159.703125 -63.6875 159.0625 -63.046875 158.101562 -62.726562 C 156.5 -62.089844 155.859375 -60.808594 154.582031 -60.167969 C 153.300781 -59.527344 152.339844 -58.566406 151.378906 -57.609375 C 150.742188 -57.289062 149.78125 -56.96875 148.820312 -56.328125 C 147.539062 -55.046875 145.941406 -54.40625 144.339844 -53.445312 C 144.019531 -53.128906 144.019531 -53.128906 143.699219 -53.128906 C 143.058594 -52.167969 143.058594 -52.167969 142.097656 -51.847656 C 140.820312 -50.886719 139.539062 -49.925781 138.578125 -49.285156 C 138.257812 -48.964844 137.9375 -48.964844 137.617188 -48.964844 C 136.660156 -48.648438 136.339844 -48.328125 136.339844 -47.367188 C 135.378906 -47.046875 134.097656 -46.40625 133.136719 -46.40625 C 132.179688 -46.085938 131.21875 -45.125 130.578125 -44.484375 C 129.9375 -44.164062 129.617188 -43.527344 128.976562 -43.527344 C 127.378906 -42.886719 125.777344 -41.925781 124.496094 -40.964844 C 124.175781 -41.285156 123.855469 -41.285156 123.535156 -41.285156 C 122.257812 -39.683594 120.335938 -39.683594 118.734375 -39.046875 C 118.097656 -38.726562 117.457031 -38.40625 116.496094 -38.085938 C 115.855469 -37.765625 115.214844 -37.445312 114.574219 -37.125 C 114.253906 -37.125 113.933594 -37.125 113.617188 -37.445312 C 113.296875 -36.484375 112.65625 -35.523438 111.375 -36.164062 C 111.054688 -35.84375 111.054688 -35.523438 110.734375 -35.203125 C 110.734375 -35.203125 110.414062 -35.203125 110.414062 -35.203125 C 109.453125 -35.203125 108.816406 -35.203125 108.175781 -34.566406 C 107.214844 -33.605469 104.335938 -32.964844 102.734375 -32.964844 C 101.773438 -33.285156 100.8125 -32.964844 100.171875 -32.324219 C 99.851562 -32.644531 99.535156 -32.644531 98.894531 -32.644531 C 98.894531 -32.324219 99.214844 -32.003906 99.214844 -31.683594 C 97.292969 -31.683594 95.371094 -30.402344 93.132812 -31.363281 C 92.8125 -31.042969 92.171875 -30.722656 91.851562 -30.402344 C 91.851562 -30.722656 91.851562 -31.042969 91.851562 -31.363281 C 91.210938 -31.683594 91.53125 -30.722656 90.890625 -30.402344 C 90.890625 -30.402344 90.570312 -30.402344 89.933594 -30.402344 C 88.652344 -30.402344 86.730469 -30.402344 85.453125 -30.402344 C 83.53125 -30.402344 81.609375 -30.722656 80.011719 -32.003906 C 78.730469 -32.644531 77.449219 -32.644531 76.171875 -32.964844 C 75.53125 -32.964844 74.890625 -33.285156 74.25 -33.925781 C 73.929688 -34.246094 72.96875 -34.566406 72.007812 -35.203125 C 71.691406 -35.203125 71.371094 -35.84375 70.730469 -36.164062 C 70.089844 -36.164062 69.769531 -36.164062 69.128906 -36.164062 C 67.847656 -37.445312 66.570312 -38.726562 65.289062 -39.683594 C 64.007812 -40.644531 63.367188 -41.925781 62.089844 -43.207031 C 62.089844 -43.207031 62.089844 -42.886719 61.769531 -42.886719 C 61.128906 -44.164062 60.488281 -45.125 59.847656 -46.40625 C 59.527344 -46.085938 59.207031 -46.085938 58.886719 -46.085938 C 58.886719 -46.726562 58.886719 -47.367188 58.886719 -48.007812 C 58.246094 -48.328125 57.609375 -48.328125 57.289062 -48.328125 C 56.96875 -48.007812 56.648438 -47.6875 56.648438 -47.367188 C 56.328125 -47.367188 56.328125 -47.367188 56.328125 -47.367188 C 56.007812 -47.6875 55.6875 -48.007812 55.367188 -48.328125 C 55.367188 -48.648438 54.726562 -48.964844 54.726562 -49.285156 C 55.046875 -50.886719 53.765625 -52.167969 53.445312 -53.765625 C 53.445312 -53.765625 53.445312 -53.765625 53.445312 -54.085938 C 53.765625 -54.40625 54.085938 -55.046875 54.726562 -55.367188 C 56.007812 -56.96875 57.289062 -58.566406 58.566406 -60.167969 C 58.566406 -61.128906 58.566406 -61.769531 58.886719 -62.726562 C 60.808594 -63.6875 62.089844 -64.648438 62.726562 -66.890625 C 63.367188 -67.210938 64.007812 -67.527344 64.648438 -68.167969 C 64.96875 -69.128906 65.609375 -70.089844 66.570312 -71.050781 C 66.890625 -71.371094 67.210938 -71.691406 67.527344 -72.007812 C 68.808594 -73.929688 70.410156 -75.851562 71.691406 -77.449219 C 72.007812 -78.089844 72.007812 -78.410156 72.007812 -78.730469 C 72.328125 -78.730469 72.648438 -79.050781 72.96875 -79.050781 C 72.96875 -79.050781 72.96875 -79.050781 72.96875 -79.371094 C 73.289062 -80.011719 73.929688 -80.652344 74.570312 -81.289062 C 75.210938 -81.609375 75.53125 -82.25 75.851562 -82.890625 C 76.808594 -84.171875 78.410156 -85.132812 79.371094 -86.730469 C 80.011719 -88.332031 80.972656 -89.292969 81.609375 -90.570312 C 81.929688 -91.210938 81.929688 -91.53125 82.25 -91.851562 C 82.570312 -92.171875 82.890625 -92.171875 83.210938 -92.171875 C 84.171875 -94.09375 84.8125 -95.691406 86.410156 -96.972656 C 87.050781 -98.253906 88.652344 -99.214844 89.613281 -100.171875 C 89.613281 -100.492188 89.933594 -100.8125 89.933594 -100.8125 C 90.570312 -101.773438 90.890625 -102.734375 91.210938 -104.015625 C 91.851562 -103.695312 92.171875 -103.695312 92.171875 -103.695312 C 93.453125 -105.292969 94.734375 -107.214844 96.011719 -109.132812 C 96.332031 -109.453125 96.652344 -109.453125 96.972656 -109.773438 C 97.292969 -110.09375 97.292969 -110.414062 97.292969 -111.054688 C 98.894531 -112.976562 100.171875 -114.894531 101.132812 -117.136719 C 101.773438 -118.097656 102.734375 -118.734375 103.375 -119.375 C 103.375 -119.695312 103.375 -120.015625 103.054688 -120.65625 C 103.375 -120.335938 103.695312 -120.335938 104.015625 -120.335938 C 104.015625 -120.335938 104.335938 -120.335938 104.335938 -120.335938 C 105.933594 -121.9375 107.535156 -123.535156 109.132812 -124.816406 C 109.773438 -125.457031 110.09375 -126.097656 110.734375 -126.738281 C 111.054688 -127.058594 111.375 -127.378906 111.695312 -127.695312 C 112.65625 -128.335938 113.933594 -128.976562 114.253906 -130.257812 C 115.855469 -130.898438 116.496094 -133.136719 118.414062 -133.777344 C 118.414062 -135.058594 120.015625 -135.058594 120.015625 -136.339844 C 120.65625 -136.660156 121.296875 -136.660156 121.9375 -136.976562 C 122.898438 -137.9375 123.855469 -139.539062 125.136719 -140.820312 C 125.457031 -140.820312 125.777344 -140.820312 126.417969 -141.140625 C 126.417969 -141.777344 126.738281 -142.097656 127.058594 -142.738281 C 127.695312 -143.378906 128.335938 -144.019531 128.976562 -144.660156 C 129.617188 -145.300781 130.257812 -145.300781 130.578125 -145.941406 C 132.179688 -146.898438 133.457031 -148.5 135.058594 -149.460938 C 136.339844 -151.378906 138.578125 -152.339844 139.859375 -153.941406 C 140.5 -154.902344 141.140625 -155.539062 142.417969 -155.859375 C 142.738281 -157.460938 144.339844 -157.78125 145.300781 -159.0625 C 146.257812 -159.703125 146.578125 -160.339844 147.539062 -160.660156 C 148.5 -160.980469 148.820312 -161.621094 149.460938 -161.941406 C 150.101562 -162.582031 150.742188 -163.222656 151.378906 -163.863281 C 151.378906 -163.863281 151.378906 -164.183594 151.699219 -164.503906 C 151.699219 -164.820312 152.019531 -164.820312 152.339844 -164.820312 C 153.621094 -165.460938 154.902344 -166.421875 156.179688 -167.703125 C 156.5 -168.023438 156.820312 -168.34375 157.140625 -168.664062 C 157.78125 -169.304688 158.742188 -169.941406 159.382812 -170.582031 C 160.339844 -171.542969 160.660156 -172.503906 160.980469 -173.785156 C 163.542969 -174.421875 165.460938 -175.382812 166.421875 -177.625 C 167.0625 -177.625 167.382812 -177.304688 167.382812 -177.304688 C 168.984375 -177.945312 168.984375 -179.222656 169.621094 -180.183594 C 170.582031 -180.183594 171.222656 -180.183594 171.863281 -180.183594 C 172.183594 -180.824219 172.183594 -181.144531 172.183594 -181.785156 C 175.0625 -182.425781 176.664062 -184.664062 178.585938 -186.265625 C 178.585938 -186.265625 178.585938 -186.585938 178.585938 -186.585938 C 179.542969 -186.265625 179.863281 -186.90625 180.503906 -186.90625 C 181.144531 -187.867188 181.464844 -188.503906 182.105469 -189.144531 C 183.066406 -189.464844 184.023438 -189.785156 184.664062 -190.746094 C 185.625 -191.707031 186.585938 -192.664062 188.183594 -192.984375 C 189.464844 -193.625 190.746094 -194.90625 192.027344 -195.546875 C 193.304688 -196.1875 193.945312 -197.148438 194.585938 -198.105469 C 195.546875 -198.425781 196.507812 -198.746094 197.464844 -199.386719 C 198.425781 -200.347656 199.707031 -201.308594 200.988281 -201.628906 C 201.945312 -201.945312 202.585938 -202.90625 203.226562 -203.867188 C 203.867188 -203.867188 204.1875 -203.867188 204.828125 -203.867188 C 205.46875 -204.1875 206.109375 -204.828125 206.746094 -205.46875 C 206.746094 -205.789062 207.066406 -206.429688 207.386719 -207.386719 C 207.707031 -207.066406 207.707031 -206.746094 208.027344 -206.429688 C 208.988281 -207.386719 210.589844 -208.027344 211.546875 -208.667969 C 212.1875 -208.988281 212.507812 -209.628906 212.828125 -209.949219 C 213.789062 -210.589844 214.75 -210.910156 215.390625 -211.546875 C 216.347656 -212.1875 216.988281 -212.507812 217.628906 -213.148438 C 217.949219 -213.46875 218.269531 -213.789062 218.589844 -213.789062 C 219.871094 -214.109375 220.828125 -215.390625 222.109375 -216.027344 C 223.710938 -216.667969 224.992188 -217.628906 226.269531 -218.910156 C 226.589844 -219.230469 227.550781 -219.230469 227.550781 -220.191406 C 229.472656 -220.507812 230.75 -221.46875 232.03125 -222.75 C 232.671875 -223.390625 233.953125 -223.710938 234.910156 -224.351562 C 234.910156 -224.671875 235.230469 -224.992188 235.230469 -225.308594 C 235.550781 -225.308594 235.871094 -224.992188 236.191406 -224.992188 C 236.191406 -225.308594 236.191406 -225.628906 236.511719 -225.949219 C 236.832031 -225.949219 237.472656 -226.269531 237.792969 -226.269531 C 238.753906 -226.269531 239.390625 -226.910156 240.03125 -227.230469 C 240.992188 -227.550781 241.953125 -228.191406 242.914062 -228.511719 C 242.914062 -228.832031 243.234375 -229.152344 243.234375 -229.472656 C 246.113281 -230.429688 248.351562 -232.351562 251.234375 -232.992188 C 251.234375 -233.632812 251.554688 -233.953125 251.875 -234.589844 C 252.195312 -234.273438 252.515625 -234.273438 252.835938 -233.953125 C 254.113281 -234.273438 255.394531 -234.589844 256.355469 -235.550781 C 256.675781 -235.550781 256.675781 -235.871094 256.996094 -235.871094 C 259.234375 -235.871094 261.15625 -236.832031 263.394531 -236.511719 C 263.394531 -236.511719 263.394531 -236.511719 263.714844 -236.511719 C 264.355469 -235.871094 265.316406 -234.910156 266.277344 -234.273438 C 266.277344 -233.953125 266.597656 -233.953125 266.597656 -233.953125 C 267.234375 -232.671875 267.875 -231.710938 268.515625 -230.75 C 268.835938 -230.429688 269.796875 -224.03125 269.796875 -223.390625 C 269.796875 -223.390625 269.476562 -223.070312 269.476562 -223.070312 C 269.796875 -222.75 270.117188 -222.429688 270.117188 -222.109375 C 269.476562 -220.507812 270.4375 -218.910156 269.796875 -217.628906 C 269.476562 -216.988281 269.476562 -216.027344 269.796875 -215.390625 C 268.835938 -213.46875 269.476562 -211.226562 268.835938 -209.308594 C 267.875 -207.707031 267.234375 -206.109375 266.597656 -205.148438 C 266.597656 -203.867188 266.597656 -203.226562 266.914062 -202.265625 Z M -41.605469 42.246094 C -41.605469 42.246094 -41.605469 42.246094 -41.285156 42.246094 C -40.003906 40.324219 -38.726562 38.40625 -37.445312 36.484375 C -37.445312 36.164062 -37.445312 36.164062 -37.445312 36.164062 C -35.84375 35.523438 -35.84375 34.246094 -35.523438 32.964844 C -34.566406 32.324219 -33.605469 31.683594 -32.644531 30.722656 C -32.003906 29.765625 -31.042969 28.484375 -30.085938 27.523438 C -29.445312 26.882812 -29.445312 26.242188 -29.445312 25.601562 C -29.125 25.601562 -28.804688 25.285156 -28.164062 25.285156 C -27.203125 24.003906 -26.882812 22.402344 -25.921875 20.804688 C -24.644531 20.804688 -24.324219 19.203125 -22.722656 19.523438 C -22.722656 19.203125 -22.722656 18.882812 -22.722656 18.5625 C -22.402344 18.5625 -22.082031 18.242188 -21.441406 18.242188 C -21.441406 17.601562 -21.761719 17.28125 -21.761719 16.960938 C -21.441406 16.320312 -21.121094 16.003906 -20.804688 15.363281 C -20.164062 15.042969 -19.523438 15.042969 -18.882812 14.722656 C -17.921875 13.121094 -16.003906 12.480469 -15.683594 10.242188 C -15.683594 10.242188 -16.003906 9.601562 -16.640625 8.960938 C -15.683594 9.28125 -15.363281 9.28125 -14.722656 9.28125 C -13.761719 8.320312 -12.480469 7.679688 -13.121094 6.082031 C -12.160156 5.761719 -11.203125 5.121094 -9.921875 4.800781 C -9.921875 4.160156 -9.921875 3.519531 -9.921875 2.878906 C -9.601562 2.558594 -8.960938 1.921875 -8.320312 1.601562 C -8 1.28125 -8 0.960938 -8 0.320312 C -7.359375 0.320312 -7.039062 0 -6.402344 0 C -6.082031 -0.640625 -5.761719 -0.960938 -5.441406 -1.601562 C -5.441406 -1.921875 -5.441406 -2.558594 -5.441406 -3.199219 C -5.121094 -2.878906 -4.800781 -2.558594 -4.800781 -2.558594 C -4.800781 -3.199219 -4.800781 -4.160156 -4.800781 -4.800781 C -4.160156 -4.800781 -3.839844 -4.800781 -3.519531 -4.800781 C -3.199219 -4.800781 -2.878906 -4.800781 -2.242188 -4.800781 C -1.28125 -5.441406 -0.320312 -6.402344 0.640625 -7.359375 C 0.640625 -8 0.640625 -8.320312 0.960938 -8.640625 C 1.28125 -9.601562 1.921875 -9.921875 2.558594 -10.5625 C 2.878906 -11.203125 3.839844 -11.203125 4.480469 -11.523438 C 4.800781 -12.480469 5.121094 -13.121094 5.121094 -14.082031 C 5.761719 -14.402344 6.402344 -14.722656 6.722656 -15.042969 C 6.722656 -15.683594 7.359375 -16.003906 8 -16.003906 C 8.960938 -18.242188 10.882812 -19.203125 12.800781 -21.121094 C 14.082031 -23.042969 15.683594 -25.601562 18.242188 -27.84375 C 18.882812 -28.164062 19.84375 -28.804688 20.164062 -29.765625 C 20.804688 -30.722656 21.441406 -31.683594 22.082031 -32.964844 C 22.402344 -33.285156 23.042969 -33.605469 23.683594 -34.246094 C 23.683594 -34.246094 23.683594 -34.246094 23.363281 -34.566406 C 24.003906 -34.566406 24.644531 -34.882812 25.285156 -34.882812 C 24.644531 -35.84375 26.242188 -36.164062 25.921875 -37.125 C 25.921875 -37.445312 26.242188 -38.085938 26.5625 -38.40625 C 27.84375 -39.046875 28.164062 -40.324219 29.125 -41.285156 C 31.042969 -41.605469 31.042969 -41.925781 31.363281 -43.527344 C 32.644531 -45.125 34.566406 -46.40625 35.523438 -48.328125 C 35.84375 -48.328125 36.164062 -48.328125 36.164062 -48.007812 C 37.125 -49.605469 37.765625 -50.886719 38.726562 -52.488281 C 39.683594 -53.128906 40.644531 -53.765625 41.285156 -54.40625 C 41.605469 -54.40625 41.605469 -54.085938 41.605469 -54.085938 C 42.566406 -55.046875 43.527344 -56.328125 44.484375 -57.289062 C 45.125 -56.648438 45.445312 -56.007812 45.765625 -55.367188 C 45.765625 -54.726562 45.765625 -54.085938 46.085938 -53.128906 C 44.484375 -51.847656 43.847656 -49.925781 42.246094 -48.648438 C 42.246094 -48.328125 42.246094 -47.6875 42.246094 -47.367188 C 41.605469 -47.046875 40.964844 -46.726562 40.644531 -46.40625 C 40.003906 -45.765625 39.683594 -44.804688 39.046875 -43.847656 C 38.085938 -43.207031 37.125 -42.566406 36.484375 -41.605469 C 35.523438 -40.003906 34.566406 -38.40625 32.964844 -37.125 C 32.644531 -36.804688 32.644531 -36.164062 32.003906 -35.523438 C 31.683594 -35.203125 31.042969 -35.203125 30.085938 -34.882812 C 30.085938 -34.566406 30.402344 -34.246094 30.402344 -33.925781 C 29.765625 -32.964844 28.804688 -32.324219 28.164062 -31.683594 C 27.523438 -31.042969 26.882812 -30.085938 26.242188 -29.445312 C 25.285156 -28.164062 24.324219 -27.203125 23.683594 -25.921875 C 22.722656 -24.644531 21.761719 -23.683594 21.121094 -22.402344 C 20.484375 -21.441406 19.203125 -20.484375 18.242188 -19.523438 C 17.28125 -18.242188 16.003906 -16.960938 15.042969 -15.363281 C 15.042969 -15.363281 14.722656 -15.363281 14.722656 -15.363281 C 14.082031 -15.042969 13.761719 -14.722656 13.441406 -14.082031 C 13.441406 -13.761719 13.441406 -13.441406 13.441406 -13.121094 C 13.121094 -13.121094 13.121094 -12.800781 13.121094 -12.800781 C 12.480469 -12.160156 11.839844 -11.839844 11.203125 -10.882812 C 10.5625 -9.921875 9.921875 -8.640625 8.640625 -8 C 8.320312 -8 8.320312 -7.359375 8 -7.039062 C 7.039062 -6.082031 6.082031 -4.800781 5.121094 -3.839844 C 4.480469 -3.519531 4.160156 -2.878906 3.839844 -2.558594 C 3.199219 -1.28125 2.242188 0 0.960938 0.640625 C 0.960938 2.242188 -0.320312 2.878906 -0.960938 4.160156 C -1.601562 5.441406 -2.878906 6.082031 -4.160156 7.039062 C -4.160156 7.359375 -3.839844 7.359375 -3.839844 7.679688 C -4.800781 8.640625 -6.082031 9.28125 -6.722656 10.242188 C -7.359375 11.523438 -8.320312 12.160156 -8.960938 13.441406 C -9.601562 14.402344 -11.203125 15.042969 -10.882812 16.320312 C -12.160156 17.28125 -12.800781 17.921875 -13.761719 18.5625 C -15.363281 20.484375 -16.960938 22.722656 -18.5625 24.644531 C -19.203125 25.285156 -19.523438 25.921875 -20.164062 26.242188 C -21.761719 27.523438 -22.082031 28.804688 -21.761719 30.722656 C -22.402344 30.085938 -22.722656 29.765625 -22.722656 29.765625 C -23.363281 30.722656 -24.324219 31.363281 -25.601562 32.003906 C -25.601562 32.324219 -25.601562 32.644531 -25.921875 32.964844 C -27.203125 34.566406 -28.804688 35.84375 -30.402344 37.445312 C -31.042969 37.765625 -31.042969 39.046875 -32.324219 39.367188 C -32.324219 39.683594 -32.324219 40.003906 -32.324219 40.324219 C -32.644531 40.964844 -33.285156 41.285156 -33.605469 41.925781 C -34.246094 42.246094 -34.882812 42.566406 -35.523438 42.886719 C -35.523438 43.527344 -35.523438 43.847656 -35.523438 44.164062 C -36.804688 45.765625 -38.085938 47.046875 -39.367188 48.328125 C -40.003906 48.328125 -40.324219 48.648438 -40.644531 48.648438 C -41.605469 49.925781 -42.566406 51.207031 -43.527344 52.488281 C -43.527344 52.488281 -43.527344 52.808594 -43.527344 52.808594 C -45.445312 54.40625 -47.367188 56.007812 -49.285156 57.609375 C -49.605469 57.609375 -49.925781 57.609375 -50.246094 57.609375 C -50.246094 58.246094 -50.246094 58.566406 -49.925781 59.207031 C -50.246094 59.207031 -50.566406 59.527344 -50.886719 59.847656 C -51.207031 59.527344 -51.207031 59.207031 -51.527344 58.566406 C -51.207031 58.246094 -51.207031 57.609375 -50.886719 57.289062 C -50.246094 56.96875 -49.925781 56.648438 -49.285156 56.328125 C -49.605469 56.328125 -49.925781 56.007812 -49.925781 55.6875 C -48.964844 54.40625 -48.648438 52.808594 -47.6875 51.847656 C -47.367188 51.207031 -47.367188 50.246094 -46.726562 49.285156 C -46.085938 48.007812 -44.804688 47.046875 -44.164062 45.765625 C -43.527344 44.484375 -42.566406 43.527344 -41.605469 42.246094 Z M 75.851562 -92.8125 C 76.171875 -93.773438 76.492188 -93.773438 77.449219 -93.773438 C 77.128906 -92.492188 77.128906 -92.492188 75.851562 -92.8125 Z M 53.445312 -105.292969 C 54.085938 -107.855469 55.367188 -109.773438 56.96875 -111.375 C 56.648438 -111.695312 56.648438 -111.695312 56.328125 -111.695312 C 54.726562 -110.414062 54.085938 -108.175781 52.808594 -106.253906 C 53.128906 -105.933594 53.128906 -105.613281 53.445312 -105.292969 Z M 53.445312 -105.292969 "/></g></g></g><g fill="rgb(43.919373%, 27.839661%, 3.529358%)" fill-opacity="1"><g transform="translate(338.192747, 263.364574)"><g><path d="M 33.285156 -37.445312 C 32.324219 -37.125 31.363281 -36.164062 30.085938 -35.84375 C 29.445312 -35.523438 27.523438 -35.203125 27.203125 -33.925781 C 26.5625 -33.925781 25.921875 -33.925781 24.964844 -33.605469 C 24.324219 -32.964844 23.683594 -32.964844 23.042969 -32.324219 C 22.082031 -31.683594 21.441406 -31.363281 20.804688 -30.722656 C 20.804688 -30.402344 20.804688 -30.402344 20.804688 -30.402344 C 20.484375 -30.402344 20.164062 -30.402344 19.523438 -30.402344 C 18.882812 -29.445312 17.601562 -29.125 16.320312 -28.484375 C 15.683594 -28.164062 15.363281 -27.84375 14.722656 -27.203125 C 14.722656 -26.882812 13.761719 -26.5625 13.121094 -26.242188 C 12.800781 -26.242188 12.160156 -25.921875 12.160156 -25.921875 C 10.882812 -24.964844 9.921875 -24.644531 9.601562 -24.324219 C 7.679688 -23.042969 6.402344 -21.761719 5.121094 -20.804688 C 4.480469 -20.484375 4.160156 -20.164062 4.160156 -20.164062 C 2.878906 -18.242188 2.878906 -18.242188 1.28125 -17.28125 C 1.28125 -17.28125 0.960938 -17.601562 0.640625 -17.601562 C 0 -16.640625 -0.640625 -16.003906 -1.28125 -15.683594 C -1.921875 -15.683594 -2.558594 -14.402344 -3.199219 -14.722656 C -3.839844 -14.402344 -4.160156 -13.441406 -4.160156 -13.121094 C -5.441406 -12.800781 -6.402344 -11.203125 -7.359375 -9.921875 C -8 -8.640625 -8.960938 -7.039062 -10.242188 -5.441406 C -10.242188 -3.839844 -10.5625 -1.28125 -8.640625 0 C -7.359375 0.320312 -6.082031 0.640625 -5.121094 0.960938 C -5.121094 0.960938 -5.121094 0.960938 -4.800781 0.640625 C -4.160156 0.640625 -3.519531 0.640625 -2.558594 0.640625 C -1.921875 0.640625 -1.601562 0.320312 -1.601562 0 C -0.960938 0.320312 -0.640625 0.640625 -0.320312 0.960938 C 0 0.640625 0 0.320312 0.640625 -0.320312 C 0.640625 -0.320312 1.28125 0 1.28125 0 C 2.878906 -0.640625 4.160156 -0.640625 6.082031 -1.28125 C 6.402344 -1.28125 7.039062 -1.28125 7.679688 -1.601562 C 8.320312 -2.242188 9.28125 -2.558594 10.242188 -2.878906 C 10.5625 -2.878906 10.882812 -2.878906 11.203125 -2.878906 C 11.839844 -3.199219 12.160156 -3.839844 12.800781 -4.160156 C 14.402344 -4.160156 18.882812 -6.402344 19.84375 -7.359375 C 21.121094 -7.679688 21.761719 -8 22.402344 -8.320312 C 22.722656 -8.960938 23.363281 -9.601562 23.683594 -9.921875 C 24.003906 -9.921875 24.324219 -9.921875 24.644531 -9.921875 C 25.601562 -10.242188 26.242188 -10.882812 26.5625 -10.882812 C 28.164062 -11.523438 28.804688 -12.800781 30.402344 -12.800781 C 31.042969 -13.761719 31.683594 -14.402344 32.964844 -15.042969 C 33.605469 -15.683594 34.566406 -15.683594 35.203125 -16.640625 C 35.203125 -16.640625 35.523438 -16.640625 35.84375 -16.640625 C 36.484375 -17.28125 37.445312 -17.601562 38.40625 -18.242188 C 39.367188 -19.523438 41.285156 -20.484375 42.566406 -21.761719 C 43.847656 -22.402344 44.484375 -23.363281 45.445312 -24.003906 C 46.40625 -24.644531 47.046875 -25.601562 47.6875 -25.921875 C 48.328125 -26.5625 48.964844 -27.203125 49.925781 -27.203125 C 50.566406 -27.523438 51.207031 -28.164062 52.167969 -29.125 C 52.808594 -29.445312 53.128906 -30.085938 53.445312 -30.085938 C 53.765625 -30.722656 54.726562 -31.683594 56.007812 -31.363281 C 54.085938 -29.125 52.488281 -26.882812 50.566406 -24.644531 C 50.246094 -24.003906 50.246094 -23.363281 49.925781 -22.402344 C 49.605469 -21.441406 48.007812 -21.441406 47.6875 -20.164062 C 47.367188 -18.5625 45.765625 -16.960938 45.445312 -15.683594 C 44.484375 -14.402344 44.484375 -13.121094 44.484375 -12.480469 C 43.207031 -10.242188 43.207031 -8.640625 43.527344 -6.402344 C 43.527344 -6.402344 43.207031 -5.761719 43.527344 -5.121094 C 43.527344 -4.480469 44.164062 -4.160156 44.484375 -3.199219 C 44.484375 -2.558594 45.445312 -1.921875 45.445312 -1.601562 C 46.40625 -1.28125 47.046875 -0.960938 47.367188 -0.640625 C 47.6875 -0.640625 48.328125 -0.320312 48.964844 0 C 49.285156 0 49.925781 0 50.246094 0 C 50.246094 0 50.246094 0 50.566406 0 C 52.808594 0.640625 55.046875 0.640625 56.96875 -0.640625 C 58.246094 0 58.886719 -0.320312 60.167969 -0.960938 C 61.449219 -0.640625 62.726562 -1.28125 64.328125 -1.601562 C 64.96875 -2.242188 66.25 -2.878906 67.527344 -3.199219 C 68.167969 -3.839844 69.449219 -3.839844 70.410156 -4.160156 C 70.410156 -4.160156 70.410156 -4.480469 70.730469 -4.800781 C 70.730469 -4.480469 71.371094 -4.160156 71.691406 -4.160156 C 72.007812 -4.160156 72.007812 -4.480469 72.328125 -4.800781 C 72.648438 -4.480469 72.96875 -4.480469 73.289062 -4.480469 C 73.289062 -4.800781 73.929688 -5.121094 73.929688 -5.441406 C 74.570312 -5.441406 75.210938 -6.082031 76.171875 -6.402344 C 76.171875 -6.402344 76.492188 -6.402344 76.808594 -6.402344 C 77.128906 -6.722656 77.769531 -7.039062 78.410156 -7.039062 C 79.050781 -7.359375 79.371094 -7.679688 80.332031 -8 C 81.609375 -8.640625 82.890625 -8.960938 84.8125 -9.921875 C 85.773438 -10.242188 87.691406 -11.523438 88.972656 -12.480469 C 89.292969 -12.480469 89.292969 -12.800781 89.613281 -12.800781 C 91.210938 -13.121094 92.8125 -14.082031 93.453125 -15.363281 C 95.691406 -16.640625 97.292969 -17.601562 98.894531 -18.5625 C 99.214844 -18.882812 98.894531 -19.523438 98.894531 -20.164062 C 98.574219 -20.164062 98.574219 -20.164062 98.574219 -20.164062 C 96.011719 -18.882812 93.453125 -18.5625 91.53125 -17.28125 C 90.570312 -16.640625 90.253906 -16.640625 89.292969 -16.320312 C 87.050781 -15.683594 85.132812 -14.082031 82.25 -13.441406 C 82.25 -13.441406 81.929688 -13.121094 81.929688 -13.121094 C 80.011719 -12.800781 78.410156 -12.160156 76.492188 -10.882812 C 75.53125 -10.5625 73.929688 -9.921875 73.289062 -9.921875 C 72.007812 -9.921875 70.730469 -9.601562 69.769531 -9.28125 C 69.128906 -8.960938 68.808594 -8.640625 68.488281 -8.320312 C 67.847656 -8 67.527344 -8 67.210938 -8 C 66.25 -7.359375 65.929688 -7.039062 64.96875 -6.402344 C 64.96875 -7.039062 64.96875 -7.359375 64.96875 -7.679688 C 62.410156 -7.039062 59.847656 -6.402344 57.609375 -5.121094 C 56.96875 -5.441406 56.96875 -5.761719 56.96875 -6.402344 C 55.367188 -5.121094 54.40625 -5.121094 53.128906 -6.402344 C 52.167969 -6.722656 51.527344 -7.039062 50.566406 -7.039062 C 49.925781 -7.039062 49.285156 -7.679688 48.964844 -8.640625 C 48.964844 -9.28125 48.964844 -9.921875 48.964844 -10.242188 C 48.964844 -11.203125 49.285156 -12.480469 49.925781 -13.121094 C 50.246094 -15.363281 51.207031 -16.960938 52.488281 -18.5625 C 53.128906 -19.523438 53.765625 -20.804688 54.40625 -21.761719 C 56.007812 -24.324219 57.609375 -26.242188 59.207031 -28.484375 C 60.167969 -29.445312 60.488281 -30.085938 61.128906 -30.402344 C 61.769531 -31.042969 61.769531 -31.683594 62.726562 -32.003906 C 63.367188 -33.925781 64.648438 -35.203125 66.25 -35.84375 C 67.210938 -36.484375 67.527344 -37.445312 68.167969 -38.40625 C 68.167969 -38.726562 68.488281 -38.726562 68.167969 -39.046875 C 68.808594 -39.683594 69.128906 -39.683594 69.449219 -39.683594 C 70.410156 -41.605469 70.730469 -42.886719 72.007812 -43.847656 C 72.328125 -45.125 73.289062 -46.40625 73.289062 -47.367188 C 72.96875 -48.648438 71.371094 -48.328125 70.730469 -49.605469 C 70.089844 -48.964844 69.769531 -48.648438 68.808594 -48.328125 C 68.488281 -47.6875 68.808594 -47.6875 68.808594 -47.6875 C 67.847656 -46.726562 67.210938 -45.765625 66.25 -45.125 C 66.570312 -44.484375 66.25 -43.207031 64.96875 -42.566406 C 65.289062 -43.207031 64.96875 -43.847656 65.289062 -44.484375 C 64.648438 -45.125 63.6875 -45.765625 62.410156 -45.765625 C 61.769531 -45.765625 61.769531 -45.765625 61.128906 -45.765625 C 60.488281 -45.445312 60.167969 -45.445312 59.207031 -45.445312 C 59.207031 -45.445312 58.886719 -45.445312 58.886719 -45.445312 C 58.246094 -45.445312 57.929688 -45.445312 57.289062 -45.445312 C 56.328125 -45.445312 56.007812 -45.445312 55.046875 -44.804688 C 53.445312 -44.484375 52.488281 -44.484375 50.886719 -43.847656 C 48.964844 -43.207031 46.726562 -43.207031 44.484375 -41.925781 C 44.164062 -41.605469 43.207031 -41.605469 41.925781 -41.285156 C 41.285156 -40.964844 40.003906 -40.964844 39.046875 -39.683594 C 39.046875 -39.683594 38.726562 -39.683594 38.726562 -39.683594 C 37.445312 -39.367188 36.164062 -38.726562 35.203125 -38.40625 C 34.882812 -38.40625 34.566406 -37.765625 34.246094 -37.445312 C 33.925781 -37.445312 33.925781 -37.445312 33.925781 -37.445312 C 33.925781 -37.445312 33.605469 -37.445312 33.285156 -37.445312 Z M 53.128906 -34.882812 C 52.488281 -34.246094 52.488281 -33.925781 51.847656 -32.964844 C 51.527344 -32.964844 51.207031 -32.964844 50.886719 -32.964844 C 50.246094 -32.324219 49.925781 -32.003906 48.964844 -31.683594 C 48.648438 -31.363281 47.6875 -30.722656 47.367188 -30.402344 C 47.046875 -29.765625 46.726562 -29.445312 45.445312 -28.484375 C 44.484375 -27.523438 43.207031 -26.882812 41.605469 -25.601562 C 40.964844 -25.285156 40.644531 -24.644531 40.324219 -24.324219 C 39.683594 -24.324219 38.726562 -24.003906 38.726562 -23.683594 C 37.445312 -22.402344 36.164062 -21.441406 34.882812 -20.804688 C 34.566406 -20.804688 34.246094 -20.484375 33.925781 -20.164062 C 32.964844 -19.523438 32.644531 -18.882812 31.363281 -18.5625 C 31.042969 -18.5625 30.722656 -18.5625 30.722656 -18.242188 C 29.445312 -16.640625 27.203125 -16.320312 24.964844 -15.363281 C 24.964844 -15.363281 24.644531 -14.722656 24.324219 -14.402344 C 21.761719 -14.402344 20.484375 -12.480469 18.882812 -11.203125 C 18.5625 -11.523438 18.242188 -11.523438 17.921875 -11.839844 C 16.640625 -10.882812 15.683594 -10.242188 14.402344 -9.921875 C 14.402344 -9.921875 13.441406 -9.921875 13.121094 -9.921875 C 12.800781 -9.921875 12.480469 -9.921875 11.839844 -9.28125 C 10.5625 -9.601562 9.601562 -8.640625 8.320312 -8.960938 C 7.359375 -8.640625 7.039062 -8.320312 6.402344 -8.640625 C 6.082031 -8.640625 5.761719 -8.320312 5.441406 -8 C 4.800781 -8 4.160156 -8 3.519531 -8 C 3.199219 -7.359375 3.199219 -7.359375 2.878906 -7.039062 C 2.878906 -6.722656 3.839844 -6.402344 3.839844 -5.761719 C 2.878906 -5.441406 2.242188 -5.121094 1.601562 -4.800781 C 1.28125 -5.121094 1.28125 -5.121094 0.960938 -5.441406 C 0.640625 -5.121094 0 -5.121094 -0.320312 -5.121094 C -0.640625 -5.121094 -1.28125 -5.121094 -1.601562 -5.121094 C -1.601562 -5.121094 -2.242188 -5.441406 -2.878906 -5.761719 C -2.878906 -5.761719 -3.199219 -5.761719 -3.839844 -5.441406 C -4.160156 -5.761719 -4.480469 -6.082031 -4.480469 -6.402344 C -4.480469 -6.722656 -4.160156 -7.039062 -3.839844 -7.039062 C -3.839844 -7.359375 -3.839844 -7.679688 -3.839844 -8 C -1.28125 -10.882812 1.601562 -12.800781 4.160156 -15.363281 C 4.480469 -15.683594 5.121094 -16.003906 5.761719 -16.640625 C 8 -17.921875 9.921875 -19.523438 12.480469 -21.441406 C 13.761719 -22.082031 15.363281 -23.042969 16.640625 -23.683594 C 17.601562 -24.003906 18.5625 -24.644531 19.203125 -25.285156 C 21.441406 -26.242188 22.722656 -27.203125 24.644531 -28.164062 C 25.921875 -28.164062 26.882812 -29.125 27.203125 -29.445312 C 28.484375 -30.085938 29.445312 -30.402344 30.402344 -31.042969 C 31.363281 -31.042969 32.003906 -31.683594 32.964844 -32.324219 C 34.246094 -32.964844 35.84375 -33.605469 37.445312 -34.246094 C 38.726562 -34.566406 39.367188 -35.203125 40.644531 -35.523438 C 41.605469 -35.84375 41.925781 -35.84375 43.207031 -36.484375 C 44.804688 -36.164062 46.085938 -37.445312 47.367188 -38.40625 C 49.285156 -38.726562 50.566406 -38.726562 52.488281 -39.046875 C 53.765625 -39.683594 55.6875 -39.683594 56.96875 -40.324219 C 56.96875 -40.003906 57.289062 -40.003906 57.609375 -40.003906 C 58.886719 -40.644531 59.847656 -40.964844 61.128906 -41.605469 C 61.128906 -41.605469 61.449219 -41.605469 61.769531 -41.605469 C 60.808594 -39.683594 58.886719 -39.046875 57.929688 -38.085938 C 57.929688 -38.085938 57.929688 -37.765625 57.929688 -37.445312 C 56.648438 -36.804688 56.007812 -36.164062 55.046875 -36.164062 C 54.726562 -35.84375 53.445312 -35.203125 53.128906 -34.882812 Z M 76.492188 -76.492188 C 76.492188 -76.808594 76.492188 -76.808594 76.492188 -76.808594 C 76.492188 -77.128906 76.171875 -77.449219 75.851562 -77.449219 C 75.851562 -78.089844 75.851562 -78.410156 75.53125 -78.730469 C 76.171875 -80.011719 76.171875 -80.652344 76.171875 -80.972656 C 75.53125 -81.609375 74.890625 -81.929688 74.890625 -82.25 C 74.890625 -83.210938 74.25 -83.53125 73.929688 -83.851562 C 72.96875 -83.851562 72.328125 -84.171875 71.050781 -83.53125 C 70.730469 -83.210938 71.371094 -81.929688 70.089844 -81.289062 C 70.089844 -80.652344 70.089844 -80.011719 70.089844 -79.050781 C 70.730469 -78.089844 71.050781 -77.128906 71.050781 -75.851562 C 70.730469 -75.53125 70.730469 -75.210938 70.410156 -74.570312 C 68.488281 -74.25 67.210938 -73.929688 65.609375 -73.609375 C 64.96875 -73.609375 64.328125 -73.929688 63.6875 -73.929688 C 63.367188 -74.25 63.367188 -74.570312 63.046875 -74.570312 C 63.046875 -74.570312 62.726562 -74.570312 62.410156 -74.570312 C 61.769531 -75.53125 60.167969 -75.851562 59.527344 -77.449219 C 59.527344 -77.449219 59.207031 -77.449219 59.207031 -77.769531 C 58.886719 -78.730469 58.246094 -80.011719 57.929688 -80.972656 C 57.929688 -80.972656 57.609375 -80.972656 57.609375 -81.289062 C 57.289062 -81.289062 56.96875 -80.972656 56.96875 -80.972656 C 56.328125 -81.609375 56.328125 -82.25 55.6875 -82.570312 C 54.726562 -82.890625 54.085938 -83.210938 53.445312 -83.210938 C 53.445312 -83.53125 52.808594 -83.53125 52.167969 -83.210938 C 51.207031 -82.890625 50.566406 -83.210938 49.925781 -83.210938 C 49.285156 -82.25 48.648438 -81.929688 48.007812 -81.609375 C 47.367188 -81.289062 46.40625 -80.972656 45.765625 -80.652344 C 44.804688 -79.371094 43.207031 -78.410156 41.925781 -77.449219 C 41.925781 -76.808594 41.925781 -76.492188 41.925781 -76.171875 C 41.925781 -75.851562 41.605469 -75.851562 41.605469 -75.851562 C 41.605469 -74.890625 40.964844 -74.25 40.644531 -73.609375 C 40.644531 -72.96875 40.644531 -72.007812 40.324219 -71.371094 C 40.324219 -70.730469 40.644531 -70.089844 40.644531 -69.128906 C 40.964844 -68.808594 41.925781 -68.488281 42.246094 -68.167969 C 42.886719 -68.167969 43.207031 -68.488281 43.527344 -68.808594 C 44.484375 -69.769531 44.484375 -71.050781 45.445312 -71.691406 C 45.445312 -72.007812 45.125 -72.007812 45.125 -72.328125 C 45.445312 -73.289062 45.765625 -74.25 46.085938 -74.890625 C 46.726562 -75.53125 47.046875 -75.851562 47.6875 -75.851562 C 48.328125 -76.492188 49.605469 -77.128906 50.566406 -77.449219 C 50.886719 -77.769531 51.207031 -78.089844 51.847656 -78.089844 C 52.167969 -77.769531 52.167969 -77.449219 52.488281 -77.449219 C 53.128906 -77.449219 53.445312 -77.449219 53.445312 -77.449219 C 54.726562 -77.449219 54.726562 -75.851562 56.328125 -75.53125 C 56.328125 -74.570312 56.648438 -73.609375 57.289062 -72.96875 C 59.207031 -71.691406 60.488281 -70.089844 61.769531 -69.128906 C 63.6875 -68.808594 64.96875 -68.808594 66.570312 -68.808594 C 68.167969 -69.449219 69.769531 -69.769531 71.050781 -70.089844 C 71.691406 -71.050781 72.96875 -71.050781 73.609375 -71.371094 C 74.25 -72.007812 74.25 -72.648438 74.570312 -73.289062 C 74.890625 -74.25 75.851562 -75.210938 76.171875 -76.171875 C 76.171875 -76.492188 76.492188 -76.492188 76.492188 -76.492188 Z M 76.492188 -76.492188 "/></g></g></g><g fill="rgb(43.919373%, 27.839661%, 3.529358%)" fill-opacity="1"><g transform="translate(441.246476, 263.364574)"><g><path d="M 6.402344 0.320312 C 6.402344 0.320312 6.722656 0.320312 6.722656 0.320312 C 8 0.320312 9.601562 0 10.882812 0 C 11.203125 -0.320312 11.839844 -0.320312 12.160156 -0.320312 L 12.480469 -0.640625 C 12.800781 -0.640625 13.441406 -0.640625 13.441406 -0.640625 C 14.722656 -0.640625 16.003906 -0.960938 16.960938 -1.28125 C 17.601562 -1.28125 18.242188 -1.601562 18.5625 -1.601562 C 21.121094 -1.921875 22.402344 -2.242188 23.042969 -3.199219 C 23.363281 -3.199219 23.683594 -3.199219 23.683594 -3.199219 C 24.324219 -3.199219 24.964844 -3.199219 24.964844 -3.199219 C 26.242188 -3.519531 27.203125 -3.839844 28.164062 -4.480469 C 28.484375 -4.480469 28.804688 -4.480469 29.125 -4.480469 C 29.125 -4.480469 29.125 -4.480469 29.445312 -4.480469 L 30.085938 -5.761719 C 32.003906 -6.082031 33.925781 -7.039062 35.203125 -7.679688 C 35.84375 -8 36.164062 -8.320312 36.804688 -8.640625 L 37.125 -8.640625 L 36.484375 -9.601562 C 39.046875 -9.921875 41.285156 -10.882812 43.527344 -12.160156 C 44.164062 -12.160156 45.125 -12.800781 45.765625 -13.121094 L 46.40625 -14.402344 C 47.6875 -14.722656 49.285156 -15.363281 50.246094 -16.003906 C 50.566406 -16.003906 50.566406 -16.003906 51.527344 -16.320312 L 51.847656 -17.28125 L 54.726562 -17.601562 L 55.046875 -17.601562 C 55.6875 -18.242188 56.648438 -18.5625 57.289062 -19.203125 C 58.246094 -19.84375 58.886719 -20.484375 60.167969 -20.804688 C 60.808594 -21.761719 62.089844 -22.402344 63.367188 -23.363281 C 64.007812 -23.683594 64.96875 -24.003906 65.289062 -24.644531 C 65.609375 -24.644531 65.609375 -24.644531 65.609375 -24.644531 C 66.890625 -24.644531 67.210938 -25.285156 67.847656 -25.601562 L 69.769531 -26.242188 L 68.808594 -28.164062 L 67.210938 -27.203125 C 67.210938 -27.203125 67.210938 -27.203125 66.890625 -27.203125 C 66.25 -27.203125 65.929688 -26.882812 64.96875 -26.5625 C 64.96875 -26.242188 64.96875 -26.242188 64.648438 -26.242188 C 64.328125 -26.242188 64.007812 -26.242188 63.6875 -25.921875 C 63.367188 -25.921875 63.046875 -25.601562 62.726562 -25.285156 C 62.410156 -24.964844 62.089844 -24.964844 61.449219 -24.964844 C 60.808594 -24.644531 60.488281 -24.324219 60.167969 -24.003906 C 59.527344 -24.003906 59.527344 -24.003906 58.886719 -23.683594 L 58.566406 -23.363281 L 57.929688 -23.363281 L 55.6875 -21.761719 L 54.726562 -20.804688 L 54.085938 -21.441406 C 53.765625 -21.121094 53.128906 -21.121094 52.488281 -20.804688 C 51.527344 -20.484375 50.886719 -20.164062 50.566406 -19.523438 C 50.566406 -19.523438 50.246094 -19.523438 50.246094 -19.523438 C 49.925781 -19.203125 49.605469 -19.203125 49.285156 -18.882812 C 49.285156 -18.882812 49.285156 -18.882812 48.964844 -18.882812 L 48.648438 -18.882812 C 48.328125 -18.882812 48.328125 -18.882812 48.007812 -18.5625 C 48.007812 -18.5625 47.6875 -18.5625 47.6875 -18.5625 C 47.6875 -18.5625 47.367188 -18.5625 47.367188 -18.5625 C 47.046875 -18.5625 46.726562 -18.5625 46.726562 -18.5625 L 46.085938 -16.960938 L 45.445312 -17.601562 L 40.324219 -15.042969 L 40.003906 -15.363281 L 39.683594 -15.363281 C 39.046875 -15.042969 39.046875 -15.042969 39.046875 -14.722656 C 38.40625 -14.722656 37.765625 -14.722656 37.765625 -14.402344 C 36.804688 -14.082031 36.484375 -13.761719 36.164062 -13.441406 C 36.164062 -13.441406 35.523438 -13.441406 35.523438 -13.121094 C 35.523438 -12.800781 35.203125 -12.480469 35.203125 -12.480469 C 34.566406 -12.480469 34.246094 -12.480469 33.925781 -12.160156 C 33.605469 -12.160156 33.925781 -12.160156 33.285156 -12.160156 C 32.644531 -12.160156 31.683594 -11.523438 31.042969 -10.882812 C 30.722656 -10.5625 30.085938 -10.242188 29.125 -9.921875 C 28.484375 -9.601562 27.523438 -9.601562 26.882812 -8.320312 C 26.5625 -8.640625 26.242188 -8.640625 25.921875 -8.640625 C 25.285156 -8.640625 24.964844 -8.320312 24.644531 -8.320312 L 23.683594 -8.320312 L 17.921875 -5.761719 L 16.003906 -6.082031 C 15.363281 -6.082031 15.042969 -5.761719 14.722656 -5.761719 C 13.121094 -5.761719 11.839844 -5.441406 10.5625 -5.121094 C 9.28125 -5.121094 8 -4.800781 6.722656 -4.800781 C 5.761719 -4.800781 5.441406 -4.800781 4.800781 -4.800781 C 4.480469 -4.800781 4.160156 -5.121094 3.519531 -5.121094 C 2.878906 -5.121094 1.921875 -5.441406 1.601562 -5.761719 C 0.640625 -7.359375 0.960938 -9.28125 1.28125 -10.882812 C 1.28125 -10.882812 1.601562 -11.203125 1.921875 -11.523438 C 2.242188 -13.121094 2.558594 -14.722656 3.199219 -16.320312 C 2.878906 -16.960938 3.199219 -17.601562 3.839844 -17.921875 C 5.121094 -18.5625 5.761719 -19.84375 5.761719 -21.761719 C 5.761719 -22.082031 6.082031 -22.402344 6.402344 -22.402344 C 6.722656 -22.722656 7.039062 -23.363281 7.359375 -23.683594 C 8 -24.003906 8 -24.324219 8.320312 -24.644531 C 8.960938 -24.964844 9.601562 -25.285156 9.601562 -26.242188 C 9.601562 -26.242188 9.921875 -26.5625 10.5625 -26.5625 C 10.882812 -26.5625 10.882812 -26.5625 10.882812 -26.882812 C 11.203125 -26.882812 11.839844 -26.882812 12.160156 -26.882812 C 12.160156 -26.882812 12.160156 -27.203125 12.480469 -27.203125 L 15.363281 -26.242188 L 18.5625 -26.242188 L 19.84375 -26.882812 L 22.402344 -26.882812 L 22.722656 -26.5625 L 24.964844 -27.523438 L 30.402344 -28.484375 L 31.363281 -29.445312 L 32.644531 -29.445312 L 34.246094 -30.085938 L 36.484375 -30.085938 C 36.804688 -30.402344 37.445312 -31.042969 37.445312 -31.363281 C 38.085938 -32.003906 38.726562 -32.644531 40.003906 -32.644531 L 40.324219 -32.644531 L 40.324219 -33.605469 L 45.445312 -33.605469 L 45.445312 -34.566406 C 45.765625 -34.566406 45.765625 -34.566406 46.085938 -34.566406 C 47.6875 -34.566406 48.007812 -35.203125 48.648438 -36.164062 C 49.925781 -36.164062 50.886719 -36.484375 51.527344 -36.804688 L 50.886719 -37.765625 L 51.847656 -37.445312 C 51.847656 -37.445312 52.167969 -37.445312 52.167969 -37.445312 C 53.128906 -37.765625 54.085938 -38.085938 54.40625 -39.046875 C 54.40625 -39.367188 54.726562 -39.683594 55.367188 -39.683594 C 55.6875 -40.003906 56.96875 -40.324219 56.96875 -40.964844 C 57.929688 -41.285156 58.246094 -41.605469 58.566406 -41.605469 L 58.886719 -41.605469 C 59.527344 -41.925781 60.808594 -42.566406 60.808594 -43.527344 C 60.808594 -43.847656 60.808594 -43.847656 61.449219 -44.164062 C 61.449219 -44.164062 61.449219 -44.164062 61.769531 -44.164062 C 61.769531 -44.164062 62.089844 -44.484375 62.089844 -44.484375 C 62.089844 -45.125 62.410156 -45.445312 62.726562 -45.445312 C 62.726562 -45.765625 63.367188 -46.40625 63.367188 -46.726562 C 63.6875 -46.726562 63.6875 -47.046875 63.6875 -47.6875 C 64.648438 -48.007812 64.648438 -48.328125 64.96875 -49.285156 C 64.96875 -49.285156 65.289062 -49.605469 65.929688 -49.925781 L 65.609375 -51.847656 L 64.328125 -53.128906 L 60.808594 -53.765625 L 58.566406 -53.128906 L 57.609375 -53.445312 C 57.289062 -53.445312 56.96875 -53.445312 56.96875 -53.445312 C 56.328125 -53.128906 55.6875 -53.128906 55.6875 -53.128906 L 55.367188 -53.128906 C 54.40625 -53.128906 52.808594 -53.128906 51.527344 -52.167969 C 51.527344 -52.167969 51.207031 -52.167969 50.886719 -52.167969 C 50.566406 -52.167969 50.566406 -52.167969 50.566406 -52.167969 C 49.925781 -52.167969 49.285156 -51.847656 49.285156 -51.847656 C 48.648438 -51.847656 48.648438 -51.847656 48.007812 -51.847656 C 46.726562 -51.847656 45.765625 -51.527344 45.125 -50.886719 C 45.125 -50.886719 44.804688 -50.886719 44.484375 -50.886719 C 44.164062 -50.566406 44.164062 -50.566406 43.847656 -50.566406 C 43.847656 -50.566406 43.847656 -50.566406 43.527344 -50.566406 C 42.886719 -50.566406 42.566406 -50.566406 41.925781 -50.246094 C 41.605469 -49.925781 41.605469 -49.925781 41.285156 -49.925781 C 40.324219 -49.605469 40.003906 -49.285156 39.683594 -49.285156 C 39.683594 -49.285156 39.046875 -49.285156 39.046875 -48.964844 C 38.726562 -48.964844 37.765625 -48.648438 37.765625 -48.648438 C 36.804688 -48.328125 36.164062 -48.007812 35.203125 -47.6875 C 34.882812 -46.726562 33.605469 -46.726562 32.644531 -46.085938 C 31.042969 -45.765625 29.765625 -45.125 28.804688 -44.164062 C 28.804688 -44.164062 28.484375 -44.164062 28.164062 -44.164062 C 27.523438 -44.164062 27.203125 -43.847656 26.882812 -43.527344 L 26.5625 -43.527344 C 24.964844 -42.566406 23.363281 -41.605469 21.441406 -40.644531 L 19.84375 -39.367188 C 19.523438 -39.367188 19.523438 -39.367188 19.523438 -39.367188 C 18.882812 -39.046875 18.882812 -39.046875 18.5625 -39.046875 C 18.5625 -38.40625 17.28125 -37.765625 16.320312 -37.445312 C 15.683594 -36.804688 14.722656 -36.484375 14.082031 -35.523438 C 13.441406 -35.203125 13.121094 -34.882812 12.480469 -34.566406 C 12.160156 -34.246094 12.160156 -34.246094 11.839844 -33.925781 C 11.523438 -33.925781 11.203125 -33.925781 11.203125 -33.605469 C 10.882812 -33.605469 10.5625 -33.285156 10.242188 -33.285156 C 9.921875 -32.964844 9.601562 -32.644531 9.601562 -32.644531 C 8.320312 -31.363281 7.039062 -30.402344 5.761719 -29.445312 C 4.800781 -28.164062 3.519531 -26.882812 1.921875 -25.601562 C 1.921875 -25.285156 1.921875 -24.964844 1.921875 -24.964844 C 1.601562 -24.964844 1.601562 -24.964844 1.28125 -24.964844 L -1.601562 -20.804688 L -1.28125 -19.84375 L -1.921875 -19.523438 C -1.921875 -19.203125 -2.242188 -18.882812 -2.558594 -18.5625 C -3.199219 -18.242188 -3.199219 -17.601562 -3.839844 -17.28125 C -4.480469 -16.003906 -5.121094 -14.722656 -5.441406 -13.441406 C -5.121094 -12.800781 -5.441406 -12.480469 -5.441406 -12.160156 C -5.761719 -11.203125 -5.761719 -10.882812 -5.761719 -9.921875 C -5.761719 -8.960938 -5.761719 -8 -5.761719 -7.039062 C -5.761719 -6.402344 -5.761719 -6.082031 -5.761719 -5.761719 L -5.761719 -5.441406 C -5.761719 -5.441406 -5.761719 -5.441406 -5.441406 -5.121094 C -5.121094 -4.800781 -4.800781 -4.480469 -4.480469 -4.480469 C -4.480469 -3.839844 -4.160156 -3.519531 -3.839844 -3.199219 C -3.519531 -3.199219 -3.199219 -3.199219 -3.199219 -2.878906 C -1.921875 -1.28125 -0.320312 -0.320312 0.640625 -0.320312 C 1.921875 0 3.199219 0 3.839844 0 C 3.839844 0.320312 4.160156 0.320312 4.480469 0.320312 C 4.480469 0.320312 4.800781 0.320312 5.121094 0.320312 C 5.761719 0.320312 5.761719 0.320312 6.402344 0.320312 Z M 23.363281 -36.484375 L 24.003906 -37.445312 L 24.964844 -37.445312 L 25.921875 -38.085938 L 26.242188 -37.765625 C 26.882812 -38.085938 27.203125 -38.085938 27.84375 -38.40625 C 28.484375 -38.726562 29.125 -39.046875 30.085938 -39.046875 C 30.722656 -39.683594 31.363281 -40.324219 32.003906 -40.644531 C 32.003906 -40.964844 32.644531 -41.285156 32.964844 -41.605469 C 34.246094 -41.605469 35.523438 -42.246094 37.125 -42.886719 C 37.765625 -43.207031 37.765625 -43.527344 38.085938 -43.527344 C 38.40625 -43.847656 38.726562 -43.847656 39.046875 -44.164062 C 39.683594 -44.164062 40.003906 -44.164062 40.324219 -44.164062 C 40.644531 -44.804688 41.605469 -45.125 42.566406 -45.445312 C 43.207031 -46.085938 44.164062 -46.40625 45.125 -46.40625 C 45.445312 -46.726562 45.765625 -46.726562 46.40625 -46.726562 C 46.726562 -46.726562 47.367188 -46.726562 47.6875 -47.046875 C 48.007812 -47.046875 48.007812 -47.046875 48.328125 -47.046875 C 48.964844 -47.367188 49.285156 -47.367188 49.285156 -47.367188 C 50.246094 -47.6875 50.886719 -48.007812 51.527344 -48.007812 C 51.527344 -48.007812 51.847656 -48.007812 51.847656 -48.007812 C 52.167969 -48.007812 52.808594 -48.007812 53.128906 -48.007812 C 53.445312 -48.007812 53.765625 -48.328125 54.085938 -48.328125 C 54.40625 -48.328125 54.40625 -48.328125 54.726562 -48.007812 C 54.726562 -48.007812 54.726562 -48.007812 55.046875 -48.007812 C 55.367188 -48.007812 55.367188 -48.328125 55.6875 -48.328125 C 55.6875 -48.648438 56.328125 -48.648438 56.648438 -48.648438 C 56.96875 -48.648438 56.96875 -48.648438 56.96875 -48.648438 L 56.328125 -46.726562 C 54.40625 -45.765625 53.445312 -45.125 52.808594 -44.164062 C 52.167969 -43.847656 51.847656 -43.527344 51.847656 -43.207031 C 50.886719 -42.886719 50.566406 -42.566406 50.246094 -42.246094 C 49.925781 -41.925781 49.605469 -41.605469 49.285156 -41.285156 C 49.285156 -41.285156 48.964844 -40.964844 48.648438 -40.964844 L 48.007812 -41.605469 C 48.007812 -41.605469 47.6875 -41.285156 47.367188 -40.964844 C 47.046875 -40.644531 46.726562 -40.324219 46.726562 -40.324219 C 45.765625 -40.003906 45.445312 -40.003906 45.125 -39.683594 C 44.164062 -39.367188 42.886719 -39.046875 41.925781 -38.40625 C 41.605469 -38.40625 41.605469 -38.085938 41.285156 -38.085938 C 40.964844 -37.765625 40.324219 -37.765625 40.324219 -37.765625 C 40.003906 -37.445312 40.003906 -37.445312 39.683594 -37.445312 L 39.046875 -37.445312 L 37.765625 -36.484375 C 37.765625 -36.484375 37.765625 -36.484375 37.445312 -36.484375 C 35.84375 -36.484375 34.566406 -35.84375 33.285156 -35.203125 C 32.964844 -34.566406 32.324219 -34.246094 31.363281 -33.925781 L 31.042969 -34.246094 C 30.722656 -34.246094 30.402344 -34.246094 30.085938 -34.246094 C 30.085938 -34.246094 29.445312 -33.925781 28.804688 -33.925781 C 28.164062 -33.925781 27.523438 -33.605469 26.242188 -33.285156 C 25.601562 -32.964844 24.964844 -32.644531 24.003906 -32.324219 C 23.042969 -32.003906 22.402344 -31.683594 21.121094 -31.363281 C 20.804688 -31.363281 20.484375 -31.042969 20.164062 -31.042969 C 19.84375 -31.042969 19.84375 -31.042969 19.523438 -31.363281 C 19.203125 -31.363281 19.203125 -31.363281 18.882812 -31.363281 C 18.5625 -31.363281 18.5625 -31.363281 18.242188 -31.363281 C 17.921875 -31.042969 17.921875 -31.042969 17.601562 -31.042969 C 17.921875 -31.363281 17.601562 -31.363281 18.242188 -31.683594 C 18.882812 -32.644531 19.523438 -33.605469 20.164062 -33.925781 C 20.484375 -33.925781 20.804688 -33.925781 20.804688 -34.246094 C 21.121094 -34.566406 21.121094 -34.566406 21.121094 -34.566406 C 21.761719 -35.203125 22.402344 -35.84375 23.363281 -36.484375 Z M 70.730469 -27.203125 C 70.730469 -27.203125 71.050781 -27.203125 71.050781 -27.203125 L 70.730469 -28.804688 L 69.449219 -27.84375 C 69.769531 -27.523438 70.089844 -27.203125 70.730469 -27.203125 Z M 70.730469 -27.203125 "/></g></g></g><g fill="rgb(43.919373%, 27.839661%, 3.529358%)" fill-opacity="1"><g transform="translate(508.455393, 263.364574)"><g><path d="M 62.089844 -24.003906 C 62.089844 -24.324219 62.410156 -24.964844 62.726562 -24.964844 C 63.6875 -24.964844 64.328125 -25.601562 64.96875 -25.921875 C 65.929688 -25.921875 67.210938 -25.921875 68.167969 -26.242188 C 68.167969 -26.242188 67.527344 -26.5625 67.847656 -27.203125 C 68.488281 -27.523438 68.808594 -27.523438 69.449219 -27.84375 C 71.050781 -27.84375 73.289062 -28.804688 74.890625 -30.085938 C 74.25 -30.402344 74.25 -31.042969 73.929688 -31.363281 C 73.609375 -31.363281 73.609375 -31.363281 73.289062 -31.363281 C 72.96875 -31.042969 72.648438 -30.722656 72.328125 -30.085938 C 70.410156 -30.402344 68.488281 -30.085938 67.527344 -28.484375 C 67.210938 -28.484375 67.210938 -28.804688 65.929688 -28.804688 C 65.929688 -28.484375 65.609375 -28.164062 64.96875 -27.523438 C 63.367188 -27.523438 62.089844 -26.242188 59.527344 -26.5625 C 59.207031 -26.242188 58.246094 -25.601562 57.289062 -24.964844 C 56.96875 -24.964844 56.328125 -24.964844 55.6875 -24.964844 C 55.367188 -24.644531 55.046875 -24.324219 55.046875 -24.003906 C 54.40625 -24.003906 53.765625 -24.324219 53.445312 -24.324219 C 52.808594 -23.683594 52.167969 -23.363281 51.847656 -22.722656 C 50.566406 -22.722656 49.285156 -22.402344 48.007812 -22.082031 C 47.367188 -21.121094 45.765625 -21.761719 45.125 -20.804688 C 44.484375 -21.121094 44.164062 -21.121094 44.164062 -21.121094 C 42.246094 -19.84375 40.644531 -20.164062 39.046875 -19.203125 C 39.046875 -19.203125 38.726562 -19.203125 38.085938 -19.523438 C 37.765625 -18.882812 37.765625 -18.5625 37.445312 -18.242188 C 36.804688 -18.5625 36.484375 -18.5625 36.484375 -18.5625 C 36.164062 -18.5625 35.84375 -18.242188 35.523438 -17.921875 C 33.925781 -17.921875 32.644531 -17.921875 31.363281 -17.28125 C 30.402344 -16.640625 29.765625 -16.320312 28.804688 -16.320312 C 27.84375 -16.003906 27.203125 -16.003906 26.5625 -16.003906 C 24.003906 -15.042969 21.441406 -14.722656 19.203125 -13.121094 C 18.882812 -13.121094 18.5625 -12.800781 18.242188 -12.800781 C 17.28125 -12.800781 16.640625 -13.121094 16.320312 -13.121094 C 15.363281 -14.082031 14.722656 -14.722656 14.082031 -15.683594 C 13.441406 -16.320312 13.121094 -17.601562 12.160156 -17.921875 C 10.882812 -19.523438 9.921875 -21.121094 9.28125 -22.722656 C 9.601562 -22.722656 9.601562 -23.042969 9.601562 -23.363281 C 8.960938 -24.324219 8.320312 -25.601562 8.320312 -26.242188 C 8.320312 -28.164062 8.320312 -29.445312 8.640625 -31.042969 C 9.28125 -31.363281 9.28125 -31.363281 9.601562 -31.363281 C 9.921875 -31.683594 9.921875 -32.003906 10.242188 -32.644531 C 10.5625 -33.285156 11.203125 -33.925781 12.160156 -34.882812 C 14.082031 -34.882812 15.363281 -36.484375 17.28125 -36.804688 C 17.28125 -37.125 17.601562 -37.765625 17.601562 -37.765625 C 18.5625 -37.765625 19.523438 -38.085938 19.84375 -38.726562 C 21.441406 -39.367188 22.722656 -39.683594 24.324219 -40.324219 C 24.964844 -40.324219 25.921875 -40.644531 26.242188 -41.285156 C 27.84375 -41.285156 28.804688 -41.605469 30.085938 -42.246094 C 30.722656 -42.566406 31.363281 -42.566406 31.683594 -42.886719 C 32.324219 -42.886719 32.964844 -42.886719 33.925781 -43.207031 C 33.925781 -43.207031 33.925781 -43.527344 34.246094 -43.527344 C 36.804688 -44.164062 39.046875 -44.164062 41.285156 -44.804688 C 42.246094 -45.125 43.207031 -44.804688 44.164062 -45.445312 C 44.164062 -45.445312 44.804688 -45.445312 44.804688 -45.445312 C 45.445312 -45.765625 46.726562 -45.445312 47.6875 -46.085938 C 49.285156 -45.445312 50.566406 -46.40625 52.488281 -46.726562 C 53.128906 -46.726562 54.085938 -46.726562 54.40625 -47.367188 C 54.726562 -47.6875 55.367188 -47.6875 55.6875 -47.6875 C 56.007812 -47.6875 56.96875 -47.367188 57.609375 -47.367188 C 64.648438 -49.285156 72.328125 -49.285156 79.691406 -48.964844 C 79.050781 -49.605469 79.371094 -50.566406 79.371094 -50.886719 C 78.730469 -51.847656 77.449219 -52.167969 76.492188 -52.488281 C 74.25 -52.488281 72.007812 -52.808594 69.769531 -52.808594 C 67.210938 -52.808594 64.96875 -52.488281 62.726562 -52.488281 C 60.808594 -52.167969 58.886719 -52.167969 56.96875 -51.847656 C 55.6875 -51.847656 55.046875 -51.847656 53.445312 -51.527344 C 53.128906 -51.847656 52.488281 -51.847656 51.847656 -51.847656 C 51.527344 -51.847656 50.566406 -51.527344 50.246094 -51.207031 C 49.605469 -51.207031 49.285156 -51.207031 48.964844 -51.207031 C 48.007812 -50.886719 47.367188 -50.566406 46.726562 -50.886719 C 46.726562 -50.886719 46.40625 -50.566406 46.40625 -50.566406 C 45.765625 -50.246094 45.125 -50.566406 44.484375 -50.566406 C 44.164062 -50.246094 43.527344 -49.925781 42.886719 -49.925781 C 41.605469 -49.925781 40.324219 -49.605469 39.046875 -49.285156 C 38.726562 -49.285156 38.40625 -49.285156 37.765625 -48.964844 C 36.804688 -48.964844 36.164062 -48.964844 34.882812 -48.328125 C 33.925781 -48.007812 32.324219 -47.367188 31.042969 -47.367188 C 30.722656 -47.046875 30.402344 -46.726562 30.085938 -46.726562 C 29.445312 -46.726562 28.804688 -46.726562 28.164062 -46.726562 C 27.84375 -46.085938 27.523438 -46.40625 27.203125 -46.40625 C 26.5625 -46.085938 25.921875 -45.765625 25.601562 -45.445312 C 24.964844 -45.445312 23.683594 -45.445312 22.722656 -44.804688 C 20.804688 -43.847656 18.882812 -43.207031 16.960938 -41.925781 C 16.640625 -41.605469 16.003906 -41.285156 15.363281 -41.285156 C 14.722656 -41.605469 14.722656 -40.644531 13.761719 -40.644531 C 12.800781 -40.644531 11.839844 -40.003906 10.882812 -39.046875 C 10.5625 -39.046875 10.242188 -39.046875 9.921875 -38.40625 C 9.28125 -37.765625 8.640625 -37.445312 8.320312 -36.804688 C 6.722656 -35.84375 5.761719 -34.566406 5.121094 -32.964844 C 4.800781 -32.644531 4.800781 -32.324219 4.480469 -32.003906 C 3.519531 -30.722656 3.519531 -29.125 3.839844 -27.523438 C 3.839844 -26.882812 4.160156 -26.242188 3.839844 -25.921875 C 3.839844 -24.964844 4.480469 -24.003906 4.480469 -22.722656 C 4.480469 -22.402344 4.480469 -21.761719 5.121094 -21.121094 C 5.761719 -19.523438 5.761719 -17.28125 7.679688 -15.683594 C 8.320312 -14.722656 8.960938 -13.761719 9.601562 -12.800781 C 9.601562 -12.480469 9.601562 -12.160156 9.921875 -11.839844 C 9.921875 -11.203125 10.242188 -10.882812 10.882812 -10.242188 C 9.601562 -9.921875 8.960938 -9.601562 8.320312 -9.601562 C 7.679688 -9.28125 7.359375 -8.960938 7.039062 -8.640625 C 5.441406 -8.640625 3.839844 -8 2.242188 -7.039062 C 0.960938 -6.722656 0 -6.082031 -0.960938 -5.441406 C -1.28125 -5.441406 -1.28125 -5.121094 -1.601562 -5.121094 C -3.199219 -5.121094 -4.480469 -4.480469 -5.761719 -4.160156 C -6.402344 -3.839844 -7.039062 -3.839844 -7.039062 -3.519531 C -8.960938 -3.199219 -10.5625 -2.242188 -12.160156 -1.601562 C -13.761719 -0.640625 -15.363281 -0.320312 -16.960938 0.640625 C -17.28125 0.960938 -17.28125 1.601562 -17.921875 1.601562 C -19.203125 2.242188 -19.84375 3.199219 -20.164062 4.160156 C -19.84375 4.480469 -19.84375 5.121094 -19.84375 5.761719 C -19.84375 8.320312 -18.5625 9.921875 -15.683594 9.921875 C -15.683594 9.921875 -15.363281 9.921875 -15.363281 9.921875 C -15.042969 10.242188 -14.722656 10.5625 -14.722656 10.882812 C -13.121094 10.5625 -11.839844 10.242188 -10.5625 10.242188 C -10.5625 10.5625 -10.242188 10.5625 -10.242188 10.5625 C -9.28125 10.242188 -8.320312 9.921875 -7.039062 9.601562 C -7.039062 9.601562 -6.722656 9.921875 -6.082031 9.921875 C -5.761719 9.601562 -5.441406 9.28125 -4.800781 9.28125 C -3.199219 8.640625 -1.921875 8.320312 -0.640625 8.320312 C 0 8.320312 0.640625 8 1.921875 7.359375 C 1.921875 7.359375 2.558594 7.359375 3.199219 7.359375 C 3.519531 6.722656 4.480469 6.722656 5.761719 6.722656 C 5.761719 6.402344 6.082031 6.082031 6.082031 5.761719 C 7.039062 5.761719 7.359375 5.761719 7.679688 5.761719 C 10.882812 3.839844 14.402344 2.558594 16.960938 -0.640625 C 18.5625 -2.242188 19.84375 -4.800781 19.84375 -8.320312 C 19.84375 -8.320312 20.484375 -8.640625 21.121094 -8.960938 C 20.804688 -8.320312 21.121094 -8.320312 21.121094 -8.320312 C 22.402344 -8.960938 23.042969 -9.601562 24.003906 -9.921875 C 24.964844 -10.242188 25.601562 -10.5625 26.5625 -10.882812 C 27.203125 -10.882812 28.484375 -10.882812 29.125 -11.839844 C 29.765625 -11.839844 30.085938 -12.160156 30.402344 -12.160156 C 32.003906 -12.160156 33.925781 -13.121094 34.882812 -13.761719 C 35.84375 -14.082031 36.804688 -14.402344 37.765625 -14.402344 C 39.046875 -14.722656 40.644531 -15.683594 41.925781 -16.320312 C 42.566406 -16.320312 43.207031 -16.640625 43.847656 -16.640625 C 45.445312 -16.640625 46.085938 -17.28125 48.007812 -17.601562 C 48.007812 -17.921875 48.007812 -18.242188 48.007812 -18.5625 C 49.285156 -18.882812 50.566406 -19.203125 51.207031 -19.84375 C 51.847656 -19.84375 51.847656 -20.484375 52.167969 -20.804688 C 52.488281 -20.484375 52.808594 -20.484375 53.128906 -19.84375 C 55.046875 -21.121094 56.648438 -21.121094 58.246094 -21.761719 C 58.246094 -22.402344 58.246094 -22.722656 58.246094 -23.042969 C 59.207031 -23.683594 59.207031 -22.402344 59.527344 -22.402344 C 59.847656 -22.722656 59.847656 -23.042969 59.847656 -23.683594 C 60.808594 -23.683594 61.128906 -23.683594 62.089844 -24.003906 Z M 7.359375 0 C 6.082031 0.320312 5.441406 0.640625 4.160156 0.960938 C 3.519531 1.601562 1.921875 2.242188 0.960938 2.242188 C 0.640625 2.558594 -0.320312 3.199219 -0.960938 3.199219 C -1.28125 3.199219 -1.921875 3.199219 -2.242188 3.199219 C -3.839844 3.839844 -5.121094 4.480469 -7.039062 4.480469 C -7.039062 4.480469 -7.039062 4.480469 -7.039062 4.800781 C -8.320312 5.441406 -9.601562 4.800781 -11.203125 5.121094 C -11.203125 5.441406 -11.523438 5.441406 -12.160156 5.761719 C -12.160156 5.441406 -12.480469 5.121094 -13.121094 4.480469 C -12.800781 4.160156 -12.160156 3.839844 -12.160156 3.519531 C -10.242188 3.199219 -8.320312 2.242188 -6.402344 1.28125 C -6.402344 1.28125 -6.082031 1.28125 -6.082031 0.960938 C -5.121094 0.960938 -3.519531 0.640625 -2.878906 -0.320312 C -2.878906 -0.320312 -2.558594 -0.640625 -2.242188 -0.640625 C -1.921875 -0.320312 -1.28125 -0.640625 -0.640625 -0.640625 C 0.320312 -1.28125 1.28125 -1.921875 2.558594 -2.242188 C 2.558594 -2.558594 3.199219 -2.242188 3.199219 -2.242188 C 4.800781 -3.199219 6.082031 -3.839844 8 -4.480469 C 8.320312 -4.480469 8.640625 -4.480469 9.28125 -4.480469 C 9.921875 -5.121094 10.882812 -5.761719 11.203125 -6.082031 C 12.160156 -6.082031 12.800781 -5.761719 13.441406 -6.722656 C 13.441406 -6.082031 13.441406 -5.761719 13.761719 -5.121094 C 13.121094 -4.160156 12.160156 -2.558594 10.882812 -1.921875 C 9.921875 -1.921875 9.921875 -0.960938 8.960938 -0.640625 C 8.320312 -0.640625 7.679688 -0.320312 7.359375 0 Z M 76.808594 -32.324219 C 76.171875 -31.683594 75.53125 -31.363281 75.210938 -31.042969 C 75.851562 -30.722656 76.171875 -30.722656 76.492188 -30.402344 C 77.128906 -31.042969 77.449219 -31.363281 77.769531 -31.683594 C 77.449219 -32.003906 77.128906 -32.003906 76.808594 -32.324219 Z M 76.808594 -32.324219 "/></g></g></g></svg>