<svg xmlns="http://www.w3.org/2000/svg" xmlns:xlink="http://www.w3.org/1999/xlink" width="1000" zoomAndPan="magnify" viewBox="0 0 750 374.999991" height="500" preserveAspectRatio="xMidYMid meet" version="1.0"><defs><g/></defs><g fill="rgb(43.919373%, 27.839661%, 3.529358%)" fill-opacity="1"><g transform="translate(163.279979, 306.224235)"><g><path d="M 125.3125 -255.613281 C 122.324219 -257.277344 118.667969 -256.945312 114.34375 -255.28125 C 114.011719 -255.28125 113.679688 -254.949219 113.347656 -254.949219 L 111.019531 -253.621094 C 96.726562 -245.308594 77.78125 -220.378906 63.820312 -191.792969 L 70.800781 -238.328125 C 71.796875 -244.3125 69.140625 -250.296875 64.484375 -253.621094 L 58.503906 -258.273438 C 56.507812 -259.605469 54.179688 -259.9375 51.855469 -258.9375 C 49.527344 -257.941406 47.867188 -255.613281 47.867188 -252.957031 C 42.878906 -193.457031 15.289062 -37.894531 -5.652344 10.636719 C -6.316406 12.964844 -5.984375 15.289062 -4.320312 16.953125 C -3.324219 18.28125 -1.660156 18.613281 -0.332031 18.613281 C 0.332031 18.613281 0.996094 18.613281 1.660156 18.28125 C 6.980469 16.289062 11.300781 13.628906 14.625 10.636719 C 17.285156 8.308594 19.277344 4.984375 20.277344 1.328125 C 23.601562 -9.308594 44.875 -76.453125 60.828125 -172.515625 C 74.457031 -207.417969 99.054688 -242.652344 115.34375 -250.296875 C 116.339844 -250.628906 117.335938 -250.628906 118.335938 -249.964844 C 123.320312 -247.636719 125.980469 -231.683594 126.3125 -223.703125 C 127.640625 -203.429688 123.984375 -180.824219 115.011719 -155.5625 C 103.042969 -119.664062 88.75 -86.421875 66.8125 -86.421875 C 61.492188 -86.421875 59.5 -89.082031 59.167969 -89.746094 C 57.503906 -94.734375 57.835938 -99.71875 57.835938 -99.71875 C 58.167969 -101.050781 57.171875 -102.046875 55.84375 -102.378906 C 54.179688 -102.378906 53.183594 -101.382812 52.851562 -100.050781 C 52.851562 -99.386719 51.1875 -81.769531 65.148438 -76.121094 C 68.804688 -74.457031 72.464844 -73.792969 76.121094 -73.792969 C 79.777344 -73.792969 83.765625 -74.457031 87.421875 -76.121094 C 103.707031 -83.101562 118.667969 -104.707031 131.960938 -140.273438 C 143.265625 -170.851562 148.25 -195.78125 146.589844 -214.398438 C 144.925781 -232.347656 138.609375 -249.632812 125.3125 -255.613281 Z M 125.3125 -255.613281 "/></g></g></g><g fill="rgb(43.919373%, 27.839661%, 3.529358%)" fill-opacity="1"><g transform="translate(289.581237, 306.224235)"><g><path d="M 120.660156 -68.804688 C 119.332031 -69.140625 118 -68.472656 117.667969 -67.476562 C 112.683594 -43.875 102.046875 -11.632812 91.410156 6.316406 C 90.082031 8.308594 85.425781 13.296875 80.441406 10.636719 C 78.445312 9.308594 75.785156 -3.65625 81.105469 -36.230469 C 85.425781 -64.816406 94.734375 -95.730469 104.707031 -118.667969 C 107.363281 -123.984375 105.703125 -130.632812 101.050781 -135.285156 L 96.0625 -139.941406 C 94.070312 -141.601562 91.742188 -142.597656 89.414062 -142.597656 C 87.089844 -142.265625 85.09375 -141.269531 83.765625 -139.273438 C 78.445312 -130.300781 73.460938 -117.667969 69.140625 -103.042969 L 68.804688 -103.707031 C 66.8125 -111.6875 62.824219 -117.667969 56.839844 -120.660156 C 52.1875 -122.65625 45.207031 -122.65625 38.226562 -119.996094 C 28.917969 -116.339844 11.300781 -105.371094 1.328125 -72.464844 C -6.316406 -44.875 -2.328125 -29.914062 2.328125 -21.9375 C 7.3125 -13.960938 13.960938 -11.964844 16.621094 -11.300781 C 17.949219 -10.96875 18.945312 -10.96875 20.277344 -10.96875 C 27.589844 -10.96875 36.230469 -15.289062 44.542969 -26.257812 C 44.875 -26.925781 45.207031 -27.257812 45.871094 -27.589844 C 45.871094 -27.921875 46.203125 -27.921875 46.203125 -28.253906 C 50.191406 -33.574219 54.179688 -39.886719 57.503906 -48.199219 C 55.84375 -28.917969 54.179688 -0.332031 62.824219 14.625 C 66.148438 20.277344 70.46875 23.601562 76.121094 24.265625 L 77.449219 24.265625 C 88.085938 24.265625 98.058594 9.640625 109.027344 -20.277344 C 117.335938 -42.546875 122.65625 -65.484375 122.988281 -65.816406 C 122.65625 -67.144531 121.992188 -68.472656 120.660156 -68.804688 Z M 65.484375 -89.746094 C 63.820312 -83.101562 62.492188 -76.453125 61.160156 -69.472656 C 54.847656 -52.1875 48.199219 -39.554688 41.882812 -30.914062 C 36.5625 -23.933594 30.25 -23.601562 27.921875 -25.261719 C 24.597656 -26.925781 17.617188 -30.914062 26.925781 -69.140625 C 35.566406 -105.039062 50.855469 -111.019531 56.175781 -110.355469 C 59.832031 -109.691406 63.15625 -106.035156 64.484375 -102.378906 C 65.148438 -99.054688 65.816406 -94.734375 65.484375 -89.746094 Z M 29.582031 -151.90625 C 31.246094 -151.242188 32.242188 -151.90625 32.90625 -153.234375 C 33.90625 -155.894531 35.234375 -157.558594 36.894531 -158.222656 C 39.886719 -159.21875 44.210938 -157.226562 48.53125 -155.230469 C 52.519531 -153.234375 55.84375 -151.574219 59.167969 -151.574219 C 60.164062 -151.574219 61.160156 -151.574219 61.828125 -151.90625 C 64.152344 -152.902344 65.816406 -154.566406 66.480469 -157.558594 C 67.144531 -158.554688 66.148438 -160.214844 65.148438 -160.546875 C 63.820312 -161.214844 62.492188 -160.546875 61.828125 -159.550781 C 61.492188 -157.890625 60.828125 -156.890625 59.832031 -156.558594 C 57.835938 -155.894531 53.847656 -157.558594 50.191406 -159.550781 C 45.539062 -161.878906 39.886719 -164.539062 34.902344 -162.875 C 31.910156 -161.878906 29.582031 -159.21875 28.253906 -155.230469 C 27.921875 -153.902344 28.253906 -152.570312 29.582031 -151.90625 Z M 29.582031 -151.90625 "/></g></g></g><g fill="rgb(43.919373%, 27.839661%, 3.529358%)" fill-opacity="1"><g transform="translate(407.573223, 306.224235)"><g><path d="M 103.042969 -68.140625 C 102.046875 -68.804688 100.71875 -68.472656 99.71875 -67.476562 C 71.796875 -30.25 54.847656 -15.289062 40.550781 -9.972656 L 40.21875 -9.972656 C 34.238281 -8.308594 28.917969 -9.640625 25.261719 -13.960938 C 17.949219 -22.269531 17.617188 -39.554688 24.265625 -58.835938 C 30.914062 -60.164062 57.503906 -66.148438 69.472656 -88.417969 C 73.128906 -95.730469 73.792969 -101.714844 73.128906 -106.367188 C 73.128906 -107.363281 72.796875 -108.695312 72.464844 -109.691406 C 71.796875 -111.6875 71.132812 -113.015625 70.46875 -114.34375 C 66.8125 -120.328125 60.164062 -123.984375 53.515625 -123.984375 C 38.226562 -123.984375 16.289062 -108.695312 0 -66.8125 C -9.640625 -41.550781 -4.652344 -25.925781 1.328125 -17.285156 C 8.640625 -6.648438 19.613281 -2.660156 26.59375 -2.660156 C 31.578125 -2.660156 36.5625 -3.65625 41.550781 -5.320312 C 41.550781 -5.320312 41.882812 -5.320312 41.882812 -5.652344 C 59.167969 -11.632812 77.117188 -29.582031 103.707031 -64.484375 C 104.375 -65.816406 104.375 -67.144531 103.042969 -68.140625 Z M 26.925781 -65.484375 C 40.886719 -99.054688 52.519531 -109.027344 59.832031 -111.355469 C 62.160156 -112.351562 64.152344 -112.019531 65.816406 -111.019531 L 67.808594 -108.363281 C 69.472656 -103.375 68.472656 -97.058594 65.148438 -90.746094 C 55.511719 -73.128906 35.234375 -66.480469 26.257812 -64.484375 Z M 26.925781 -65.484375 "/></g></g></g><g fill="rgb(43.919373%, 27.839661%, 3.529358%)" fill-opacity="1"><g transform="translate(506.62, 306.224235)"><g><path d="M 84.761719 -68.472656 C 83.765625 -69.140625 82.101562 -69.140625 81.4375 -68.140625 C 81.105469 -67.808594 70.136719 -53.847656 41.882812 -39.886719 C 38.226562 -51.855469 31.910156 -61.160156 26.257812 -69.804688 C 19.945312 -79.109375 14.625 -87.089844 13.960938 -96.394531 C 13.296875 -111.019531 22.601562 -125.648438 31.910156 -130.632812 C 33.574219 -131.628906 36.894531 -132.960938 39.222656 -131.296875 C 40.550781 -130.300781 41.882812 -129.304688 42.546875 -127.972656 C 46.535156 -122.324219 47.53125 -113.347656 44.875 -106.699219 C 44.210938 -105.371094 44.875 -104.039062 45.871094 -103.375 C 47.199219 -103.042969 48.53125 -103.375 49.195312 -104.707031 C 52.851562 -112.683594 51.523438 -123.652344 46.535156 -130.964844 C 45.539062 -132.628906 43.875 -133.957031 42.546875 -135.285156 L 42.214844 -135.285156 L 42.214844 -135.617188 C 38.226562 -138.609375 33.238281 -139.941406 27.589844 -139.609375 C 17.617188 -138.941406 7.976562 -133.625 0.996094 -124.648438 C -7.3125 -114.011719 -10.304688 -100.382812 -7.976562 -86.089844 C -5.652344 -74.457031 0.332031 -65.484375 6.648438 -56.839844 C 11.964844 -49.195312 17.617188 -40.886719 20.609375 -30.582031 C 2.660156 -23.601562 -9.308594 -10.96875 -11.632812 3.65625 C -12.964844 11.300781 -10.96875 18.28125 -6.648438 21.9375 C -4.652344 23.601562 -2.328125 24.597656 0.664062 25.261719 C 3.324219 26.257812 6.316406 26.59375 9.308594 26.59375 C 15.957031 26.59375 23.269531 24.265625 29.25 19.945312 C 36.894531 13.960938 45.871094 1.996094 44.875 -22.269531 C 44.542969 -26.925781 44.210938 -30.914062 43.210938 -34.902344 C 73.128906 -49.859375 84.761719 -64.152344 85.09375 -65.148438 C 86.089844 -66.148438 85.757812 -67.476562 84.761719 -68.472656 Z M 10.304688 19.613281 C 5.320312 22.269531 -0.332031 20.609375 -3.324219 18.28125 C -6.316406 15.621094 -7.644531 10.304688 -6.648438 4.320312 C -5.984375 -0.332031 -1.660156 -16.289062 21.605469 -25.59375 C 22.269531 -22.933594 22.601562 -20.277344 22.601562 -17.285156 C 23.601562 8.976562 15.621094 16.953125 10.304688 19.613281 Z M 10.304688 19.613281 "/></g></g></g></svg>