<svg xmlns="http://www.w3.org/2000/svg" xmlns:xlink="http://www.w3.org/1999/xlink" width="1000" zoomAndPan="magnify" viewBox="0 0 750 374.999991" height="500" preserveAspectRatio="xMidYMid meet" version="1.0"><defs><g/></defs><g fill="rgb(43.919373%, 27.839661%, 3.529358%)" fill-opacity="1"><g transform="translate(4.533114, 251.367592)"><g><path d="M 79.808594 -50.898438 C 79.558594 -50.898438 73.136719 -46.449219 58.0625 -42.25 C 59.050781 -63.746094 48.429688 -84.75 38.050781 -105.257812 C 29.648438 -121.8125 21.742188 -137.625 21.742188 -151.460938 C 21.742188 -163.074219 26.4375 -173.945312 34.589844 -180.617188 C 40.273438 -185.0625 46.449219 -187.039062 51.886719 -186.050781 C 61.523438 -184.074219 68.933594 -179.378906 73.382812 -171.96875 C 79.066406 -162.824219 80.054688 -149.976562 76.101562 -136.636719 C 75.855469 -135.648438 76.347656 -134.660156 77.335938 -134.410156 C 78.324219 -134.164062 79.3125 -134.660156 79.558594 -135.648438 C 83.761719 -149.730469 82.773438 -163.8125 76.59375 -173.945312 C 71.40625 -182.097656 63.253906 -187.535156 52.628906 -189.511719 C 49.910156 -190.003906 47.191406 -190.253906 44.472656 -190.253906 C 35.085938 -190.253906 26.683594 -187.285156 19.765625 -181.109375 C 9.882812 -172.460938 4.941406 -158.132812 5.929688 -142.320312 C 6.917969 -127.988281 14.824219 -113.65625 23.226562 -98.339844 C 32.863281 -80.300781 42.992188 -61.769531 41.507812 -43.238281 L 41.015625 -38.296875 L 32.863281 -36.816406 C 11.117188 -33.601562 0.742188 -21.988281 0 -11.613281 C -0.496094 -5.1875 3.210938 0.496094 9.390625 2.222656 L 9.636719 2.222656 C 13.09375 3.210938 17.542969 3.953125 21.988281 3.953125 C 27.921875 3.953125 34.097656 2.71875 39.78125 -0.988281 C 49.167969 -7.414062 55.347656 -19.519531 57.570312 -37.0625 C 57.570312 -37.554688 57.570312 -37.804688 57.816406 -38.296875 C 74.371094 -42.992188 81.289062 -47.6875 81.785156 -47.933594 C 82.523438 -48.429688 82.773438 -49.664062 82.277344 -50.40625 C 81.535156 -51.394531 80.546875 -51.394531 79.808594 -50.898438 Z M 25.203125 -3.953125 C 20.753906 -0.742188 15.566406 0 10.625 -1.234375 C 5.929688 -2.71875 3.460938 -6.425781 3.707031 -11.367188 C 4.199219 -20.261719 13.589844 -30.390625 33.355469 -33.355469 L 40.519531 -34.34375 C 38.050781 -19.765625 32.863281 -9.140625 25.203125 -3.953125 Z M 25.203125 -3.953125 "/></g></g></g><g fill="rgb(43.919373%, 27.839661%, 3.529358%)" fill-opacity="1"><g transform="translate(82.110085, 251.367592)"><g><path d="M 92.65625 -50.40625 C 92.160156 -51.144531 90.925781 -51.640625 90.183594 -50.898438 C 89.9375 -50.898438 70.664062 -38.792969 52.628906 -42.992188 C 55.097656 -50.40625 56.085938 -58.0625 55.839844 -64.980469 C 55.097656 -77.582031 49.910156 -86.476562 41.015625 -89.691406 C 35.578125 -91.667969 30.144531 -91.417969 24.707031 -88.703125 C 14.332031 -83.265625 5.4375 -69.183594 0 -49.910156 C -4.695312 -33.109375 0.988281 -21 7.660156 -15.320312 C 11.613281 -12.105469 16.058594 -10.625 20.753906 -10.625 C 23.96875 -10.625 26.933594 -11.367188 29.898438 -12.847656 C 39.78125 -17.542969 47.191406 -27.921875 51.394531 -39.285156 C 54.359375 -38.792969 57.324219 -38.296875 60.535156 -38.296875 C 63.746094 -38.296875 67.453125 -38.792969 71.160156 -39.53125 C 82.773438 -42.003906 91.667969 -47.6875 92.160156 -47.933594 C 92.902344 -48.429688 93.148438 -49.664062 92.65625 -50.40625 Z M 33.601562 -19.519531 C 29.648438 -16.554688 25.449219 -16.308594 21.742188 -18.777344 C 16.308594 -22.484375 11.859375 -32.863281 16.554688 -50.40625 C 18.53125 -57.816406 21.496094 -64.242188 25.203125 -69.183594 C 25.449219 -64.488281 27.179688 -58.0625 33.355469 -50.898438 C 37.308594 -46.203125 41.757812 -42.746094 47.191406 -40.769531 C 47.441406 -40.519531 47.6875 -40.519531 47.933594 -40.519531 C 44.722656 -32.121094 39.78125 -24.460938 33.601562 -19.519531 Z M 49.167969 -43.980469 C 48.921875 -43.980469 48.675781 -43.980469 48.429688 -44.226562 C 44.722656 -45.710938 41.757812 -48.921875 40.027344 -53.371094 C 36.074219 -63.5 38.542969 -77.089844 40.027344 -81.289062 C 40.769531 -81.535156 41.261719 -81.535156 41.757812 -81.535156 C 45.214844 -82.03125 47.933594 -80.300781 49.417969 -76.84375 C 51.394531 -72.640625 52.132812 -67.945312 52.132812 -64.734375 C 52.628906 -58.3125 51.394531 -50.898438 49.167969 -43.980469 Z M 49.167969 -43.980469 "/></g></g></g><g fill="rgb(43.919373%, 27.839661%, 3.529358%)" fill-opacity="1"><g transform="translate(169.322409, 251.367592)"><g><path d="M 112.667969 -50.898438 C 111.925781 -51.640625 110.691406 -51.394531 110.199219 -50.40625 C 98.585938 -33.109375 81.785156 -20.261719 65.722656 -11.859375 C 74.371094 -21.496094 81.042969 -34.34375 83.511719 -39.78125 C 97.351562 -69.675781 97.597656 -87.960938 84.007812 -95.867188 C 80.796875 -97.597656 76.84375 -97.84375 72.148438 -96.113281 C 68.933594 -94.878906 65.476562 -92.902344 61.523438 -89.691406 C 61.277344 -89.691406 61.027344 -89.441406 61.027344 -89.195312 C 47.6875 -78.324219 30.636719 -55.097656 15.566406 -16.058594 C 15.320312 -26.683594 15.8125 -38.296875 17.046875 -49.910156 C 17.542969 -49.910156 18.285156 -50.15625 18.777344 -50.652344 C 73.878906 -127.988281 77.089844 -165.542969 74.617188 -180.367188 L 74.617188 -180.617188 L 73.878906 -183.828125 C 72.640625 -188.523438 70.171875 -192.230469 67.207031 -193.464844 C 60.535156 -196.183594 55.839844 -194.207031 50.652344 -190.003906 C 42.496094 -183.582031 21.496094 -160.601562 5.683594 -87.21875 C -4.449219 -40.519531 -1.484375 -3.707031 0.246094 10.128906 C 0.988281 15.070312 3.953125 19.273438 8.152344 21.496094 L 14.082031 24.460938 C 14.824219 24.707031 15.320312 24.957031 16.058594 24.957031 C 17.046875 24.957031 17.789062 24.707031 18.53125 23.96875 C 20.011719 22.976562 20.507812 21.25 20.011719 19.765625 C 18.035156 13.09375 16.800781 3.953125 16.058594 -6.671875 C 30.886719 -48.179688 49.167969 -74.867188 63.5 -86.726562 C 66.464844 -88.207031 73.878906 -91.171875 77.335938 -87.960938 C 80.546875 -84.75 79.558594 -71.652344 66.957031 -44.226562 C 56.828125 -22.484375 46.699219 -8.402344 39.285156 -7.164062 C 37.308594 -6.671875 35.578125 -7.414062 33.851562 -8.894531 C 32.367188 -10.128906 31.378906 -11.859375 30.144531 -13.589844 C 29.402344 -14.332031 28.414062 -14.578125 27.425781 -14.082031 C 26.683594 -13.589844 26.4375 -12.355469 26.933594 -11.613281 C 28.414062 -9.636719 29.648438 -7.90625 31.132812 -6.425781 C 33.109375 -4.199219 35.332031 -2.71875 37.554688 -1.730469 C 39.78125 -0.496094 42.25 0 44.722656 0 L 45.957031 0 L 48.179688 -0.496094 L 48.429688 -0.496094 C 50.40625 -0.988281 52.382812 -1.730469 54.109375 -2.71875 C 73.878906 -10.378906 98.089844 -25.695312 113.164062 -48.429688 C 113.65625 -49.167969 113.410156 -50.40625 112.667969 -50.898438 Z M 22.484375 -82.03125 C 26.191406 -97.101562 34.34375 -123.789062 42.496094 -145.777344 C 57.074219 -183.582031 63.992188 -186.050781 65.476562 -186.050781 L 65.722656 -186.050781 C 69.429688 -185.558594 70.914062 -180.863281 70.914062 -179.875 C 72.148438 -173.449219 72.148438 -160.847656 64.980469 -140.589844 C 56.582031 -116.621094 40.519531 -87.960938 17.789062 -55.59375 C 18.777344 -64.488281 20.507812 -73.382812 22.484375 -82.03125 Z M 22.484375 -82.03125 "/></g></g></g><g fill="rgb(43.919373%, 27.839661%, 3.529358%)" fill-opacity="1"><g transform="translate(279.017227, 251.367592)"><g><path d="M 78.820312 -51.144531 C 77.832031 -51.640625 76.84375 -51.144531 76.347656 -50.15625 C 66.464844 -29.648438 54.605469 -14.332031 44.96875 -6.175781 C 43.238281 -5.1875 41.261719 -4.199219 39.78125 -4.695312 C 39.53125 -4.695312 39.039062 -4.941406 38.542969 -5.929688 C 35.578125 -12.355469 40.027344 -33.355469 45.957031 -48.675781 C 46.699219 -50.652344 46.203125 -52.875 44.722656 -54.109375 C 43.238281 -55.59375 41.015625 -56.085938 39.285156 -55.347656 C 32.863281 -52.628906 23.71875 -49.417969 17.046875 -49.664062 C 14.082031 -49.664062 12.355469 -50.40625 11.613281 -51.640625 C 9.636719 -54.851562 13.09375 -63.253906 15.8125 -69.183594 C 17.789062 -73.382812 16.800781 -78.324219 13.09375 -81.289062 L 10.871094 -83.265625 C 9.390625 -84.75 7.164062 -85.242188 5.1875 -84.75 C 3.210938 -84.253906 1.484375 -83.019531 0.742188 -81.042969 C -6.425781 -65.722656 -8.402344 -56.828125 -0.988281 -49.167969 C 5.1875 -42.746094 19.765625 -44.226562 26.191406 -45.214844 C 19.765625 -29.15625 16.554688 -9.636719 22.484375 -0.496094 C 24.707031 2.472656 27.671875 4.199219 31.378906 4.199219 L 31.625 4.199219 C 36.320312 4.199219 42.003906 1.234375 47.933594 -3.953125 C 48.675781 -4.449219 48.921875 -4.941406 49.167969 -5.1875 C 59.546875 -14.332031 70.664062 -29.898438 79.558594 -48.675781 C 80.054688 -49.664062 79.808594 -50.652344 78.820312 -51.144531 Z M 78.820312 -51.144531 "/></g></g></g><g fill="rgb(43.919373%, 27.839661%, 3.529358%)" fill-opacity="1"><g transform="translate(355.111836, 251.367592)"><g><path d="M 76.59375 -50.652344 C 75.855469 -51.144531 74.867188 -50.898438 74.125 -50.15625 C 53.371094 -22.484375 40.769531 -11.367188 30.144531 -7.414062 L 29.898438 -7.414062 C 25.449219 -6.175781 21.496094 -7.164062 18.777344 -10.378906 C 13.34375 -16.554688 13.09375 -29.402344 18.035156 -43.734375 C 22.976562 -44.722656 42.746094 -49.167969 51.640625 -65.722656 C 54.359375 -71.160156 54.851562 -75.605469 54.359375 -79.066406 C 54.359375 -79.808594 54.109375 -80.796875 53.863281 -81.535156 C 53.371094 -83.019531 52.875 -84.007812 52.382812 -84.996094 C 49.664062 -89.441406 44.722656 -92.160156 39.78125 -92.160156 C 28.414062 -92.160156 12.105469 -80.796875 0 -49.664062 C -7.164062 -30.886719 -3.460938 -19.273438 0.988281 -12.847656 C 6.425781 -4.941406 14.578125 -1.976562 19.765625 -1.976562 C 23.472656 -1.976562 27.179688 -2.71875 30.886719 -3.953125 C 30.886719 -3.953125 31.132812 -3.953125 31.132812 -4.199219 C 43.980469 -8.648438 57.324219 -21.988281 77.089844 -47.933594 C 77.582031 -48.921875 77.582031 -49.910156 76.59375 -50.652344 Z M 20.011719 -48.675781 C 30.390625 -73.628906 39.039062 -81.042969 44.472656 -82.773438 C 46.203125 -83.511719 47.6875 -83.265625 48.921875 -82.523438 L 50.40625 -80.546875 C 51.640625 -76.84375 50.898438 -72.148438 48.429688 -67.453125 C 41.261719 -54.359375 26.191406 -49.417969 19.519531 -47.933594 Z M 20.011719 -48.675781 "/></g></g></g><g fill="rgb(43.919373%, 27.839661%, 3.529358%)" fill-opacity="1"><g transform="translate(428.735813, 251.367592)"><g/></g></g><g fill="rgb(43.919373%, 27.839661%, 3.529358%)" fill-opacity="1"><g transform="translate(516.442294, 251.367592)"><g><path d="M 84.996094 -51.144531 C 84.007812 -51.394531 83.019531 -50.898438 82.523438 -50.15625 C 76.84375 -33.601562 66.957031 -17.296875 61.027344 -12.601562 C 60.78125 -12.355469 60.78125 -12.355469 60.535156 -12.355469 C 59.792969 -11.613281 59.050781 -11.367188 58.3125 -11.367188 C 58.0625 -11.117188 57.324219 -11.117188 56.582031 -12.601562 C 53.121094 -18.285156 60.535156 -44.722656 65.476562 -62.265625 C 69.183594 -74.617188 71.160156 -82.03125 70.914062 -84.75 C 70.171875 -92.65625 65.230469 -101.054688 57.816406 -101.054688 C 53.121094 -101.054688 47.6875 -97.84375 41.757812 -91.914062 C 31.132812 -81.042969 20.753906 -63.003906 15.320312 -49.664062 C 15.566406 -61.769531 16.308594 -74.125 18.035156 -82.773438 C 19.023438 -86.476562 17.296875 -90.429688 14.082031 -92.40625 L 9.636719 -95.125 C 8.402344 -95.867188 7.164062 -95.867188 5.929688 -95.375 C 4.695312 -94.878906 3.953125 -93.890625 3.460938 -92.65625 C -0.496094 -76.101562 -1.730469 -40.027344 2.964844 -18.777344 C 3.953125 -14.824219 7.164062 -12.105469 11.117188 -11.859375 L 12.601562 -11.613281 L 12.847656 -11.613281 C 14.082031 -11.613281 15.070312 -12.105469 15.8125 -13.09375 C 16.800781 -13.835938 17.296875 -15.070312 17.046875 -16.308594 C 16.308594 -21 15.8125 -28.167969 15.566406 -36.074219 C 15.566406 -44.96875 29.402344 -74.125 44.472656 -89.195312 C 46.699219 -91.667969 48.921875 -93.394531 50.898438 -94.878906 C 52.382812 -95.621094 54.851562 -96.113281 55.839844 -95.375 C 56.828125 -94.386719 56.828125 -91.914062 55.839844 -88.703125 L 53.617188 -81.289062 C 48.675781 -65.722656 39.53125 -36.566406 39.285156 -20.011719 C 39.285156 -12.355469 40.519531 -8.152344 47.191406 -5.683594 C 49.417969 -4.941406 51.394531 -4.449219 53.121094 -4.449219 C 58.0625 -4.449219 61.027344 -7.414062 62.757812 -9.390625 L 63.253906 -9.636719 C 71.40625 -16.058594 81.289062 -35.332031 85.984375 -48.921875 C 86.476562 -49.664062 85.984375 -50.898438 84.996094 -51.144531 Z M 84.996094 -51.144531 "/></g></g></g><g fill="rgb(43.919373%, 27.839661%, 3.529358%)" fill-opacity="1"><g transform="translate(598.71342, 251.367592)"><g><path d="M 92.65625 -50.40625 C 92.160156 -51.144531 90.925781 -51.640625 90.183594 -50.898438 C 89.9375 -50.898438 70.664062 -38.792969 52.628906 -42.992188 C 55.097656 -50.40625 56.085938 -58.0625 55.839844 -64.980469 C 55.097656 -77.582031 49.910156 -86.476562 41.015625 -89.691406 C 35.578125 -91.667969 30.144531 -91.417969 24.707031 -88.703125 C 14.332031 -83.265625 5.4375 -69.183594 0 -49.910156 C -4.695312 -33.109375 0.988281 -21 7.660156 -15.320312 C 11.613281 -12.105469 16.058594 -10.625 20.753906 -10.625 C 23.96875 -10.625 26.933594 -11.367188 29.898438 -12.847656 C 39.78125 -17.542969 47.191406 -27.921875 51.394531 -39.285156 C 54.359375 -38.792969 57.324219 -38.296875 60.535156 -38.296875 C 63.746094 -38.296875 67.453125 -38.792969 71.160156 -39.53125 C 82.773438 -42.003906 91.667969 -47.6875 92.160156 -47.933594 C 92.902344 -48.429688 93.148438 -49.664062 92.65625 -50.40625 Z M 33.601562 -19.519531 C 29.648438 -16.554688 25.449219 -16.308594 21.742188 -18.777344 C 16.308594 -22.484375 11.859375 -32.863281 16.554688 -50.40625 C 18.53125 -57.816406 21.496094 -64.242188 25.203125 -69.183594 C 25.449219 -64.488281 27.179688 -58.0625 33.355469 -50.898438 C 37.308594 -46.203125 41.757812 -42.746094 47.191406 -40.769531 C 47.441406 -40.519531 47.6875 -40.519531 47.933594 -40.519531 C 44.722656 -32.121094 39.78125 -24.460938 33.601562 -19.519531 Z M 49.167969 -43.980469 C 48.921875 -43.980469 48.675781 -43.980469 48.429688 -44.226562 C 44.722656 -45.710938 41.757812 -48.921875 40.027344 -53.371094 C 36.074219 -63.5 38.542969 -77.089844 40.027344 -81.289062 C 40.769531 -81.535156 41.261719 -81.535156 41.757812 -81.535156 C 45.214844 -82.03125 47.933594 -80.300781 49.417969 -76.84375 C 51.394531 -72.640625 52.132812 -67.945312 52.132812 -64.734375 C 52.628906 -58.3125 51.394531 -50.898438 49.167969 -43.980469 Z M 47.191406 -127 C 45.214844 -129.222656 42.992188 -129.964844 41.507812 -128.730469 L 21.988281 -112.421875 C 20.507812 -111.433594 20.507812 -109.210938 21.988281 -107.234375 L 22.730469 -106.492188 L 22.730469 -106.246094 C 23.96875 -105.007812 25.449219 -104.269531 26.4375 -105.007812 L 49.417969 -119.339844 C 50.15625 -119.835938 50.652344 -120.328125 50.40625 -121.070312 C 50.652344 -122.058594 50.40625 -123.046875 49.417969 -124.28125 Z M 47.191406 -127 "/></g></g></g><g fill="rgb(43.919373%, 27.839661%, 3.529358%)" fill-opacity="1"><g transform="translate(685.925721, 251.367592)"><g><path d="M 63.003906 -50.898438 C 62.265625 -51.394531 61.027344 -51.394531 60.535156 -50.652344 C 60.289062 -50.40625 52.132812 -40.027344 31.132812 -29.648438 C 28.414062 -38.542969 23.71875 -45.460938 19.519531 -51.886719 C 14.824219 -58.804688 10.871094 -64.734375 10.378906 -71.652344 C 9.882812 -82.523438 16.800781 -93.394531 23.71875 -97.101562 C 24.957031 -97.84375 27.425781 -98.832031 29.15625 -97.597656 C 30.144531 -96.855469 31.132812 -96.113281 31.625 -95.125 C 34.589844 -90.925781 35.332031 -84.253906 33.355469 -79.3125 C 32.863281 -78.324219 33.355469 -77.335938 34.097656 -76.84375 C 35.085938 -76.59375 36.074219 -76.84375 36.566406 -77.832031 C 39.285156 -83.761719 38.296875 -91.914062 34.589844 -97.351562 C 33.851562 -98.585938 32.613281 -99.574219 31.625 -100.5625 L 31.378906 -100.5625 L 31.378906 -100.808594 C 28.414062 -103.03125 24.707031 -104.019531 20.507812 -103.773438 C 13.09375 -103.28125 5.929688 -99.328125 0.742188 -92.65625 C -5.4375 -84.75 -7.660156 -74.617188 -5.929688 -63.992188 C -4.199219 -55.347656 0.246094 -48.675781 4.941406 -42.25 C 8.894531 -36.566406 13.09375 -30.390625 15.320312 -22.730469 C 1.976562 -17.542969 -6.917969 -8.152344 -8.648438 2.71875 C -9.636719 8.402344 -8.152344 13.589844 -4.941406 16.308594 C -3.460938 17.542969 -1.730469 18.285156 0.496094 18.777344 C 2.472656 19.519531 4.695312 19.765625 6.917969 19.765625 C 11.859375 19.765625 17.296875 18.035156 21.742188 14.824219 C 27.425781 10.378906 34.097656 1.484375 33.355469 -16.554688 C 33.109375 -20.011719 32.863281 -22.976562 32.121094 -25.945312 C 54.359375 -37.0625 63.003906 -47.6875 63.253906 -48.429688 C 63.992188 -49.167969 63.746094 -50.15625 63.003906 -50.898438 Z M 7.660156 14.578125 C 3.953125 16.554688 -0.246094 15.320312 -2.472656 13.589844 C -4.695312 11.613281 -5.683594 7.660156 -4.941406 3.210938 C -4.449219 -0.246094 -1.234375 -12.105469 16.058594 -19.023438 C 16.554688 -17.046875 16.800781 -15.070312 16.800781 -12.847656 C 17.542969 6.671875 11.613281 12.601562 7.660156 14.578125 Z M 7.660156 14.578125 "/></g></g></g></svg>